
<svg version="1.1" id="Layer_1" xmlns="http://www.w3.org/2000/svg" xmlns:xlink="http://www.w3.org/1999/xlink" x="0px" y="0px"
	 viewBox="0 0 550.62 68.552" style="enable-background:new 0 0 550.62 68.552;" xml:space="preserve">
<g>
	<g>
		<path style="fill:#F69320;" d="M85.536,25.727V6.099h13.456v3.32H89.5v4.646h8.193v3.32H89.5v8.342H85.536z"/>
		<path style="fill:#F69320;" d="M103.103,25.727V6.099h3.964v19.628H103.103z"/>
		<path style="fill:#F69320;" d="M111.913,25.727V6.26h3.963v16.161h9.854v3.307H111.913z"/>
		<path style="fill:#F69320;" d="M129.627,25.727V6.26h3.963v16.161h9.854v3.307H129.627z"/>
		<path style="fill:#F69320;" d="M154.235,25.727V6.099h3.964v19.628H154.235z"/>
		<path style="fill:#F69320;" d="M162.979,25.727V6.099h3.856l8.033,13.107V6.099h3.682v19.628h-3.977l-7.913-12.8v12.8H162.979z"/>
		<path style="fill:#F69320;" d="M195.742,25.727V9.42h-5.824v-3.32h15.599v3.32h-5.811v16.308H195.742z"/>
		<path style="fill:#F69320;" d="M209.051,25.727V6.099h3.963v7.725h7.766V6.099h3.963v19.628h-3.963v-8.582h-7.766v8.582H209.051z"
			/>
		<path style="fill:#F69320;" d="M229.804,25.727V6.099h14.554v3.32h-10.591v4.352h9.854v3.307h-9.854v5.343h10.966v3.307H229.804z"
			/>
		<path style="fill:#F69320;" d="M256.702,25.727V6.099h13.456v3.32h-9.492v4.646h8.193v3.32h-8.193v8.342H256.702z"/>
		<path style="fill:#F69320;" d="M273.586,16.034c0-2,0.299-3.678,0.897-5.034c0.446-1,1.056-1.897,1.827-2.691
			c0.772-0.795,1.618-1.384,2.537-1.768c1.224-0.518,2.634-0.776,4.231-0.776c2.892,0,5.206,0.896,6.942,2.691
			c1.735,1.794,2.604,4.289,2.604,7.484c0,3.169-0.861,5.647-2.584,7.437s-4.025,2.685-6.908,2.685c-2.919,0-5.24-0.891-6.963-2.671
			C274.447,21.61,273.586,19.158,273.586,16.034z M277.67,15.9c0,2.222,0.513,3.907,1.54,5.054c1.026,1.147,2.329,1.721,3.909,1.721
			s2.876-0.569,3.89-1.707c1.013-1.138,1.52-2.846,1.52-5.121c0-2.25-0.493-3.928-1.479-5.034c-0.986-1.107-2.296-1.661-3.93-1.661
			s-2.95,0.561-3.95,1.681C278.17,11.952,277.67,13.641,277.67,15.9z"/>
		<path style="fill:#F69320;" d="M296.696,25.727V6.099h8.341c2.098,0,3.622,0.176,4.572,0.528c0.951,0.353,1.712,0.979,2.283,1.881
			c0.571,0.902,0.856,1.933,0.856,3.093c0,1.474-0.433,2.689-1.299,3.649c-0.865,0.959-2.16,1.564-3.883,1.813
			c0.857,0.5,1.564,1.049,2.123,1.647c0.558,0.598,1.31,1.66,2.256,3.187l2.396,3.829h-4.74l-2.865-4.271
			c-1.018-1.526-1.714-2.487-2.088-2.885c-0.375-0.397-0.772-0.67-1.192-0.817c-0.419-0.146-1.084-0.221-1.995-0.221h-0.803v8.194
			H296.696z M300.659,14.4h2.932c1.901,0,3.089-0.08,3.562-0.241c0.474-0.16,0.844-0.438,1.111-0.83
			c0.269-0.393,0.402-0.884,0.402-1.473c0-0.66-0.177-1.193-0.529-1.6s-0.85-0.663-1.493-0.771
			c-0.321-0.044-1.285-0.066-2.892-0.066h-3.093V14.4z"/>
		<path style="fill:#F69320;" d="M317.396,25.727V6.099h5.932l3.562,13.389l3.521-13.389h5.944v19.628h-3.682V10.276l-3.896,15.451
			h-3.816l-3.883-15.451v15.451H317.396z"/>
		<path style="fill:#F69320;" d="M365.556,25.727h-4.312l-1.714-4.459h-7.846l-1.62,4.459h-4.204l7.646-19.628h4.19L365.556,25.727z
			 M358.259,17.962l-2.705-7.284l-2.65,7.284H358.259z"/>
		<path style="fill:#F69320;" d="M368.636,6.099h7.846c1.553,0,2.711,0.064,3.475,0.193c0.763,0.13,1.445,0.399,2.048,0.811
			c0.603,0.41,1.105,0.957,1.507,1.64c0.401,0.684,0.603,1.448,0.603,2.297c0,0.919-0.248,1.763-0.743,2.53
			s-1.167,1.344-2.016,1.728c1.196,0.348,2.116,0.941,2.759,1.78s0.964,1.825,0.964,2.959c0,0.893-0.208,1.761-0.623,2.604
			s-0.981,1.518-1.7,2.021c-0.719,0.505-1.604,0.814-2.657,0.931c-0.661,0.071-2.254,0.116-4.78,0.134h-6.681V6.099z M372.599,9.366
			v4.539h2.598c1.544,0,2.504-0.022,2.878-0.067c0.679-0.08,1.212-0.314,1.601-0.703c0.388-0.388,0.582-0.898,0.582-1.533
			c0-0.606-0.167-1.1-0.502-1.479c-0.335-0.379-0.832-0.608-1.493-0.689c-0.393-0.044-1.521-0.066-3.387-0.066H372.599z
			 M372.599,17.172v5.249h3.669c1.428,0,2.334-0.041,2.718-0.121c0.589-0.107,1.068-0.368,1.439-0.783
			c0.37-0.415,0.556-0.971,0.556-1.667c0-0.589-0.144-1.089-0.429-1.499c-0.286-0.411-0.698-0.71-1.238-0.897
			s-1.712-0.281-3.515-0.281H372.599z"/>
		<path style="fill:#F69320;" d="M388.585,16.034c0-2,0.299-3.678,0.897-5.034c0.446-1,1.056-1.897,1.827-2.691
			c0.772-0.795,1.618-1.384,2.537-1.768c1.224-0.518,2.634-0.776,4.231-0.776c2.892,0,5.206,0.896,6.942,2.691
			c1.735,1.794,2.604,4.289,2.604,7.484c0,3.169-0.861,5.647-2.584,7.437s-4.025,2.685-6.908,2.685c-2.919,0-5.24-0.891-6.963-2.671
			C389.446,21.61,388.585,19.158,388.585,16.034z M392.669,15.9c0,2.222,0.513,3.907,1.54,5.054
			c1.026,1.147,2.329,1.721,3.909,1.721s2.876-0.569,3.89-1.707c1.013-1.138,1.52-2.846,1.52-5.121c0-2.25-0.493-3.928-1.479-5.034
			c-0.986-1.107-2.296-1.661-3.93-1.661s-2.95,0.561-3.95,1.681C393.169,11.952,392.669,13.641,392.669,15.9z"/>
		<path style="fill:#F69320;" d="M416.689,25.727l-7.017-19.628h4.298l4.968,14.526l4.807-14.526h4.204l-7.029,19.628H416.689z"/>
		<path style="fill:#F69320;" d="M430.935,25.727V6.099h14.554v3.32h-10.591v4.352h9.854v3.307h-9.854v5.343h10.966v3.307H430.935z"
			/>
		<path style="fill:#F69320;" d="M94.601,56.878c-0.893,0.759-1.752,1.294-2.577,1.606c-0.826,0.313-1.712,0.469-2.658,0.469
			c-1.562,0-2.763-0.382-3.602-1.145c-0.839-0.764-1.258-1.738-1.258-2.926c0-0.696,0.158-1.332,0.475-1.908
			c0.317-0.575,0.732-1.037,1.245-1.386c0.514-0.348,1.092-0.611,1.734-0.79c0.473-0.124,1.187-0.245,2.143-0.361
			c1.945-0.231,3.378-0.509,4.298-0.83c0.009-0.33,0.013-0.54,0.013-0.629c0-0.982-0.228-1.674-0.683-2.075
			c-0.616-0.545-1.531-0.817-2.745-0.817c-1.133,0-1.97,0.199-2.51,0.596c-0.54,0.397-0.939,1.101-1.198,2.109l-2.356-0.321
			c0.214-1.009,0.566-1.823,1.058-2.443c0.49-0.621,1.2-1.099,2.129-1.433c0.928-0.335,2.004-0.503,3.227-0.503
			c1.214,0,2.2,0.144,2.959,0.429c0.759,0.286,1.316,0.646,1.674,1.078c0.356,0.433,0.606,0.979,0.749,1.64
			c0.081,0.411,0.121,1.152,0.121,2.223v3.214c0,2.24,0.051,3.657,0.154,4.251c0.103,0.594,0.306,1.163,0.608,1.707h-2.517
			C94.833,58.132,94.672,57.547,94.601,56.878z M94.4,51.495c-0.875,0.357-2.188,0.661-3.937,0.911
			c-0.991,0.143-1.692,0.303-2.103,0.481s-0.728,0.44-0.95,0.783c-0.224,0.344-0.335,0.726-0.335,1.146
			c0,0.643,0.243,1.178,0.729,1.606s1.198,0.643,2.136,0.643c0.929,0,1.754-0.203,2.477-0.609c0.724-0.406,1.255-0.962,1.594-1.667
			c0.259-0.544,0.389-1.348,0.389-2.41V51.495z"/>
		<path style="fill:#F69320;" d="M100.572,58.632V44.413h2.169v2.021c1.044-1.563,2.553-2.344,4.525-2.344
			c0.857,0,1.645,0.154,2.363,0.462c0.719,0.309,1.256,0.712,1.613,1.212s0.607,1.094,0.75,1.781
			c0.089,0.446,0.134,1.228,0.134,2.343v8.743h-2.41v-8.649c0-0.981-0.094-1.716-0.281-2.202s-0.52-0.875-0.997-1.165
			s-1.038-0.436-1.681-0.436c-1.026,0-1.912,0.326-2.657,0.978c-0.746,0.651-1.118,1.888-1.118,3.709v7.766H100.572z"/>
		<path style="fill:#F69320;" d="M125.047,58.632v-1.794c-0.901,1.41-2.227,2.115-3.977,2.115c-1.133,0-2.176-0.313-3.126-0.938
			c-0.95-0.624-1.688-1.497-2.209-2.617c-0.522-1.12-0.783-2.408-0.783-3.863c0-1.419,0.236-2.706,0.709-3.862
			c0.474-1.156,1.183-2.042,2.129-2.658c0.946-0.615,2.004-0.924,3.174-0.924c0.856,0,1.62,0.182,2.289,0.543
			c0.67,0.361,1.214,0.832,1.634,1.412v-7.042h2.396v19.628H125.047z M117.429,51.535c0,1.821,0.384,3.183,1.151,4.084
			s1.674,1.353,2.718,1.353c1.054,0,1.948-0.431,2.685-1.292s1.105-2.176,1.105-3.943c0-1.945-0.375-3.374-1.125-4.284
			c-0.75-0.911-1.674-1.366-2.771-1.366c-1.071,0-1.966,0.438-2.685,1.313S117.429,49.653,117.429,51.535z"/>
		<path style="fill:#F69320;" d="M138.249,59.811l2.344,0.348c0.098,0.723,0.37,1.25,0.816,1.58c0.598,0.446,1.415,0.669,2.45,0.669
			c1.116,0,1.978-0.223,2.584-0.669c0.607-0.446,1.018-1.071,1.232-1.875c0.125-0.49,0.183-1.521,0.174-3.093
			c-1.054,1.241-2.365,1.861-3.937,1.861c-1.955,0-3.468-0.705-4.539-2.115s-1.606-3.102-1.606-5.075
			c0-1.356,0.245-2.608,0.736-3.755c0.491-1.147,1.203-2.033,2.136-2.658c0.933-0.624,2.028-0.938,3.287-0.938
			c1.678,0,3.062,0.679,4.15,2.035v-1.713h2.223v12.291c0,2.213-0.226,3.782-0.677,4.706c-0.45,0.924-1.164,1.653-2.142,2.189
			c-0.978,0.535-2.181,0.803-3.608,0.803c-1.696,0-3.066-0.382-4.11-1.145C138.718,62.494,138.214,61.346,138.249,59.811z
			 M140.244,51.268c0,1.866,0.37,3.227,1.111,4.084c0.741,0.856,1.669,1.285,2.785,1.285c1.106,0,2.035-0.426,2.785-1.278
			s1.125-2.189,1.125-4.01c0-1.741-0.387-3.053-1.158-3.937c-0.772-0.884-1.703-1.326-2.792-1.326c-1.071,0-1.981,0.436-2.731,1.306
			S140.244,49.554,140.244,51.268z"/>
		<path style="fill:#F69320;" d="M163.675,54.053l2.491,0.308c-0.394,1.455-1.121,2.584-2.183,3.388
			c-1.063,0.804-2.419,1.205-4.07,1.205c-2.08,0-3.729-0.641-4.947-1.921c-1.219-1.281-1.828-3.077-1.828-5.39
			c0-2.392,0.616-4.249,1.848-5.569c1.232-1.321,2.83-1.982,4.794-1.982c1.901,0,3.454,0.647,4.659,1.941
			c1.205,1.295,1.808,3.116,1.808,5.463c0,0.144-0.005,0.357-0.014,0.643h-10.604c0.09,1.563,0.531,2.759,1.326,3.589
			c0.794,0.83,1.785,1.245,2.972,1.245c0.884,0,1.639-0.232,2.264-0.696C162.813,55.812,163.31,55.071,163.675,54.053z
			 M155.763,50.157h7.939c-0.107-1.195-0.411-2.093-0.91-2.691c-0.769-0.928-1.764-1.392-2.986-1.392
			c-1.106,0-2.037,0.37-2.792,1.111C156.26,47.925,155.843,48.916,155.763,50.157z"/>
		<path style="fill:#F69320;" d="M174.453,56.477l0.349,2.129c-0.679,0.143-1.286,0.214-1.821,0.214
			c-0.875,0-1.553-0.139-2.035-0.415s-0.821-0.641-1.018-1.091c-0.196-0.451-0.295-1.399-0.295-2.846v-8.181h-1.767v-1.874h1.767
			v-3.521l2.397-1.446v4.968h2.423v1.874h-2.423v8.314c0,0.688,0.042,1.13,0.127,1.325c0.085,0.197,0.223,0.354,0.415,0.469
			c0.191,0.116,0.466,0.175,0.823,0.175C173.663,56.571,174.016,56.539,174.453,56.477z"/>
		<path style="fill:#F69320;" d="M193.707,56.878c-0.893,0.759-1.752,1.294-2.577,1.606c-0.826,0.313-1.712,0.469-2.658,0.469
			c-1.562,0-2.763-0.382-3.602-1.145c-0.839-0.764-1.258-1.738-1.258-2.926c0-0.696,0.158-1.332,0.475-1.908
			c0.317-0.575,0.732-1.037,1.245-1.386c0.514-0.348,1.092-0.611,1.734-0.79c0.473-0.124,1.187-0.245,2.143-0.361
			c1.945-0.231,3.378-0.509,4.298-0.83c0.009-0.33,0.013-0.54,0.013-0.629c0-0.982-0.228-1.674-0.683-2.075
			c-0.616-0.545-1.531-0.817-2.745-0.817c-1.133,0-1.97,0.199-2.51,0.596c-0.54,0.397-0.939,1.101-1.198,2.109l-2.356-0.321
			c0.214-1.009,0.566-1.823,1.058-2.443c0.49-0.621,1.2-1.099,2.129-1.433c0.928-0.335,2.004-0.503,3.227-0.503
			c1.214,0,2.2,0.144,2.959,0.429c0.759,0.286,1.316,0.646,1.674,1.078c0.356,0.433,0.606,0.979,0.749,1.64
			c0.081,0.411,0.121,1.152,0.121,2.223v3.214c0,2.24,0.051,3.657,0.154,4.251c0.103,0.594,0.306,1.163,0.608,1.707h-2.517
			C193.939,58.132,193.778,57.547,193.707,56.878z M193.507,51.495c-0.875,0.357-2.188,0.661-3.937,0.911
			c-0.991,0.143-1.692,0.303-2.103,0.481s-0.728,0.44-0.95,0.783c-0.224,0.344-0.335,0.726-0.335,1.146
			c0,0.643,0.243,1.178,0.729,1.606s1.198,0.643,2.136,0.643c0.929,0,1.754-0.203,2.477-0.609c0.724-0.406,1.255-0.962,1.594-1.667
			c0.259-0.544,0.389-1.348,0.389-2.41V51.495z"/>
		<path style="fill:#F69320;" d="M199.679,58.632V44.413h2.169v2.021c1.044-1.563,2.553-2.344,4.525-2.344
			c0.857,0,1.645,0.154,2.363,0.462c0.719,0.309,1.256,0.712,1.613,1.212s0.607,1.094,0.75,1.781
			c0.089,0.446,0.134,1.228,0.134,2.343v8.743h-2.41v-8.649c0-0.981-0.094-1.716-0.281-2.202s-0.52-0.875-0.997-1.165
			s-1.038-0.436-1.681-0.436c-1.026,0-1.912,0.326-2.657,0.978c-0.746,0.651-1.118,1.888-1.118,3.709v7.766H199.679z"/>
		<path style="fill:#F69320;" d="M222.561,41.776v-2.771h2.409v2.771H222.561z M222.561,58.632V44.413h2.409v14.219H222.561z"/>
		<path style="fill:#F69320;" d="M228.639,58.632V44.413h2.155v1.994c0.446-0.696,1.04-1.256,1.781-1.68
			c0.74-0.424,1.584-0.637,2.53-0.637c1.053,0,1.917,0.22,2.591,0.656c0.674,0.438,1.149,1.049,1.426,1.835
			c1.125-1.66,2.589-2.491,4.392-2.491c1.41,0,2.495,0.391,3.254,1.172s1.138,1.984,1.138,3.608v9.761h-2.396v-8.957
			c0-0.964-0.078-1.658-0.234-2.082s-0.439-0.766-0.85-1.024c-0.411-0.259-0.894-0.389-1.446-0.389c-1,0-1.83,0.333-2.49,0.998
			c-0.661,0.665-0.991,1.729-0.991,3.193v8.261h-2.41v-9.238c0-1.071-0.196-1.875-0.589-2.41s-1.035-0.804-1.928-0.804
			c-0.679,0-1.306,0.179-1.882,0.536c-0.575,0.356-0.993,0.879-1.252,1.566s-0.388,1.678-0.388,2.973v7.377H228.639z"/>
		<path style="fill:#F69320;" d="M251.48,58.632V44.413h2.155v1.994c0.446-0.696,1.04-1.256,1.781-1.68
			c0.74-0.424,1.584-0.637,2.53-0.637c1.053,0,1.917,0.22,2.591,0.656c0.674,0.438,1.149,1.049,1.426,1.835
			c1.125-1.66,2.589-2.491,4.392-2.491c1.41,0,2.495,0.391,3.254,1.172s1.138,1.984,1.138,3.608v9.761h-2.396v-8.957
			c0-0.964-0.078-1.658-0.234-2.082s-0.439-0.766-0.85-1.024c-0.411-0.259-0.894-0.389-1.446-0.389c-1,0-1.83,0.333-2.49,0.998
			c-0.661,0.665-0.991,1.729-0.991,3.193v8.261h-2.41v-9.238c0-1.071-0.196-1.875-0.589-2.41s-1.035-0.804-1.928-0.804
			c-0.679,0-1.306,0.179-1.882,0.536c-0.575,0.356-0.993,0.879-1.252,1.566s-0.388,1.678-0.388,2.973v7.377H251.48z"/>
		<path style="fill:#F69320;" d="M284.056,54.053l2.491,0.308c-0.394,1.455-1.121,2.584-2.183,3.388
			c-1.063,0.804-2.419,1.205-4.07,1.205c-2.08,0-3.729-0.641-4.947-1.921c-1.219-1.281-1.828-3.077-1.828-5.39
			c0-2.392,0.616-4.249,1.848-5.569c1.232-1.321,2.83-1.982,4.794-1.982c1.901,0,3.454,0.647,4.659,1.941
			c1.205,1.295,1.808,3.116,1.808,5.463c0,0.144-0.005,0.357-0.014,0.643h-10.604c0.09,1.563,0.531,2.759,1.326,3.589
			c0.794,0.83,1.785,1.245,2.972,1.245c0.884,0,1.639-0.232,2.264-0.696C283.194,55.812,283.69,55.071,284.056,54.053z
			 M276.144,50.157h7.939c-0.107-1.195-0.411-2.093-0.91-2.691c-0.769-0.928-1.764-1.392-2.986-1.392
			c-1.106,0-2.037,0.37-2.792,1.111C276.641,47.925,276.224,48.916,276.144,50.157z"/>
		<path style="fill:#F69320;" d="M298.798,58.632v-1.794c-0.901,1.41-2.227,2.115-3.977,2.115c-1.133,0-2.176-0.313-3.126-0.938
			c-0.95-0.624-1.688-1.497-2.209-2.617c-0.522-1.12-0.783-2.408-0.783-3.863c0-1.419,0.236-2.706,0.709-3.862
			c0.474-1.156,1.183-2.042,2.129-2.658c0.946-0.615,2.004-0.924,3.174-0.924c0.856,0,1.62,0.182,2.289,0.543
			c0.67,0.361,1.214,0.832,1.634,1.412v-7.042h2.396v19.628H298.798z M291.18,51.535c0,1.821,0.384,3.183,1.151,4.084
			s1.674,1.353,2.718,1.353c1.054,0,1.948-0.431,2.685-1.292s1.105-2.176,1.105-3.943c0-1.945-0.375-3.374-1.125-4.284
			c-0.75-0.911-1.674-1.366-2.771-1.366c-1.071,0-1.966,0.438-2.685,1.313S291.18,49.653,291.18,51.535z"/>
		<path style="fill:#F69320;" d="M304.837,41.776v-2.771h2.409v2.771H304.837z M304.837,58.632V44.413h2.409v14.219H304.837z"/>
		<path style="fill:#F69320;" d="M320.193,56.878c-0.893,0.759-1.752,1.294-2.577,1.606c-0.826,0.313-1.712,0.469-2.658,0.469
			c-1.562,0-2.763-0.382-3.602-1.145c-0.839-0.764-1.258-1.738-1.258-2.926c0-0.696,0.158-1.332,0.475-1.908
			c0.317-0.575,0.732-1.037,1.245-1.386c0.514-0.348,1.092-0.611,1.734-0.79c0.473-0.124,1.187-0.245,2.143-0.361
			c1.945-0.231,3.378-0.509,4.298-0.83c0.009-0.33,0.013-0.54,0.013-0.629c0-0.982-0.228-1.674-0.683-2.075
			c-0.616-0.545-1.531-0.817-2.745-0.817c-1.133,0-1.97,0.199-2.51,0.596c-0.54,0.397-0.939,1.101-1.198,2.109l-2.356-0.321
			c0.214-1.009,0.566-1.823,1.058-2.443c0.49-0.621,1.2-1.099,2.129-1.433c0.928-0.335,2.004-0.503,3.227-0.503
			c1.214,0,2.2,0.144,2.959,0.429c0.759,0.286,1.316,0.646,1.674,1.078c0.356,0.433,0.606,0.979,0.749,1.64
			c0.081,0.411,0.121,1.152,0.121,2.223v3.214c0,2.24,0.051,3.657,0.154,4.251c0.103,0.594,0.306,1.163,0.608,1.707h-2.517
			C320.426,58.132,320.265,57.547,320.193,56.878z M319.993,51.495c-0.875,0.357-2.188,0.661-3.937,0.911
			c-0.991,0.143-1.692,0.303-2.103,0.481s-0.728,0.44-0.95,0.783c-0.224,0.344-0.335,0.726-0.335,1.146
			c0,0.643,0.243,1.178,0.729,1.606s1.198,0.643,2.136,0.643c0.929,0,1.754-0.203,2.477-0.609c0.724-0.406,1.255-0.962,1.594-1.667
			c0.259-0.544,0.389-1.348,0.389-2.41V51.495z"/>
		<path style="fill:#F69320;" d="M331.427,56.477l0.349,2.129c-0.679,0.143-1.286,0.214-1.821,0.214
			c-0.875,0-1.553-0.139-2.035-0.415s-0.821-0.641-1.018-1.091c-0.196-0.451-0.295-1.399-0.295-2.846v-8.181h-1.767v-1.874h1.767
			v-3.521l2.397-1.446v4.968h2.423v1.874h-2.423v8.314c0,0.688,0.042,1.13,0.127,1.325c0.085,0.197,0.223,0.354,0.415,0.469
			c0.191,0.116,0.466,0.175,0.823,0.175C330.637,56.571,330.989,56.539,331.427,56.477z"/>
		<path style="fill:#F69320;" d="M343.518,54.053l2.491,0.308c-0.394,1.455-1.121,2.584-2.183,3.388
			c-1.063,0.804-2.419,1.205-4.07,1.205c-2.08,0-3.729-0.641-4.947-1.921c-1.219-1.281-1.828-3.077-1.828-5.39
			c0-2.392,0.616-4.249,1.848-5.569c1.232-1.321,2.83-1.982,4.794-1.982c1.901,0,3.454,0.647,4.659,1.941
			c1.205,1.295,1.808,3.116,1.808,5.463c0,0.144-0.005,0.357-0.014,0.643h-10.604c0.09,1.563,0.531,2.759,1.326,3.589
			c0.794,0.83,1.785,1.245,2.972,1.245c0.884,0,1.639-0.232,2.264-0.696C342.656,55.812,343.152,55.071,343.518,54.053z
			 M335.605,50.157h7.939c-0.107-1.195-0.411-2.093-0.91-2.691c-0.769-0.928-1.764-1.392-2.986-1.392
			c-1.106,0-2.037,0.37-2.792,1.111C336.103,47.925,335.686,48.916,335.605,50.157z"/>
		<path style="fill:#F69320;" d="M357.228,58.632V46.287h-2.129v-1.874h2.129V42.9c0-0.955,0.085-1.664,0.255-2.129
			c0.232-0.624,0.641-1.131,1.225-1.52c0.585-0.388,1.404-0.582,2.457-0.582c0.679,0,1.429,0.08,2.25,0.241l-0.362,2.102
			c-0.5-0.089-0.973-0.134-1.419-0.134c-0.731,0-1.25,0.156-1.553,0.469c-0.304,0.313-0.455,0.896-0.455,1.754v1.313h2.771v1.874
			h-2.771v12.345H357.228z"/>
		<path style="fill:#F69320;" d="M364.243,58.632V44.413h2.17v2.155c0.553-1.009,1.064-1.674,1.532-1.995
			c0.469-0.321,0.984-0.482,1.547-0.482c0.813,0,1.638,0.26,2.477,0.777l-0.83,2.235c-0.589-0.348-1.178-0.521-1.767-0.521
			c-0.527,0-1,0.158-1.42,0.475c-0.419,0.317-0.719,0.757-0.896,1.319c-0.269,0.856-0.402,1.794-0.402,2.812v7.444H364.243z"/>
		<path style="fill:#F69320;" d="M383.136,54.053l2.491,0.308c-0.394,1.455-1.121,2.584-2.183,3.388
			c-1.063,0.804-2.419,1.205-4.07,1.205c-2.08,0-3.729-0.641-4.947-1.921c-1.219-1.281-1.828-3.077-1.828-5.39
			c0-2.392,0.616-4.249,1.848-5.569c1.232-1.321,2.83-1.982,4.794-1.982c1.901,0,3.454,0.647,4.659,1.941
			c1.205,1.295,1.808,3.116,1.808,5.463c0,0.144-0.005,0.357-0.014,0.643h-10.604c0.09,1.563,0.531,2.759,1.326,3.589
			c0.794,0.83,1.785,1.245,2.972,1.245c0.884,0,1.639-0.232,2.264-0.696C382.274,55.812,382.771,55.071,383.136,54.053z
			 M375.224,50.157h7.939c-0.107-1.195-0.411-2.093-0.91-2.691c-0.769-0.928-1.764-1.392-2.986-1.392
			c-1.106,0-2.037,0.37-2.792,1.111C375.721,47.925,375.304,48.916,375.224,50.157z"/>
		<path style="fill:#F69320;" d="M398.386,54.053l2.491,0.308c-0.394,1.455-1.121,2.584-2.183,3.388
			c-1.063,0.804-2.419,1.205-4.07,1.205c-2.08,0-3.729-0.641-4.947-1.921c-1.219-1.281-1.828-3.077-1.828-5.39
			c0-2.392,0.616-4.249,1.848-5.569c1.232-1.321,2.83-1.982,4.794-1.982c1.901,0,3.454,0.647,4.659,1.941
			c1.205,1.295,1.808,3.116,1.808,5.463c0,0.144-0.005,0.357-0.014,0.643h-10.604c0.09,1.563,0.531,2.759,1.326,3.589
			c0.794,0.83,1.785,1.245,2.972,1.245c0.884,0,1.639-0.232,2.264-0.696C397.524,55.812,398.021,55.071,398.386,54.053z
			 M390.474,50.157h7.939c-0.107-1.195-0.411-2.093-0.91-2.691c-0.769-0.928-1.764-1.392-2.986-1.392
			c-1.106,0-2.037,0.37-2.792,1.111C390.971,47.925,390.554,48.916,390.474,50.157z"/>
		<path style="fill:#F69320;" d="M411.521,64.081V44.413h2.195v1.848c0.518-0.724,1.103-1.266,1.754-1.627
			c0.652-0.361,1.442-0.543,2.37-0.543c1.214,0,2.285,0.313,3.214,0.938c0.928,0.625,1.629,1.507,2.102,2.645
			c0.474,1.138,0.71,2.386,0.71,3.742c0,1.455-0.261,2.765-0.783,3.93s-1.281,2.058-2.276,2.678s-2.042,0.931-3.14,0.931
			c-0.804,0-1.524-0.17-2.162-0.509c-0.639-0.339-1.163-0.768-1.573-1.285v6.922H411.521z M413.703,51.603
			c0,1.83,0.37,3.183,1.111,4.057c0.74,0.875,1.638,1.313,2.69,1.313c1.071,0,1.988-0.453,2.752-1.359
			c0.763-0.905,1.145-2.31,1.145-4.211c0-1.812-0.373-3.168-1.118-4.07c-0.745-0.901-1.636-1.352-2.671-1.352
			c-1.026,0-1.935,0.479-2.725,1.439C414.098,48.378,413.703,49.773,413.703,51.603z"/>
		<path style="fill:#F69320;" d="M426.744,58.632V44.413h2.17v2.155c0.553-1.009,1.064-1.674,1.532-1.995
			c0.469-0.321,0.984-0.482,1.547-0.482c0.813,0,1.638,0.26,2.477,0.777l-0.83,2.235c-0.589-0.348-1.178-0.521-1.767-0.521
			c-0.527,0-1,0.158-1.42,0.475c-0.419,0.317-0.719,0.757-0.896,1.319c-0.269,0.856-0.402,1.794-0.402,2.812v7.444H426.744z"/>
		<path style="fill:#F69320;" d="M435.916,41.776v-2.771h2.409v2.771H435.916z M435.916,58.632V44.413h2.409v14.219H435.916z"/>
		<path style="fill:#F69320;" d="M451.272,53.424l2.37,0.308c-0.259,1.634-0.922,2.912-1.988,3.836s-2.377,1.386-3.93,1.386
			c-1.946,0-3.511-0.636-4.693-1.908c-1.183-1.271-1.773-3.095-1.773-5.469c0-1.535,0.254-2.879,0.763-4.03s1.283-2.016,2.323-2.591
			c1.04-0.576,2.171-0.864,3.395-0.864c1.544,0,2.807,0.391,3.789,1.172c0.981,0.781,1.61,1.891,1.888,3.327l-2.343,0.361
			c-0.224-0.955-0.618-1.673-1.186-2.155c-0.566-0.482-1.252-0.723-2.055-0.723c-1.214,0-2.201,0.435-2.959,1.305
			c-0.759,0.871-1.139,2.248-1.139,4.131c0,1.91,0.366,3.299,1.099,4.164c0.731,0.866,1.687,1.299,2.865,1.299
			c0.945,0,1.735-0.29,2.369-0.87S451.104,54.629,451.272,53.424z"/>
		<path style="fill:#F69320;" d="M465.438,54.053l2.491,0.308c-0.394,1.455-1.121,2.584-2.183,3.388
			c-1.063,0.804-2.419,1.205-4.07,1.205c-2.08,0-3.729-0.641-4.947-1.921c-1.219-1.281-1.828-3.077-1.828-5.39
			c0-2.392,0.616-4.249,1.848-5.569c1.232-1.321,2.83-1.982,4.794-1.982c1.901,0,3.454,0.647,4.659,1.941
			c1.205,1.295,1.808,3.116,1.808,5.463c0,0.144-0.005,0.357-0.014,0.643h-10.604c0.09,1.563,0.531,2.759,1.326,3.589
			c0.794,0.83,1.785,1.245,2.972,1.245c0.884,0,1.639-0.232,2.264-0.696C464.577,55.812,465.073,55.071,465.438,54.053z
			 M457.526,50.157h7.939c-0.107-1.195-0.411-2.093-0.91-2.691c-0.769-0.928-1.764-1.392-2.986-1.392
			c-1.106,0-2.037,0.37-2.792,1.111C458.023,47.925,457.606,48.916,457.526,50.157z"/>
		<path style="fill:#F69320;" d="M487.638,64.081v-6.962c-0.375,0.526-0.899,0.964-1.573,1.312
			c-0.674,0.349-1.391,0.522-2.149,0.522c-1.687,0-3.14-0.674-4.357-2.021c-1.219-1.348-1.828-3.195-1.828-5.543
			c0-1.429,0.248-2.709,0.743-3.843s1.214-1.993,2.155-2.577c0.942-0.585,1.976-0.878,3.1-0.878c1.759,0,3.143,0.741,4.151,2.223
			v-1.9h2.169v19.668H487.638z M480.207,51.483c0,1.829,0.383,3.202,1.151,4.117c0.768,0.915,1.687,1.372,2.758,1.372
			c1.026,0,1.91-0.436,2.651-1.306c0.74-0.87,1.111-2.193,1.111-3.97c0-1.893-0.391-3.315-1.172-4.271
			c-0.781-0.955-1.698-1.433-2.751-1.433c-1.045,0-1.931,0.444-2.658,1.333C480.57,48.213,480.207,49.599,480.207,51.483z"/>
		<path style="fill:#F69320;" d="M503.142,58.632v-2.089c-1.106,1.606-2.61,2.41-4.512,2.41c-0.839,0-1.622-0.16-2.35-0.482
			c-0.728-0.321-1.268-0.725-1.62-1.211s-0.601-1.083-0.743-1.788c-0.099-0.473-0.147-1.223-0.147-2.249v-8.81h2.41v7.886
			c0,1.259,0.049,2.106,0.147,2.544c0.151,0.634,0.473,1.131,0.964,1.493c0.49,0.361,1.098,0.542,1.821,0.542
			c0.723,0,1.4-0.186,2.035-0.556c0.633-0.37,1.082-0.875,1.345-1.513c0.264-0.639,0.396-1.564,0.396-2.778v-7.618h2.41v14.219
			H503.142z"/>
		<path style="fill:#F69320;" d="M508.177,51.523c0-2.633,0.732-4.584,2.196-5.852c1.223-1.053,2.713-1.58,4.472-1.58
			c1.955,0,3.553,0.641,4.793,1.922c1.241,1.281,1.861,3.051,1.861,5.309c0,1.83-0.274,3.27-0.823,4.318s-1.348,1.863-2.396,2.443
			s-2.194,0.87-3.435,0.87c-1.99,0-3.6-0.638-4.827-1.915C508.791,55.762,508.177,53.924,508.177,51.523z M510.654,51.523
			c0,1.82,0.396,3.185,1.191,4.09c0.794,0.906,1.794,1.359,2.999,1.359c1.196,0,2.191-0.455,2.986-1.366
			c0.794-0.91,1.191-2.298,1.191-4.164c0-1.758-0.399-3.09-1.198-3.996s-1.792-1.359-2.979-1.359c-1.205,0-2.205,0.451-2.999,1.353
			C511.051,48.34,510.654,49.701,510.654,51.523z"/>
		<path style="fill:#F69320;" d="M529.586,56.477l0.349,2.129c-0.679,0.143-1.286,0.214-1.821,0.214
			c-0.875,0-1.553-0.139-2.035-0.415s-0.821-0.641-1.018-1.091c-0.196-0.451-0.295-1.399-0.295-2.846v-8.181h-1.767v-1.874h1.767
			v-3.521l2.397-1.446v4.968h2.423v1.874h-2.423v8.314c0,0.688,0.042,1.13,0.127,1.325c0.085,0.197,0.223,0.354,0.415,0.469
			c0.191,0.116,0.466,0.175,0.823,0.175C528.796,56.571,529.148,56.539,529.586,56.477z"/>
		<path style="fill:#F69320;" d="M541.676,54.053l2.491,0.308c-0.394,1.455-1.121,2.584-2.183,3.388
			c-1.063,0.804-2.419,1.205-4.07,1.205c-2.08,0-3.729-0.641-4.947-1.921c-1.219-1.281-1.828-3.077-1.828-5.39
			c0-2.392,0.616-4.249,1.848-5.569c1.232-1.321,2.83-1.982,4.794-1.982c1.901,0,3.454,0.647,4.659,1.941
			c1.205,1.295,1.808,3.116,1.808,5.463c0,0.144-0.005,0.357-0.014,0.643h-10.604c0.09,1.563,0.531,2.759,1.326,3.589
			c0.794,0.83,1.785,1.245,2.972,1.245c0.884,0,1.639-0.232,2.264-0.696C540.814,55.812,541.311,55.071,541.676,54.053z
			 M533.764,50.157h7.939c-0.107-1.195-0.411-2.093-0.91-2.691c-0.769-0.928-1.764-1.392-2.986-1.392
			c-1.106,0-2.037,0.37-2.792,1.111C534.261,47.925,533.844,48.916,533.764,50.157z"/>
		<path style="fill:#F69320;" d="M547.875,58.632v-2.745h2.745v2.745H547.875z"/>
	</g>
</g>
<path style="fill:#F69320;" d="M47.157,61.135v3.217c0,0.37-0.307,0.708-0.679,0.708H4.255c-0.371,0-0.616-0.338-0.616-0.708V4.261
	c0-0.371,0.245-0.622,0.616-0.622h31.986v10.165c0,0.973,0.741,1.77,1.714,1.77h9.202v7.195c0.582-0.044,1.047-0.067,1.588-0.067
	c0.649,0,1.323,0.033,1.905,0.096v-9.749L38.727,0H4.255C1.94,0,0,1.947,0,4.261v60.091c0,2.318,1.94,4.201,4.255,4.201H46.48
	c2.317,0,4.17-1.883,4.17-4.201v-3.245c-0.582,0.063-1.257,0.096-1.905,0.096C48.204,61.202,47.739,61.179,47.157,61.135z
	 M39.734,6.346l5.223,5.735h-5.223V6.346z"/>
<path style="fill:#F69320;" d="M39.756,18.775H9.805c-0.729,0-1.321,0.58-1.321,1.31c0,0.73,0.592,1.31,1.321,1.31h29.951
	c0.73,0,1.321-0.58,1.321-1.31C41.077,19.356,40.486,18.775,39.756,18.775z"/>
<path style="fill:#F69320;" d="M8.483,28.964c0,0.73,0.592,1.31,1.321,1.31h23.607c0.723-0.873,1.533-1.747,2.418-2.62H9.805
	C9.075,27.654,8.483,28.234,8.483,28.964z"/>
<path style="fill:#F69320;" d="M8.483,46.356c0,0.73,0.592,1.383,1.321,1.383h20.568c-0.267-0.873-0.474-1.747-0.62-2.765H9.805
	C9.075,44.974,8.483,45.627,8.483,46.356z"/>
<path style="fill:#F69320;" d="M8.483,37.551c0,0.73,0.592,1.31,1.321,1.31h19.94c0.143-0.873,0.349-1.747,0.613-2.62H9.805
	C9.075,36.241,8.483,36.821,8.483,37.551z"/>
<path style="fill:#F69320;" d="M48.757,24.852c-9.444,0-17.1,7.656-17.1,17.1s7.656,17.1,17.1,17.1s17.1-7.656,17.1-17.1
	S58.201,24.852,48.757,24.852z M49.777,51.588v2.555h-2.474v-2.555c-3.639-0.391-5.385-1.899-5.385-5.447V45.41h4.949v0.507
	c0,1.62,0.708,2.207,1.742,2.207c1.061,0,1.681-0.81,1.681-1.816c0-3.855-8.127-1.955-8.127-8.826c0-3.464,1.648-5.503,5.141-6.061
	v-1.584h2.474v1.584c3.784,0.363,5.349,2.2,5.349,5.984h-4.913V36.98c0-1.117-0.449-2.095-1.454-2.095
	c-1.117,0-1.607,0.866-1.607,1.732c0,3.966,8.477,1.788,8.477,8.994C55.629,49.381,53.561,51.197,49.777,51.588z"/>
</svg>
