
<svg version="1.1" id="Layer_1" xmlns="http://www.w3.org/2000/svg" xmlns:xlink="http://www.w3.org/1999/xlink" x="0px" y="0px"
	 width="71.4px" height="29.5px" viewBox="0 0 71.4 29.5" enable-background="new 0 0 71.4 29.5" xml:space="preserve">
<g>
	<g>
		<path fill="#FFFFFF" d="M71.3,12.8l-0.1-0.2c-0.7-1.4-2.1-2.6-4-3.6c-3-1.6-6.7-2.2-8.7-2L43.4,8.8L19.1,2C18.9,2,18.7,2,18.5,2
			c-0.6,0.1-1.1,0.4-1.3,1c-0.3,0.8-0.1,1.6,0.6,2.1l8.7,5.7l-12.2,1.4c-2-2.6-4-5.1-5.7-7.5C5.9,1.1,3.7-0.4,2,0.1
			C0.2,0.7-0.1,3,0,3.9l2.8,15.8c0.1,0.6,0.3,1,0.6,1.3c0.6,0.5,1.4,0.4,2.2,0.3l3-0.4L24,21.2l-5.1,5.4c-0.6,0.6-0.6,1.5-0.1,2.2
			c0.1,0.2,0.3,0.3,0.5,0.5c0.3,0.2,0.6,0.2,1,0.2c0.2,0,0.4-0.1,0.6-0.2l12.5-7l6.9-2.8l25.7-3c0.4,0,0.8-0.1,1.1-0.1
			c0.9-0.1,1.7-0.1,2.4-0.4C70.9,15.6,71.5,14.5,71.3,12.8z"/>
	</g>
</g>
</svg>
