<?xml version="1.0" encoding="iso-8859-1"?>
<!-- Generator: Adobe Illustrator 18.1.1, SVG Export Plug-In . SVG Version: 6.00 Build 0)  -->
<svg version="1.1" id="Layer_1" xmlns="http://www.w3.org/2000/svg" xmlns:xlink="http://www.w3.org/1999/xlink" x="0px" y="0px"
	 viewBox="0 0 38.428 40" style="enable-background:new 0 0 38.428 40;" xml:space="preserve">
<path style="fill:#F6921E;" d="M27.516,35.672v1.877c0,0.216-0.179,0.413-0.396,0.413H2.483c-0.217,0-0.36-0.197-0.36-0.413V2.486
	c0-0.216,0.143-0.363,0.36-0.363h18.664v5.931c0,0.567,0.432,1.033,1,1.033h5.37v4.198c0.34-0.026,0.611-0.039,0.926-0.039
	c0.379,0,0.772,0.019,1.112,0.056V7.614L22.597,0H2.483C1.132,0,0,1.136,0,2.486v35.063C0,38.901,1.132,40,2.483,40h24.638
	c1.352,0,2.433-1.099,2.433-2.451v-1.893c-0.34,0.037-0.733,0.056-1.112,0.056C28.127,35.711,27.856,35.698,27.516,35.672z
	 M23.185,3.703l3.048,3.346h-3.048V3.703z"/>
<path style="fill:#F6921E;" d="M23.197,10.955H5.721c-0.426,0-0.771,0.339-0.771,0.764c0,0.426,0.345,0.764,0.771,0.764h17.477
	c0.426,0,0.771-0.339,0.771-0.764S23.623,10.955,23.197,10.955z"/>
<path style="fill:#F6921E;" d="M4.95,16.9c0,0.426,0.345,0.764,0.771,0.764h13.775c0.422-0.51,0.894-1.019,1.411-1.529H5.721
	C5.295,16.136,4.95,16.474,4.95,16.9z"/>
<path style="fill:#F6921E;" d="M4.95,27.049c0,0.426,0.345,0.807,0.771,0.807h12.002c-0.156-0.51-0.277-1.019-0.362-1.614H5.721
	C5.295,26.242,4.95,26.623,4.95,27.049z"/>
<path style="fill:#F6921E;" d="M4.95,21.911c0,0.426,0.345,0.764,0.771,0.764h11.635c0.083-0.51,0.203-1.019,0.358-1.529H5.721
	C5.295,21.146,4.95,21.485,4.95,21.911z"/>
<path style="fill:#F6921E;" d="M28.45,14.501c-5.511,0-9.978,4.467-9.978,9.978s4.467,9.978,9.978,9.978s9.978-4.467,9.978-9.978
	S33.96,14.501,28.45,14.501z M29.045,30.101v1.491h-1.444v-1.491c-2.123-0.228-3.142-1.108-3.142-3.178v-0.426h2.887v0.296
	c0,0.945,0.413,1.288,1.016,1.288c0.619,0,0.981-0.473,0.981-1.059c0-2.249-4.742-1.141-4.742-5.15c0-2.021,0.961-3.211,3-3.537
	V17.41h1.444v0.924c2.208,0.212,3.121,1.284,3.121,3.492h-2.866v-0.248c0-0.652-0.262-1.222-0.848-1.222
	c-0.652,0-0.938,0.505-0.938,1.01c0,2.314,4.946,1.043,4.946,5.248C32.459,28.814,31.253,29.873,29.045,30.101z"/>
</svg>
