
<svg version="1.1" id="Layer_1" xmlns="http://www.w3.org/2000/svg" xmlns:xlink="http://www.w3.org/1999/xlink" x="0px" y="0px"
	 width="71.4px" height="40px" viewBox="0 0 71.4 40" enable-background="new 0 0 71.4 40" xml:space="preserve">
<path fill="#FFFFFF" d="M5.6,27.8h41.8v5.8H17.6H17c-0.9-2.5-3.3-4.3-6.1-4.3c-2.8,0-5.1,1.7-6.1,4.2c-1.2-0.3-2-1.4-2-2.7v-0.2
	C2.8,29.1,4,27.8,5.6,27.8z M15.5,35.2c0,2.7-2.2,4.8-4.8,4.8c-2.7,0-4.8-2.2-4.8-4.8c0-2.7,2.2-4.8,4.8-4.8
	C13.3,30.3,15.5,32.5,15.5,35.2z M14,35.2c0-1.8-1.5-3.4-3.4-3.4s-3.4,1.5-3.4,3.4s1.5,3.4,3.4,3.4C12.5,38.5,14,37,14,35.2z
	 M64.3,35.2c0,2.7-2.2,4.8-4.8,4.8s-4.8-2.2-4.8-4.8c0-2.7,2.2-4.8,4.8-4.8S64.3,32.5,64.3,35.2z M62.8,35.2c0-1.8-1.5-3.4-3.4-3.4
	s-3.4,1.5-3.4,3.4s1.5,3.4,3.4,3.4S62.8,37,62.8,35.2z M71.4,21.3v10.9c0,0.5-0.4,0.9-0.9,0.9h-4.8c-1-2.2-3.3-3.8-5.9-3.8
	c-2.6,0-4.9,1.6-5.9,3.8h-3.3c-0.5,0-0.9-0.4-0.9-0.9V10.3c0-0.5,0.4-0.9,0.9-0.9h12.2c0.5,0,1.3,0.2,1.8,0.9L71.4,21.3z M67.1,18.9
	L62.9,12c-0.3-0.6-0.7-0.9-2.1-0.9h-7.5c-0.5,0-0.9,0.4-0.9,0.9v6.9c0,0.5,0.4,0.9,0.9,0.9h12.9C66.6,19.8,67.1,19.4,67.1,18.9z
	 M70.7,29.4c0-0.5-0.4-0.9-0.9-0.9c-0.5,0-0.9,0.4-0.9,0.9V31c0,0.5,0.4,0.9,0.9,0.9c0.5,0,0.9-0.4,0.9-0.9V29.4z M0,26.2h47.4V0H0
	V26.2z"/>
</svg>
