
<svg version="1.1" id="Layer_1" xmlns="http://www.w3.org/2000/svg" xmlns:xlink="http://www.w3.org/1999/xlink" x="0px" y="0px"
	 viewBox="0 0 161 161" style="enable-background:new 0 0 161 161;" xml:space="preserve">
<rect x="80.5" y="80.5" style="fill:none;" width="80" height="80"/>
<g>
	<g>
		<path d="M150.468,118.849l-0.059-0.156c-0.604-1.163-1.776-2.22-3.386-3.06c-2.558-1.335-5.661-1.85-7.28-1.659l-12.773,1.516
			l-20.394-5.68c-0.179-0.049-0.361-0.064-0.546-0.042c-0.485,0.061-0.91,0.374-1.112,0.818c-0.287,0.639-0.07,1.379,0.511,1.754
			l7.356,4.833l-10.264,1.217c-1.713-2.21-3.329-4.33-4.805-6.298c-2.287-3.053-4.143-4.349-5.567-3.901
			c-1.483,0.466-1.717,2.463-1.635,3.152l2.359,13.256c0.058,0.486,0.233,0.839,0.539,1.075c0.51,0.39,1.173,0.308,1.869,0.213
			l2.51-0.309l12.852,0.372l-4.296,4.576c-0.475,0.508-0.51,1.275-0.083,1.826c0.121,0.157,0.28,0.289,0.458,0.382
			c0.253,0.132,0.535,0.183,0.819,0.152c0.185-0.021,0.353-0.077,0.517-0.169l10.52-5.855l5.781-2.327l21.586-2.562
			c0.331-0.038,0.647-0.067,0.967-0.096c0.732-0.064,1.423-0.125,1.993-0.307C150.127,121.188,150.64,120.318,150.468,118.849z"/>
	</g>
</g>
<rect x="80.5" y="0.5" style="fill:none;" width="80" height="80"/>
<g>
	<g>
		<path style="fill:#FFFFFF;" d="M150.468,38.849l-0.059-0.156c-0.604-1.163-1.776-2.22-3.386-3.06
			c-2.558-1.335-5.661-1.85-7.28-1.659l-12.773,1.516l-20.394-5.68c-0.179-0.049-0.361-0.064-0.546-0.042
			c-0.485,0.061-0.91,0.374-1.112,0.818c-0.287,0.639-0.07,1.379,0.511,1.754l7.356,4.833l-10.264,1.217
			c-1.713-2.21-3.329-4.33-4.805-6.298c-2.287-3.053-4.143-4.349-5.567-3.901c-1.483,0.466-1.717,2.463-1.635,3.152l2.359,13.256
			c0.058,0.486,0.233,0.839,0.539,1.075c0.51,0.39,1.173,0.308,1.869,0.213l2.51-0.309l12.852,0.372l-4.296,4.576
			c-0.475,0.508-0.51,1.275-0.083,1.826c0.121,0.157,0.28,0.289,0.458,0.382c0.253,0.132,0.535,0.183,0.819,0.152
			c0.185-0.021,0.353-0.077,0.517-0.169l10.52-5.855l5.781-2.327l21.586-2.562c0.331-0.038,0.647-0.067,0.967-0.096
			c0.732-0.064,1.423-0.125,1.993-0.307C150.127,41.188,150.64,40.318,150.468,38.849z"/>
	</g>
</g>
<rect x="0.5" y="0.5" style="fill:none;" width="80" height="80"/>
<path style="fill:#FFFFFF;" d="M17.91,46.359h31.37v4.339H26.906h-0.449c-0.681-1.869-2.475-3.209-4.577-3.209
	c-2.071,0-3.843,1.3-4.546,3.126c-0.867-0.25-1.501-1.047-1.501-1.995v-0.185C15.833,47.289,16.763,46.359,17.91,46.359z
	 M25.343,51.876c0,1.998-1.626,3.624-3.625,3.624c-1.998,0-3.624-1.626-3.624-3.624s1.626-3.625,3.624-3.625
	C23.718,48.251,25.343,49.878,25.343,51.876z M24.235,51.876c0-1.387-1.129-2.516-2.516-2.516s-2.515,1.129-2.515,2.516
	c0,1.387,1.129,2.515,2.515,2.515C23.107,54.392,24.235,53.263,24.235,51.876z M61.976,51.876c0,1.998-1.626,3.624-3.625,3.624
	c-1.998,0-3.624-1.626-3.624-3.624s1.626-3.625,3.624-3.625C60.35,48.251,61.976,49.878,61.976,51.876z M60.868,51.876
	c0-1.387-1.129-2.516-2.516-2.516c-1.387,0-2.515,1.129-2.515,2.516c0,1.387,1.129,2.515,2.515,2.515
	C59.739,54.391,60.868,53.263,60.868,51.876z M67.262,41.466v8.194c0,0.382-0.31,0.693-0.693,0.693h-3.621
	c-0.767-1.686-2.465-2.863-4.435-2.863c-1.97,0-3.669,1.177-4.436,2.863h-2.443c-0.382,0-0.693-0.31-0.693-0.693V33.202
	c0-0.383,0.31-0.693,0.693-0.693h9.118c0.382,0,0.964,0.127,1.385,0.693L67.262,41.466z M64.03,39.665l-3.116-5.171
	c-0.241-0.445-0.537-0.692-1.593-0.692h-5.655c-0.382,0-0.693,0.31-0.693,0.692v5.171c0,0.383,0.31,0.693,0.693,0.693h9.672
	C63.72,40.358,64.03,40.048,64.03,39.665z M66.73,47.536c0-0.357-0.289-0.646-0.646-0.646c-0.357,0-0.646,0.29-0.646,0.646v1.224
	c0,0.357,0.29,0.646,0.646,0.646c0.357,0,0.646-0.289,0.646-0.646V47.536z M13.738,45.119H49.28V25.5H13.738V45.119z"/>
<rect x="0.5" y="80.5" style="fill:none;" width="80" height="80"/>
<path d="M17.91,126.359h31.37v4.339H26.906h-0.449c-0.681-1.869-2.475-3.209-4.577-3.209c-2.071,0-3.843,1.3-4.546,3.126
	c-0.867-0.25-1.501-1.047-1.501-1.995v-0.185C15.833,127.289,16.763,126.359,17.91,126.359z M25.343,131.876
	c0,1.998-1.626,3.624-3.625,3.624c-1.998,0-3.624-1.626-3.624-3.624c0-1.998,1.626-3.625,3.624-3.625
	C23.718,128.251,25.343,129.878,25.343,131.876z M24.235,131.876c0-1.387-1.129-2.516-2.516-2.516s-2.515,1.129-2.515,2.516
	c0,1.387,1.129,2.515,2.515,2.515C23.107,134.392,24.235,133.263,24.235,131.876z M61.976,131.876c0,1.998-1.626,3.624-3.625,3.624
	c-1.998,0-3.624-1.626-3.624-3.624c0-1.998,1.626-3.625,3.624-3.625C60.35,128.251,61.976,129.878,61.976,131.876z M60.868,131.876
	c0-1.387-1.129-2.516-2.516-2.516c-1.387,0-2.515,1.129-2.515,2.516c0,1.387,1.129,2.515,2.515,2.515
	C59.739,134.391,60.868,133.263,60.868,131.876z M67.262,121.466v8.194c0,0.382-0.31,0.693-0.693,0.693h-3.621
	c-0.767-1.686-2.465-2.863-4.435-2.863c-1.97,0-3.669,1.177-4.436,2.863h-2.443c-0.382,0-0.693-0.31-0.693-0.693v-16.458
	c0-0.383,0.31-0.693,0.693-0.693h9.118c0.382,0,0.964,0.127,1.385,0.693L67.262,121.466z M64.03,119.665l-3.116-5.171
	c-0.241-0.445-0.537-0.692-1.593-0.692h-5.655c-0.382,0-0.693,0.31-0.693,0.692v5.171c0,0.383,0.31,0.693,0.693,0.693h9.672
	C63.72,120.358,64.03,120.048,64.03,119.665z M66.73,127.536c0-0.357-0.289-0.646-0.646-0.646c-0.357,0-0.646,0.29-0.646,0.646
	v1.224c0,0.357,0.29,0.646,0.646,0.646c0.357,0,0.646-0.289,0.646-0.646V127.536z M13.738,125.119H49.28V105.5H13.738V125.119z"/>
</svg>
