<svg xmlns="http://www.w3.org/2000/svg" viewBox="-467 352.2 343.4 97.8" style="enable-background:new -467 352.2 343.4 97.8"><g style="fill:#2e368f"><path d="m-434.8 352.3h-6.3c-.7 0-2.7-.2-3.1.1-.2.1-.2.1-.4.2-.3 1.5-.4 3.9.6 4.6.7.5 1.9.7 2.4 1.4.2.3.4.8.5 1.1.1.4-.1 1 .1 1.3v22.2h-.2c-4.4-10.3-8.9-20.6-13.3-31-2.5 0-5.3.1-8 .1-1.5 0-3.1-.1-4 .4-.4 1.3-.9 3.5 0 4.7.4.6 1.5.8 2 1.2.6.4.7 1.3.9 2.1v47c0 .7.2 1.8 0 2.3-.5 1.2-2.2 1.1-2.8 2.1-.4.6-.3 1.7-.3 2.7 0 .6 0 1.2.3 1.5.3.7 1.9.4 2.8.4h7.1c.8 0 2.2.2 2.7-.2.1 0 .1-.1.2-.1.1-1.2.4-3.5-.2-4.4-.5-.8-1.5-.9-2.2-1.4-.6-.4-.7-1.1-1.2-1.6v-28.6h.1c.3 1.2 1 2.2 1.4 3.3 1 2.3 2 4.6 2.9 6.8 2.7 6.3 5.2 12.5 7.9 18.7.7 1.6 1.4 3.3 2.1 5 .4.8 1 1.7 1.2 2.7h6.9v-53.7c0-1.2-.3-3.4.1-4.3.3-.8 2.1-1.6 2.8-2 .2-1.6.3-3.4-.4-4.5-.8-.3-1.6-.1-2.6-.1m84.1 13.5c-1.1-1.5-2.9-3.1-4.9-3.7-3.4-1.1-6.9.2-9 1.7-.5.3-.9.9-1.3 1.2-.3.2-.6.3-.8.6h-.2c0-3.1.1-6.2.1-9.2 0-1.1.2-3-.3-3.6-.6-.8-2.2-.4-3.5-.4h-6.7c-1 0-2.4.2-3.2-.1-.5.3-1.4 0-1.9.4-.3.4-.5 3.3-.1 3.7.2.5.8.3 1.2.6.4.3.8.8 1 1.3.3 1.1.1 2.8.1 4v45.1c0 1.2.2 3-.2 3.8s-1.5 1.3-2.2 1.8c-.1 1.1-.2 2.8.1 3.8 1 .3 2.7.2 4 .2h7.1c.9 0 3.3.2 3.8-.2.6-.2.4-.7.7-1.2v-2.2c.6.4 1.1 1.1 1.7 1.5 1.2.9 2.6 1.8 4.2 2.3 5.2 1.7 8.9-1.9 10.8-4.7 1.6-2.2 2.2-4.9 3-8 .3-1.2.1-2.4.4-3.7.7-3.2.5-7.7.5-11.5.2-9.3-.5-18.2-4.4-23.5m-12.7 44.1c-1.6.4-3.1-.8-3.4-1.7v-37.2c.2-.6.9-1.3 1.4-1.5.3-.1.6-.1.9-.3 4.3 0 3.5 4 3.5 8.2v23.2c0 3.9.6 8.5-2.4 9.3m79.5 2.8c-.7-.7-1.7-1.1-2-2.1v-54.4c0-1.1.2-3-.3-3.7 0-.1-.1-.1-.1-.2-.5 0-.9-.1-1.4-.1-.5.3-2.1.1-2.8.1h-7.4c-1 0-2.6-.2-3.2.3-.6.3-.8 2.9-.5 3.7.4 1.2 1.8 1.2 2.2 2.2.5 1 .2 4.8.2 6.3v42.1c0 .7.2 2.9-.1 3.4-.2.9-1.4.9-1.9 1.6-.4.5-.8 3.4-.4 4.3.1.2.3.4.4.5 3.7.4 8.1.1 11.9.1 1.9 0 4.1.2 5.2-.5.4-1 .3-2.5.2-3.6m-29.8-13c-.7 1.1-.1 3-.4 4.4-.8 3.5-1.3 6.2-4.5 7.5-.6.3-1.8.7-2.8.4-3.8-.9-3.9-5.3-3.9-10.1v-13.2h18c0-9.1-.5-15.9-4.3-21.2-.7-1-1.4-2.1-2.3-2.8-1.3-1-2.6-1.9-4.3-2.5-2.5-.9-6.3-.8-8.6.1-5 1.8-8.2 5.2-10.3 9.8-1.3 2.9-1.7 6-2.6 9.5-.3 1.2 0 2.2-.3 3.5-.4 1.6-.4 6.2-.1 7.9.1.3-.1 1.1 0 1.7.5 2.1.3 4.3.9 6.2 2.2 7.6 5.4 13.5 12.8 16 .8.3 1.8.3 2.7.5 1.6.4 4.3-.1 5.5-.4 5-1.5 7.6-4.5 9.6-9 .8-1.9 2.1-6.3.7-8.6-1.2-.3-5.1-.8-5.8.3m-11.6-29.6c0-.5.1-.9.1-1.4.3-1.1 1.3-2.4 3-2 2.4.5 2.2 2.9 2.2 5.8 0 3.8.1 7.7.1 11.4-1.8 0-3.7-.1-5.5-.1v-9c0-1.5-.2-3.4.1-4.7"/><path d="m-408 392.9c0-.1-.1-.1-.1-.1-.1 0-.1.1-.1.1 0 .1-.1.2-.1.2 0 .1 0 .2 0 .3 0 .1.1.2.1.3h.1c.2 0 .2-.2.3-.3 0-.1 0-.2-.1-.3 0 0 0-.2-.1-.2m-17.5 14c0 0-.1.1 0 0-.1.1-.1.2 0 .2s.2 0 .2-.1c.1-.1.2-.1.1-.2h-.1c0 0-.2.1-.2.1m10.8 3.5c0 0 0-.1 0 0l-.1-.1c0-.1-.1-.2-.2-.2 0-.1 0-.1-.1-.1s-.2 0-.3 0c-.2 0-.4.1-.6.1-.1 0-.1-.1-.2-.1 0 0 0 0-.1 0-.1 0-.1 0-.2 0-.2 0-.4.2-.6.2h-.1c0 0 0 0-.1 0-.1 0-.3.1-.4.1-.1-.1-.1-.1-.2-.1h-.1c-.1 0-.3 0-.4-.1-.1 0-.2 0-.2.1 0-.1-.1-.1-.1-.1h-.1c-.1 0-.2.1-.2.1-.1 0-.1 0-.1 0h-.1c.1-.1 0-.4-.2-.4-.1-.1-.3-.2-.4-.4-.2-.2-.3-.2-.5-.3-.1 0-.3-.1-.4-.1-.1 0-.2 0-.3 0h-.1-.1c0 0-.2 0-.2.1h-.1c-.1 0-.1.1-.2.1h-.1c-.2 0-.4-.1-.6-.2-.1-.1-.2-.2-.4-.2-.1 0-.1 0-.2 0h-.1c0-.1-.1-.1-.1-.2-.1-.1-.1-.2-.1-.2v-.1c-.1 0-.1.1-.1.1 0 .1-.2.1-.3.1h-.1c-.1 0-.2.1-.2.1-.1 0-.1.1-.2.1s-.1 0-.2 0c-.1 0-.1 0-.2 0h-.1c0 0 0 0-.1 0 0 .1-.1.1-.1.1 0-.1 0-.2-.2-.2-.1 0-.1 0-.1 0s-.1 0-.2.1h-.1c-.1.1-.2.1-.3.2-.1 0-.1.1-.1.1 2.6 3.1 6 5.5 9.7 6.9v-.1c.2-.2.3-.4.5-.6 0 0 .1 0 .1-.1.2-.1.4-.1.5-.2.1 0 .1 0 .1-.1.1-.1.2-.3.2-.5 0-.1 0-.2 0-.3 0-.1 0-.1.1-.2 0-.1 0-.2 0-.4 0-.1 0-.1-.1-.2 0-.1 0-.2 0-.2 0-.1 0-.1 0-.2v-.1c0-.1 0-.2-.1-.3 0-.2-.2-.4-.1-.5.2-.3.1-.7.3-1 0-.1.1-.2.1-.3v-.1c0-.1.1-.2 0-.3v-.1c0 .5-.1.4-.1.3m17 3.9c0 .1 0 .1 0 .2 0 0 0 .2.1.2 0 .1.1.2.2.1.1-.2.1-.3.1-.5 0-.3-.3-.1-.4 0m-31.6-29.7c0 0 0-.1 0 0 .2 0 .1.1.1.2v.1c.1.1.2 0 .2-.1.1.1.1.2.2.3 0 .1 0 .1 0 .2-.1 0-.1 0-.2 0s0 .1 0 .2c-.1.1.1.1.1.2-.1.1-.4.1-.4.4h.1c.1 0 .2 0 .2-.1v-.1h.1v.1.1c0 0 0 0 .1 0-.1 0-.1.1-.2.2v.1c0 0 .2 0 .2-.1h.1c0 .1.1.1.1.1s-.1 0-.2 0c0 0-.1 0-.2 0h-.1-.1c.1 0 .2-.2.1-.3-.1 0-.1.1-.2.1 0 .1-.1.1-.1.2 0 .1.1 0 .2 0v.1c0 .1 0 .1 0 .2.1.1 0 .2.1.3h.1c.1 0 .1 0 .2 0 0 .1-.1.1-.1.1.1.2 0 .2-.1.3 0 .1.1.1.2.1h.1c0 0-.1.1 0 .1 0 0 0 .1.1.1s.1.3.2.2c.1 0 .2.2.3.2 0 .1-.1.1 0 .2.1 0 .2.1.2.1 0-.1.2-.1.2-.2.1 0 0 .1 0 .2 0 .1.1.2.1.1v.1c-.1 0-.2.1-.2.2 0 .1.2.1.1.1-.1.1.1.1.2.1 0 .1.1 0 .1.1-.1.1.1.1.1.1v.1c0 0 0 .1.1.1 0 .1.1.1.1.1.1 0 .1-.1.1-.2.1 0 .1.1.1.1 0 .1.1.2.1.2-.1 0 0 .1 0 .1 0 .1 0 .1.1.2.1 0 .1-.1.2-.1s.1.1.2.1c0 .1.1.2.2.1h.1.1c0 0 .2 0 .2-.1 0 0 0 .1.1.1.1 0 .2 0 .2 0h.1c0 .1.2.1.2 0h.1c.1 0 .1-.1.1-.2v-.1c0-.1.1-.2 0-.4.1-.1.1-.2.1-.3 0-.1 0-.2-.1-.2h-.1c0-.1 0-.2 0-.3l.1-.1c0-.1 0 0-.1-.1l.1-.1c0-.1-.1-.2 0-.2v-.1c0-.1.1-.2 0-.3v-.1c0 0 .1 0 .1-.1s-.1-.3-.1-.4c0 0 .1-.1 0-.1 0 0 0-.1 0-.2v-.1-.1h.1l.1-.1c0-.1.2-.2.1-.3 0 0 0-.1-.1-.2.1 0 .2.2.2.1.1 0 0 0 .1-.1 0 .1 0 .1.1.1.1-.1.1-.2.1-.3.1 0 .1 0 .2 0 0-.3.2-.5.2-.8.1-.1 0-.2 0-.3 0-.2.1-.4.1-.6.1 0 .1.1.1.1h.1c0 0 .1 0 .1-.1 0 0 0-.1.1 0 .1.1.2-.1.3-.1.1-.2.3-.3.5-.5.1-.1.2-.1.2-.2.1-.1.2-.2.3-.3.1-.1.1-.2 0-.3 0-.1 0-.1 0-.2.2-.1.3-.3.2-.6.1-.1.2-.1.3-.2 0 0 0 0-.1 0-.1 0-.2.1-.3.1 0 0-.1.1-.2 0-.1 0-.1 0-.2 0-.1 0-.2 0-.3.1 0 .1 0 .1-.1.1 0 .1-.1.1-.2.1 0 0 0-.1.1-.1.1 0 .1-.1 0-.1-.1 0-.1.1-.2.1 0-.1.1-.1.1-.1 0-.1.2 0 .2-.1.1 0 .1-.1.1-.2-.1 0-.1-.1-.1-.2-.1 0-.1-.1-.2 0 0-.1.1-.1.1-.2s-.1-.1-.2-.1c.1 0 .2 0 .2 0 .1 0 .1-.1.1-.1s.1.1.1.2c.1.1.1.2.2.2l.1.1c.1.1.3 0 .3-.1.1 0 .1.1.2 0 0 0 .1-.1 0-.1 0-.1 0-.1-.1-.1s-.1-.2-.1-.3c0 0 0-.1 0-.2s-.1-.2-.1-.3c-.1 0-.1.1-.1.2v.1c-.1 0-.1 0-.1 0 0-.1 0-.1.1-.2 0-.1.1-.1 0-.2-.2-.1-.1.2-.3.2-.1-.1 0-.1 0-.2v-.1c-.1-.1-.2-.1-.4-.2-.1 0-.2-.1-.2-.1l-.1.1c0 0-.1.2-.1.1.1-.1-.2-.1 0-.1.1 0 .1 0 .2-.1v-.1c0 .1.1.1.2.1.1 0 .1 0 .2.1.1 0 .2.1.3 0h.1c0 0 0-.1-.1-.1-.1-.1-.1-.2-.3-.3-.1 0-.1-.1-.2-.1 0 0 .1.1.2.1-.1 0-.1 0-.2-.1h.1c.1 0 .1-.2 0-.3-.1-.1-.2 0-.3 0s-.2.1-.3.2c0 .1 0 0 .1.1l0 .2v.1c0 0 0-.1-.1-.1-.2-.2-.3.2-.4.3-.1-.2.4-.4.2-.5 0 0-.1 0 0-.1h.1c.1 0 .2 0 .2-.1.1 0 .1-.1.2-.1s.1-.1.1-.2c0 0 .1 0 .1-.1v-.1c.1 0 .1.1.2 0 0-.1.1-.1.2-.1.1 0 .1 0 .1-.1-.1 0-.1-.2-.1-.2v-.1c0 0-.1 0-.1-.1 0 0 0-.1-.1-.1h.1.1v-.1c0-.1-.1-.1-.1-.1l.3-.1s0-.1-.1-.1l-.1-.1c-.1 0-.2.1-.3.1 0 0-.1 0-.1-.1v-.1c0 .1.2.1.2-.1l-.1-.1c0-.2-.3-.1-.2 0v.1c.2 0 .1-.2 0-.2 0-.1-.1-.1-.2-.2.1 0 .2.1.4 0 0 .1.1.1.1.2.1 0 .1 0 .1-.1 0 0 0-.2-.1-.2 0-.1-.1-.1-.1-.2 0-.2-.1-.1-.2-.2h-.1c0-.1.1-.1.1-.2-2.7 2.3-4.9 5.2-6.3 8.4m6.1-2.4c-.1 0-.2-.1-.3 0 0-.1.1-.1.2-.1.1-.1 0-.1.1.1m-.1-1.1c.1 0 .1 0 .2.1-.1 0-.1.1-.1.1 0 .1-.2.2-.1.3 0 .1.1 0 .1.1 0 0 0 0 .1 0 0 0 0 .1-.1.1l-.1-.1c-.1 0-.1 0-.1-.1 0-.2.2-.3.1-.5m.2-2.8h.1c0 0 .1 0 .1-.1v-.1c0 0-.1 0-.1-.1.1 0 .1.1.2.1h.1c0 .1 0 .1 0 .2v.1c0 0 .1.1.1 0 0-.1-.4 0-.5-.1m-.4.7c0 .1.1 0 .2 0 0 0 0-.1-.1-.1 0-.1-.1 0-.1-.1l.2 0c-.1 0-.1.1 0 .2 0 0 .1 0 .1.1.1 0 .2.1.3.1-.1 0-.2 0-.2 0-.1 0-.3 0-.4.1.1-.2 0-.3 0-.3m-6 5.8c-.1.2-.2.4-.2.6.2-.1.5-.5.2-.6m15.4-12.9c0 .1.1.1.2.1s.1 0 .2 0c.1-.1-.1-.2-.1-.3 0 0 0-.1 0-.2-.1 0-.3.1-.4.1-.1.2 0 .3.1.3m29.3 18.8c-.2-1.5-.6-3-1.2-4.5-1.9-5.3-5.6-9.4-10-12 0 .1 0 .1 0 .2 0 .3 0 .5-.1.8-.1.1-.1.3.1.4 0 .1.1 0 .1.1 0 0 0 0 0 .1l.1.2-.1-.1c-.1-.1-.2-.2-.3-.3 0 0 0 0-.1 0-.1 0-.3.1-.4.1-.1 0-.1 0-.2 0s-.1-.1-.2-.1-.1.1-.1.1 0-.1.1-.1.2-.1.2-.1c.1 0 .3-.1.3-.1.2-.1.2-.4.2-.6 0-.2 0-.3 0-.5-.8-.4-1.5-.8-2.3-1.2.1.1.1.3.2.4v.1c0 .1.1.3.1.3 0 .1.2.1.2 0 .1.1.2.3.3.4 0 0 .1 0 .2 0s.1.2.1.3c0 .1 0 .1 0 .2 0-.1-.1-.2-.2-.2-.4-.3-.8-.3-1.3-.4-.2.1-.3 0-.5.1-.1 0-.2.1-.3 0h-.1-.1-.1c0 .1-.1.1 0 .2v.1.1c0 .1.1.2.2.3 0 .1.1.1.2.2-.1 0-.1.1-.2.2 0 .1 0 .1.1.2h-.1c-.1 0 0-.1-.1-.2v-.1c-.1-.1-.3-.1-.3.1-.1.1-.1.2-.2.2 0-.4-.3-.4-.4-.3-.1 0-.1.1-.1.1 0 .1 0 .1 0 .1 0 .1 0 .1 0 .1h-.1c0 .1-.1.4-.3.3 0-.1.1-.2.1-.2v-.1c0-.1 0-.2-.1-.3 0 0 0 0 0-.1s.1-.1 0-.1c-.3.1-.3.4-.5.6-.1.1-.2.2-.3.3-.2.1 0 .4-.3.4-.1 0-.1.1-.1.1 0 .1.1 0 .1.1h-.1c0 0-.1 0-.1.1v.1c0 .1.1.2.1.3 0 0 0 .1-.1.1-.1 0-.2.1-.4.1 0 0 0-.1-.1-.1-.1 0-.1-.1-.2-.1h.1-.1c0-.1 0-.1 0-.2 0-.1.1-.1.1-.2.1 0 .1-.1.1-.2 0-.1-.1 0-.1-.1h-.1c0-.1-.1 0-.1-.1-.1-.1-.1-.1-.2-.1-.2 0-.4.1-.6.1.1.2.3.2.4.4s0 .4 0 .7c.1.1.1 0 .2.1.1 0 .1 0 .2.1 0 .1 0 .1 0 .2s0 .3-.1.4c-.1-.1-.3-.1-.4-.1-.1.1-.1.4-.3.5v.1c-.1.1-.1.2-.2.3-.1.1 0 .3.1.3s.2.1.2.1v.1c0 0-.1 0-.2 0-.1 0-.1 0-.2 0 0 0 0 0-.1 0-.1-.1-.1.1-.2.1-.1 0-.1-.1-.2-.2 0 0-.1 0-.2.1 0 .1-.1.1 0 .2 0 .1.1.2.2.2.1.1.1.1.2.1 0 0 0-.1.1-.1.1.1.1.2.1.3-.2 0-.2-.2-.4-.1h-.1-.1v-.1c0 0 0-.2-.1-.2 0-.1 0-.1-.1-.1 0 0 0-.1-.1-.1v-.1c0 0 0-.2-.1-.2-.1-.1-.2-.1-.3-.2-.1 0-.2-.1-.3-.2-.1 0-.1-.1-.2 0 0 0-.1 0-.2 0 0 0 0-.1.1-.1v-.1.1c.1.1.3.1.5.1.1 0 .2 0 .2 0 .1 0 .1 0 .2 0h.1c.1 0 .1 0 .1 0 .1 0 .1 0 .2 0h.1.1c.1 0 .3-.1.3-.1.1-.1.2-.1.2-.2.1-.1.2-.3.1-.5 0-.1 0-.2-.1-.2 0-.1-.1-.2-.1-.3 0-.1 0-.1-.1-.1-.1-.1-.2-.1-.3-.2 0-.1-.1 0-.2 0s-.1 0-.2-.1h-.1c-.1 0-.2.1-.2 0-.2-.2-.5-.2-.7-.3-.1 0-.2 0-.3 0s-.2.1-.2 0h-.1c-.1 0-.1 0-.2-.1-.1 0-.1.1-.1.1s0-.1-.1 0v-.1-.2h-.1c-.1 0-.2 0-.2.1-.1 0 0 .1-.1.1-.1 0-.2.1-.3.1h-.1c-.1 0-.1-.1-.2-.1 0-.1.1 0 .1-.1.1-.1.1-.2.2-.3.1-.2-.2-.1-.3-.2h-.1-.1c0-.1-.1-.1-.2-.1-.1 0 0 .2-.2.3 0-.1.1-.2 0-.3l-.1-.1c-.1 0-.1.1-.2.1h-.1v.1.1c0 .1 0 .1 0 .2 0 0 .1.2 0 .2 0-.1 0-.2-.1-.3 0 0 0 0 0-.1-.1 0-.1.2-.2.3-.1-.1-.3 0-.4 0s-.1 0-.1.1.1.1.1.2l-.1.1c-.1 0-.1.1-.2.1v-.1c.1 0 0-.2 0-.3-.1-.1-.2.1-.2.1-.1 0-.1.1-.1.2v.1c0 0 0 .1.1.2.1 0 .1 0 .2-.1.1 0 0-.1.1-.1 0 .1 0 .2.1.2-.2 0-.4 0-.5.2-.1.1.1.2.2.2-.1 0-.1.1-.1.2h-.1v.1c0-.1-.1-.1-.1-.1s-.1 0-.2 0c0 0 0 0 0-.1v-.1c-.1 0-.1.1-.1.2 0 .1 0 .1 0 .2 0 0 .1 0 .1.1-.1 0-.2.2 0 .2 0 0 .1 0 .1.1-.1 0-.1.2-.2.2s-.1 0-.1.1c0 0 0 0 0 .1-.1 0-.1.1-.2.2-.1 0-.1 0-.2 0v.1.1c0 0-.1.1 0 .2h.1c.1 0-.1.1 0 .2h.1c-.1.1-.2.1-.1.2v.1h-.1v.1c0 .1-.1.2.1.2-.1.1-.1.1-.2.2.1.2-.3.5 0 .7-.1 0-.1.2 0 .2 0 0 0 0 0 .1s0 .1 0 .2c0 .1-.1.1-.1.2s.1 0 .1.1-.1.1-.1.2c0 0 0 0 0 .1-.1 0-.1 0-.2.1 0 0 0 0 0 .1 0 .1 0 .1 0 .2 0 .1-.1.1 0 .2 0 .1.2.1 0 .2.4.1.2.1.2.1 0 .1-.1.2 0 .3v.1c0 0-.2 0-.2.1s-.2.2-.3.2c.1.1 0 .1-.1.2 0 0 0 .1.1.1 0 0-.1 0-.1.1 0 .1 0 .2-.1.2v.1c.1.1.2.1.2.2-.1.1 0 .2.1.2l-.1.1c0 .1.1 0 .2.1v.1c-.1.1 0 .2.1.2h-.1-.1c0 .1 0 .1.1.1.1 0 .1.2.2.2 0 0 .1 0 .1-.1h.1c0 0 0 0 0 .1-.1 0-.1 0-.1.1 0 .1 0 .1.1.2.1.1.2.1.3.1 0 0 0 0 .1 0h.1c0 0 .1 0 .1-.1h.1c.2 0 .2-.2.3-.3 0-.1 0-.2.1-.3 0-.1.1-.1.2-.2v-.1c0 .1.1.1.1.1.1.1.1.4.3.4.1 0 0-.1.1 0 0 .1 0 .1 0 .2 0 .1.1.2.1.2 0 .1.1.1.1.1.1.1.3.3.3.4v.1c.1 0 .3 0 .4-.1 0-.1 0-.3.1-.4 0-.1.1-.1.2-.1.1 0 .1-.1.1-.2v-.1c0-.1 0-.1 0-.2v-.1c0-.1 0-.1 0-.2 0-.1-.1-.2-.1-.3 0-.1 0-.1 0-.1 0-.1 0-.2.1-.3.1 0 .1-.1.1-.2v-.1c0-.1.1-.1 0-.2 0-.1-.1-.2-.1-.2l-.1-.1c0-.1-.1-.1-.1-.1-.1 0-.1 0-.2 0s-.1-.1-.1-.1c-.1 0-.1-.2-.1-.3 0-.1-.1-.3-.1-.4l-.1-.1h.1c.1-.2.1-.5.1-.7 0-.1.1-.1.2-.2.1-.1.2-.2.1-.3 0-.1.1-.2.1-.4.1 0 0 0-.1-.1 0-.2.2-.4.1-.6.1 0 .1 0 .1 0 .1 0 .3-.2.4-.1h.1l.1.1c0 .1.1.2.1.2v.1c-.2.5-.3 1.1-.5 1.7l.1.1c0 .1.1.1.1.2v.1c.1 0 .1.2.1.2 0 .1 0 .3.1.5.1.1.2 0 .2 0 .1 0 .1.1.1.1h.1c0 0 0 0 .1 0 0 0 .1 0 .2-.1.1 0 .1-.1.2-.2.1 0 .2-.1.2-.1.1 0 0-.1.1-.1 0 0 0-.1.1-.1.1-.1.3-.1.4-.2v.1c.1 0 .1 0 .2 0 .1 0 .1.1.1.1-.1.1-.3.1-.3.2 0 0 .1.1 0 .1s-.2.1-.3.1c-.1 0-.2.1-.3.1h-.1c-.1 0-.2.1-.2.2-.1.1-.2.1-.1.2-.1.1.1.2.1.3.1 0 .1.1.2.1.1.1.2.3.2.4 0 .1 0 .1-.1.2-.1 0-.2-.1-.2-.1-.1 0-.2-.2-.3 0h-.1c0 .1-.1.1 0 .2 0 .1 0 .1 0 .2v.1c0 0 0 .1 0 .2 0 .1.1.2.1.3s.1.1 0 .2c-.1.2-.1.4-.2.6-.1 0-.1-.1-.2-.1-.3.1-.6.3-.8.5-.1.1-.2.2-.3.2 0-.1-.1-.1-.1-.1-.1 0 0 .1-.1.1v.1c-.1-.1-.3 0-.3.1-.1 0-.1.1-.1.1 0 .1-.1 0-.1-.1-.1 0-.2.1-.3.2-.1 0-.1-.1 0-.1-.1-.1-.2-.1-.2-.2.1 0 .2-.1.2-.1-.1-.1-.2 0-.3-.1 0-.2.2-.3.2-.5h-.1c-.1.1-.2-.1-.2-.2v-.1c0-.1 0-.2-.1-.3h-.1c0 .1-.1.2-.1.3s.2.2 0 .2c-.1 0-.1-.1-.2-.1 0 0 0 .1 0 .2 0 0 0 0 0 .1-.1.1.1.2.1.3.1.2.2.2.2.4 0 .1.1.1.1.2 0 .1.1.1.1.2l.1.2v.1c-.1 0-.3-.1-.4.1 0 .1-.1.1-.2.2-.2.1-.2.3-.3.4 0 .1 0 .2 0 .3 0 .1.1.3 0 .3 0 0-.1.1-.2.1 0 0-.2 0-.2.1v.1.1.1c0 .1.1.2.1.2 0 .1-.1.1-.2.2-.1.2-.1.4-.4.3h-.1v.1h.1c0 .1.1.1.1.2l.1.2c-.1 0-.1.1-.2 0 0 0-.1 0-.2 0 0 0-.2 0-.2.1-.1 0-.3.1-.1.2 0 .1.1.2.1.2.2 0 .3 0 .5 0 .1 0 .2 0 .2 0 0 .2.2.2.2.3.1 0 .1 0 .1.1.1.1.3.4.3.6 0 .1.1.2 0 .3v.1c0 .2-.3.1-.4.2 0 0-.1 0-.2 0-.2.1-.4.2-.7.2h-.1c0 0-.2 0-.2.1h-.1c0 .1-.1.1-.2.2 0 0 0 0-.1 0v.1c0 0 0 .1.1.1 0 .1.1 0 .1.1.1.1.1.1.2.2 0 .1.1.2.1.2.1.1.1.3.1.4v.1c0 .1 0 .2 0 .3h.1v.1c0 .1.1.2.1.2 0 .1.1 0 .1.1h.1c0 0 .2 0 .2-.1 0 0 .1 0 .1-.1.1 0 .2 0 .3.1.1 0 .2.1.3.1.2 0 0 .1 0 .2 0 .3 0 .5-.2.7-.1.1-.2.1-.2.1-.1.1-.1.3-.1.4s0 .2-.1.3v.1c.1.2.2.4.2.6 0 .1 0 .2-.1.2-.2.3-.6.5-.5.9-.1.1-.2.2-.1.4 0 .1 0 .2 0 .3v.1.1c-.1.1-.1.2-.1.3v.1c0 .1 0 .2 0 .3 0 .1-.1.2-.1.4v.1c0 .1.1.2.1.2.1.1.2 0 .2.1-.1.3.3.3.3.6v.1c0 .1.1.2.1.3v.1c0 .1-.1.1-.1.2-.1.1.1.2.1.2.1.2.2.2.2.5.1.1.3.1.4.1.1.1.2.2.4.2.1 0 .1.1.2.1h.1c.1 0 .2.1.2.1 0 0 0 0 0 .1s.1.1.1.1c.1.2.3.2.5.2.4.1 1.1.4 1.4.1.1 0 .1-.1.2-.1v-.1c.1 0 .1-.1.2-.1h.1c.1 0 .2 0 .3-.1 0 0 .1 0 .2 0s.3 0 .5-.1c.1 0 .1-.1.2-.2.2-.1.3-.3.4-.4 0 0 0-.1.1-.1.1-.1.2-.1.3-.1s.2-.1.3-.1c.1 0 .2.1.3.1 0 .1.1.1.1.1.1.1.1.1.2.1s.3-.1.3-.1c.1-.1.3-.1.4-.2.1 0 .1 0 .2.1l.1.1c0 .1.1.1.1.2 0 0 0 .1 0 .2 0 0 0 .1 0 .2 0 .1.1.2.1.3s.1.2 0 .3v.1c.2.1.3.2.4.3.1 0 .1 0 .1.1.1.1.3.1.4.2.1 0 .1 0 .2.1h.1c0 .1.1.1.1.2.2 0 .3.3.4.4.1 0 .1.3.2.3 0 .1 0 .1.1.1 0 0 .1 0 .1.1.1.1.1.2.2.3.1.1 0 .2 0 .2v.1c-.1.1-.1.3 0 .6 0 .1 0 .3.1.5v.1c0 .1.1.3.2.4.1.1.2.2.3.3.1.1.2.2.3.4.1.2.4.2.5.4.1.1.1.3.1.3v.1c0 .1 0 .1.1.1 0 .1.1.1.1.1.1 0 0 .1.1.1 0 .1.1.2.1.3.1.1.2.2.3.2h.1c.1.1.2.1.3.2 0 0 .1 0 .1.1l.1.1c-.1 0-.1.1-.1.1s0 .1.1.1c.2.1.4.4.3.6.1.1.2.2.3.3 0 .1.1.1.2 0 0 0 .1 0 .1.1.1 0 .2 0 .2-.1v-.1c0-.1.1 0 .2-.1 0-.1.1-.1.1-.2.2-.1.4-.2.6-.2 0 0 .2 0 .2-.1.1-.1.2-.1.3-.2.1 0 .1-.1.1-.1.3-.4.5-.9.7-1.3.2-.1.2-.4.3-.5.1-.1.1-.2.1-.3v-.1c0-.1 0-.2 0-.3 0 0 0-.1 0-.2.2.5.2.4.2.3v-.1c0-.1 0-.1 0-.1 0-.1.2-.1.2-.2 0-.1.1-.1.1-.2v-.1c0-.1.1-.1.1-.2s-.1-.3-.2-.4v-.1-.1c-.1-.1-.1-.2-.2-.3 0-.1-.1-.1-.2-.2v-.1c.1-.1.1-.2.1-.3.2-.3.3-.7.7-.9.1-.1.1-.2.1-.3 0-.1.1-.2.1-.2 0-.1-.1-.2-.2-.3-.1 0-.1-.2-.2-.2 0-.1-.1-.3-.1-.4 0-.1-.1-.2-.1-.3 0 0 0 0-.1 0-.1-.1-.1-.1-.2-.2l-.1-.1c-.1-.2-.1-.4-.2-.6l-.1-.1v-.1c0-.1-.1-.1-.1-.2 0-.1 0-.1 0-.2 0-.3 0-.5.1-.8.1 0 .1-.1.2-.1.2-.5.2-1.1.6-1.5.1-.1.1-.1.1-.2.2-.3.3-.7.3-1.1 0-.1 0-.2 0-.2v-.1c0-.3.1-.5.1-.7 0-.1 0-.2 0-.3v-.1c0 0 0-.2-.1-.2 0 0-.1-.1-.1 0v.1c-.1.1-.1.1-.2.2l-.1.1h-.1c-.1 0-.2.1-.3.1-.1 0-.1.1-.2.2-.2-.1-.4.2-.5.3-.1-.1-.1-.1-.2-.2-.2-.1-.3-.4-.5-.5-.4 0-.6-.3-1-.3 0-.1-.1 0-.1-.1-.1-.1-.1-.1-.2-.2-.2-.4-.6-.3-.9-.7 0-.1-.1-.2-.1-.2 0-.1-.1-.2-.1-.3-.1 0-.1-.1-.2 0-.2 0-.3-.2-.4-.4-.1 0-.1-.1-.2-.2-.2-.3-.5-.4-.7-.7.1.1.2 0 .3-.1.2.1.4.3.6.4.1.1.2.1.3.1h.1v.1.1c.1.1.3.1.4.1.1.1.3.2.4.3-.1.2.1.3.2.4.1.1.2.2.3.2.4.1.6.4.9.6h.1c.1.1.1.2.2.3-.1-.1-.1-.2-.2-.3.1.1.1.2.1.3 0 .1.1 0 .1.1 0 0 0 .1.1.1 0 .1.1.1.1.2 0 .1.1.2.1.2 0 .1.1 0 .1.1h.1c.1 0 .1-.1.2-.1 0 0 .1 0 .1-.1.1 0 .1-.1.2-.2.1 0 .2 0 .2-.1.1 0 .1 0 .2-.1.2-.1.4-.3.5-.5 0-.1.1-.2.2-.2.1-.1.2-.1.2-.2h.1c0-.1.1-.1.1-.2v-.1c0-.2.2-.3.4-.4.1 0 .2-.1.2-.1.1 0 .1-.2.1-.2.1-.1.1-.1.1-.2 0-.1.1-.2.2-.2s.1-.1 0-.2c0-.1 0-.1-.1-.2 0 0 0 0 0-.1h.1c.1-.2.2-.4.1-.6.1-.2-.1-.2-.2-.2-.1 0-.1-.1-.1-.1h-.1c-.1 0-.3 0-.4.1 0 0-.1 0-.1-.1-.1 0-.1-.1-.2-.1-.1-.1-.1-.2-.1-.4-.1 0-.1.1-.1.1s0 .1-.1.1c-.1.1-.1.3-.2.4 0 .1-.3.1-.4.2-.1 0-.1 0-.1.1-.1 0-.2 0-.2-.1.1-.1.1-.1.1-.2-.1-.1-.2-.3-.3-.2v.1.1c-.1 0-.2-.1-.2-.2s-.1-.1-.1-.1c-.3-.2-.5-.3-.8-.5v-.1c.2 0 .2-.2.3-.1.1 0 .2 0 .3.1.1.1.1.2.2.2.1.1.3 0 .4 0 .1 0 .1.1.2.2.2 0 .3 0 .4 0 .1 0 .2 0 .3-.1.1 0 .1-.1.1-.1 0-.1.1-.2.1-.1l.1.1v.1c0 0 0 .1.1 0 0 .1.1.1.2.1h.1c.1 0 .1 0 .2 0 .1 0 .3 0 .4-.1 0 .1.1-.1.2 0h.1.1c.1 0 .1 0 .2 0 0 0 .1 0 .2-.1h.1c0-.1.2-.1.2-.1h.1.1.1c.1 0 .2-.1.3-.2h.1c.1 0 .1-.1.2-.1.1.1.2.2.3.3h.1c0 0 0 0 .1 0 0 0 .1 0 .2-.1 0 0 0 .1.1.1.1.1.3.1.5 0 0 .2-.3 0-.3.2.1.1.3.2.4.3.1 0 .3.2.4.1h.1c.1-.1.2-.2.1-.4 0 .1.1.1.1.2.1 0 .1.1.1.2s0 .2.1.2c0 .1.1.1.1.2.1.1.1.2.2.3l.1.1c.1.1.2.3.3.3.1.1.2.2.3.3.1 0 .1.1.1.2.2.3.5.4.7.7.1.1.1.2.2.2.1.1.2.1.4.1.1-.1.1-.2.1-.3.2-.1.1-.4.3-.5 0-.1 0-.2 0-.2-.1-.1-.1-.1-.1-.2.1-.1.1-.2 0-.4v-.1c0-.1 0-.2-.1-.2 0-.1-.1-.2-.1-.3.1-.1.1-.2.2-.3.1-.1 0-.3.1-.4.3-.3.3-.6.6-.9 0-.1.1-.1.2-.1 0 0 .1-.1 0-.1v-.1c0-.1-.1-.2-.1-.2 0 0 0-.1.1-.1.1-.1.1-.1.2-.1.2 0 .2-.2.4-.2.1 0 .2 0 .2-.1-.3-.3-.4-.3-.3-.4m-25.2-13.4v-.1c0 0 0 0 0 .1 0 .1 0 .1 0 0m10.1 12.3c0 .1-.1.1-.1.1 0 .1-.2.1-.3.1-.1 0-.1.1-.1.1-.1 0-.1.1-.2.1-.2 0-.5 0-.7-.1-.1 0-.2.1-.3 0h-.1c-.1 0-.3 0-.4.1 0 0-.1 0-.1.1l-.1.1c-.1.1-.1.2-.2.3 0 0-.1 0-.1.1-.1 0-.1 0-.2.1-.1 0-.2 0-.2.1v.1c0 .1.1 0 0 .1-.1 0-.1.1-.1.1-.1.1-.3.1-.4.2h-.1c-.1.1-.1.3 0 .4l.1.1c0 .1-.1.1-.2.1 0 .1.1.1.2.1 0 0 0 0 .1 0s.1 0 .2-.1c0 0 0 .1 0 .2 0 .1.1.1.1.1.2.1.6 0 .8.1.1 0 .2 0 .2-.1 0 0 0-.1 0-.2.1 0 .1 0 .2 0h.1c.1.1.3 0 .4-.1.2-.1.2-.2.2-.3.1-.1.3-.1.4-.1 0 .2.1.4.2.5 0 .1-.1.1-.1.2v.1c0 .1 0 .1 0 .2s0 .2 0 .2c0 .1 0 .2 0 .3v.1.1c-.2.1-.4.2-.6.1h-.1c0 0 0 0 0 .1-.2-.1-.2.2-.4.3 0 .1-.3.2-.4.1-.1 0-.2 0-.3 0-.1 0-.2 0-.3 0-.1.1-.2 0-.2 0s0 0-.1 0-.2 0-.3 0c-.2.1-.2-.1-.3-.1h-.1c-.1 0-.2.1-.3.1-.1.1-.2.2-.3.3 0 .1.1.2.1.2.1.2 0 .3-.1.4-.3.1-.4-.1-.7 0-.1 0-.2.1-.2 0h-.1c-.1 0-.2-.2-.3-.2-.1 0-.2 0-.3 0 0 0 0 0-.1 0-.1 0-.3.1-.4.1h-.1c0 0-.2 0-.2.1v-.1c0-.1-.1 0-.2 0 0 .6 0 .4 0 .3 0-.1.1-.2 0-.3 0-.1 0-.2-.1-.2-.1-.1-.1-.2-.1-.3 0-.1 0-.1 0-.1-.2.1-.3-.2-.4 0h-.1c-.1.1-.1.2-.2.2h-.1-.1c-.1 0-.2.1-.2.1-.1 0-.1.1-.1.1h-.1c-.1 0-.1.1-.2.1h-.1c-.1 0-.3.1-.4.2h-.1c-.1 0-.1.1-.1.2-.1.2-.4.3-.5.5-.1.1-.2.1-.2.1-.1.1-.1.2-.2.3 0 0 0 0-.1 0-.1 0-.3.1-.4.2h-.1c-.1 0-.1-.1-.2 0-.1 0 0-.1 0-.2.1 0 .2-.2.2-.2.1 0 .3-.1.3-.2.2-.1.3-.3.4-.4v-.1c0-.1 0-.1 0-.2v-.1-.1c.1-.2-.2-.3-.2-.5-.1-.5.8-.6.4-1.2v-.1c.1-.1.1-.2.1-.3h.1.1c0 0 0 0 .1 0h.1c0 0 .2 0 .2-.1h.1c.2-.2.2-.3.3-.5 0-.1.1-.2.2-.1.3 0 .4.2.6.4h.1c.1.1.3.1.4.2.4.1.9.2 1.2.4.1.1.2.2.2.3v.1c0 0 0 0 0 .1 0 0 0 .1.1.1s.1-.1.1-.1v-.1c.1-.1 0-.2 0-.3 0 0 0-.2-.1-.2h-.1c0-.1 0-.1.1-.2.1 0 .2 0 .3 0 0 0 0-.1.1-.1 0-.1-.1-.1-.1-.1-.1 0-.2-.1-.3-.1-.1-.1-.3 0-.5 0 0-.1 0-.1-.1-.2-.1 0-.2.1-.3.1s-.1-.1-.2-.1c-.1-.1-.2-.1-.3-.2-.1-.1-.1-.1-.2-.2 0 0-.1 0-.2 0-.1-.1-.1-.1-.2-.2 0-.1.1-.2-.1-.2.1-.1.1-.2.2-.2 0 .1.1.1.1.2h.1c.1 0 0-.1.1-.1 0 0 0 .1.1.1v.1c.1 0 .2 0 .2.1s.1.1.2.1c0 0 0 0 .1 0s.3 0 .4.1c.1 0 .1 0 .2 0 .2 0 .3.2.5.2.1 0 .1.1.1.1 0 .1.1.4.2.5.1.2.3.2.5.2 0 0 .1 0 .1.1s.1.1.2.1c0 .1 0 .2.1.2.1.1.2.2.3.1 0 .1.1.1.1.1.1-.1.1-.2.1-.2-.1-.2 0-.2 0-.4h.1v-.1c.1 0 .2 0 .2 0 0-.3-.4-.2-.6-.4h-.1c0-.1-.1-.1-.1-.2h.1c.1 0 .1 0 .1-.1 0 0 0-.1-.1-.1 0-.1.2-.1.3-.1 0-.1.2-.1.2-.1h.1.1c0 0 .1-.1.2-.1.1-.1.2-.2.2-.3 0 0-.1 0-.1-.1 0-.1-.1-.2-.1-.2-.1 0-.1 0-.2-.1v-.1c0-.1 0-.2 0-.3 0-.1 0-.2 0-.3 0-.1 0-.2.1-.2l.1-.1v-.1c-.1-.1 0-.2 0-.2v-.1c0-.1 0-.1 0-.2 0-.1.2-.1.3-.1v.1c.1.1.2.1.3 0h.1c0 .1-.1.1-.1.1-.1.1 0 .2.1.2.2.1.3.3.5.2.1-.1.1-.2.2-.3h.1c.1 0 .2-.1.3-.1 0-.1-.1-.1-.1-.2v-.1h-.1c-.1 0-.2.1-.3 0 0-.1-.1 0-.1-.1.1 0 0-.1.1-.1 0-.1.1-.1.1-.2s.1-.1.2-.1l.1-.1c.1-.1.3-.2.5-.3 0 .1-.1.2-.2.2-.1 0-.1.1-.1.1 0 .1.1.2.1.3 0 .1-.2.1-.2.2 0 0 .1 0 .1.1.1 0 .3.1.4 0 .2.1.3.1.5.3.1 0 .2.1.4 0 0 0 .1 0 .1.1.1.1.1.1.2.2.5 0 .4.2.4.2m-4.6 3c0-.1.1-.1.2-.1 0 .1-.1 0-.2.1m-18.1-16.6h-.1.1c-.1 0-.1.1 0 0m.1 1.2c0 0 0 .1.1.1s.2 0 .3-.1h.1c0-.1.1-.2 0-.2 0 0-.1 0-.2 0 0-.1 0-.1 0-.2s-.1-.2-.2-.1c-.2 0-.1.2-.1.5m-8.7 13.6c0 .1.1.1.2.1s.1 0 .1 0c0-.1.1-.2 0-.3-.1 0-.1 0-.1 0 0-.1-.1-.2 0-.3.1 0 0 0 .1-.1-.1 0-.1-.1-.2-.2 0 .2-.1.4-.1.7 0 0 0 0 0 .1m.1.5c.1.1.4.2.4.1v-.1c.1-.1-.1-.1-.2-.1 0 0 0-.1-.1-.1 0 0-.1 0-.1.1 0 0 0 .1 0 .1v-.2c0-.1-.1-.1-.1-.2 0 .1 0 .3-.1.4 0 .1.1.1.2 0m27.9-19c0 .1.1.1.2.1 0 .1 0 .1 0 .2v.1.1h-.1v.1c0 .1-.1.1-.1.2 0 .2.1.3.2.3.1 0 .1 0 .2 0h.1c0 0-.2.1-.1.2.1 0 .2.2.3.2 0-.1-.1-.2-.1-.2 0 0 .1 0 .1-.1.1 0 .1.2.1.3v.1c.1 0 .2 0 .3 0s.1 0 .2 0c0 0 .1 0 .1-.1.1 0 .1.1.2 0 0-.1.2 0 .2-.1.1 0 .1-.1.1-.1-.1-.2-.3-.1-.5-.3-.1 0-.1-.2-.2-.2l-.1-.1c0-.1-.1-.1-.1-.2 0-.1 0-.2-.1-.2-.1-.1-.1-.3-.1-.4 0-.1 0-.1.1-.1 0-.1-.1-.1 0-.2 0 0 0 0 0-.1-.2-.1-.4-.1-.6-.2v.1c-.1 0-.2.1-.1.2 0 .1.1.2 0 .2s-.1 0-.1.1v.1c0 0-.1 0-.1.1 0-.2 0-.2 0-.1m-23.1 36.8c.1.1.2.2.2.3v-.1c0-.1.1-.1.1-.2-.1-.2-.2-.2-.3 0m-.9-11.1c-.1-.1-.3-.1-.4-.1-.1.1-.2.1-.3.1s-.1-.1-.2 0c0-.1-.2.1-.2 0 0-.1-.1 0-.1-.1 0 0-.1 0-.1-.1 0-.1 0-.1 0-.2v-.1c-.1 0-.2.1-.2 0l.1-.1c0 0 .1 0 .1-.1.1 0 0-.1.1-.1.1 0 0-.2 0-.2 0-.1-.2-.1-.3-.1 0 0-.2 0-.2.1-.1 0-.1.1-.1.1-.1.1-.2.1-.2.2-.1.1-.3.2-.3.4 0-.1 0-.1 0-.2 0-.2.2-.3.3-.4.1-.1.1-.3.1-.4v-.1c0 0 .1-.1.2-.1.1 0 .2-.1.3-.1.1 0 .3-.1.5-.1.1-.1.3-.1.3-.2 0 0 .2 0 .2-.1.1 0 .1-.1.2-.1.1-.1.1-.3.2-.4 0-.1.1-.1.1-.1.1 0 .2-.1.2-.1.1 0 0 0 .1-.1 0 .1 0 .1-.1.2 0 .2-.1.3-.1.5 0 .1 0 .2 0 .3 0 .1.1.1.1.2-.2.1-.1.2-.2.3 0 0 0 0 0 .1s.1 0 .1 0c0 .1-.1.2 0 .3.1 0 .2 0 .2-.1.2 0 .3-.1.4-.2 0 .1 0 .2.1.3 0 0 .1.1.1 0 .2 0 .2-.3.3-.4 0 0 0-.1.1-.1.1.1 0 .2.1.3h.1v-.1c.1-.1.1.1.2.1 0-.1 0-.1 0-.2 0 0 0-.2-.1-.1v-.1c0-.1-.1 0-.1 0v-.1c-.1-.1-.2-.1-.2-.3h-.1c-.1 0-.2 0-.2.1h-.1-.1c-.1 0-.2-.2-.3-.2l-.1.1c-.1-.1 0-.3 0-.5-.1-.1-.1-.2 0-.2 0-.1 0 0 0-.1-.1 0-.1.1-.2.1l.1-.1v-.1l-.1-.1c0-.1 0-.2 0-.3.1 0 .1-.2-.1-.2-.1 0-.1 0-.2 0-.1 0-.1 0-.1.1-.1 0-.1-.1-.2-.1 0 0-.1.1-.1 0 .1 0 .2-.1.1-.2h-.1c-.1 0-.1 0-.2.1-.1-.1-.2-.1-.3-.1 0 0-.1 0-.1-.1-.2-.2-.5-.1-.7-.3 0-.1.1-.1.1-.2 0-.1-.1-.1-.2-.1s-.1-.2-.1-.2c0-.1-.1 0-.1-.1-.1 0-.1-.1-.2-.2s-.1-.1-.2-.2v-.1c-.1-.1-.1-.1-.2-.1 0 0 .1-.1 0-.1 0-.1-.1-.1-.2-.2 0-.1-.1-.1-.2-.1 0-.1 0-.1-.1-.2v-.1c0-.1-.1 0-.1 0l-.1.1c0 .1 0 .2 0 .3-.2.1 0 .5 0 .7-.2.1-.1.3-.3.3l-.2-.3c-.1 0-.1 0-.2-.1-.1 0-.1 0-.2.1 0 0 0 .1-.1.1v-.1c-.2 3.1.3 6.3 1.4 9.3.1.2.2.4.2.6 0 0 0 0 0-.1 0-.1 0-.1 0-.1.1-.1 0-.4-.1-.4h-.1c-.1 0 0-.2-.1-.3.1 0 0 .3.1.2l.1-.1c0-.1-.1-.3 0-.4 0-.1-.1-.1-.1-.1.2-.1.2-.4.1-.6.1-.1.2-.1.2-.1v-.1c.1 0 .2 0 .3-.1 0-.1.1-.1.1-.2 0-.1.1-.1.1-.2.1 0 .2-.1.2-.2 0-.1-.1 0-.1 0h-.1v-.1c0-.1-.1-.1-.1-.2 0-.2.2-.3.3-.5 0-.1.1-.1.2-.2s.1-.1.2-.2c0 0 0-.1.1-.1 0-.1-.1-.1 0-.1.1 0 .1 0 .1-.1.1-.1.1-.1.2-.2h.1c-.1 0-.1.1-.1.1-.1 0-.1.1-.2.2s-.1.3.1.4c0 .1.1.1.2.1.2-.1.1-.3.2-.5.1 0 .1 0 .1 0 .1 0 .2-.1.2-.1.1-.1.1-.2.2-.3.3-.3.4-.5.3-.5m-.8-3.5c.1.1 0 .1 0 .1-.1 0-.1.1-.1.1s0-.2.1-.2m27.3-20.5c0 0 .1 0 0 0 .2 0 .3.2.4.1h.1c0 0 .1-.2 0-.2v-.1c-.2-.1-.3-.2-.5-.3-.1.2-.2.4 0 .5m-2.4 1.7c0 .1.1.1.1.2h.1c.1 0 .1-.1.2-.1.1-.2.2-.5-.1-.5 0-.1-.2 0-.2 0-.1 0-.1.2 0 .3-.1 0-.1.1-.1.1m-8.2 3.1c.1 0 0-.1.1-.2 0-.1.1-.2.1-.3l-.1-.1c0 0 0 0-.1 0-.1.1 0 .2 0 .3 0 .2-.1.3 0 .3m-17.6 6.3c0-.1-.1-.1-.1-.1s-.1.1 0 .2c0-.1 0-.1.1-.1m7.9.2c.2 0 .4-.2.7-.2 0 0 0 0 0 .1 0 0-.1.1 0 .1.1 0 .1-.1.1 0-.1.1-.3.1-.4.2h-.1c-.1 0-.1.1-.1.2 0 0 .1 0 .2-.1h.1c.1.1.2.1.3.2 0 0 .1.1 0 .1-.1 0-.3.1-.2.2h.1.1c.1 0 .2 0 .3 0 .2-.1.3.1.6 0 0 0 .2 0 .2-.1v-.1c0-.1.2-.2.3-.2.1-.1.1-.2.1-.3 0 0 .1 0 .1-.1.2 0 .2-.2.1-.3 0-.1 0-.2.1-.3l.1-.1c0-.1-.1-.1-.1-.2s-.1-.1-.2-.2h-.1-.1c0-.1 0-.1-.1-.1 0 0-.1 0-.1-.1 0-.1.1-.1 0-.2-.1 0-.1.1-.2.2h-.1c-.1 0-.1-.1-.1-.1l-.1.1c-.1.1 0 .1 0 .2-.1.1-.2.1-.1.2h-.1-.1c0 .1.1.1 0 .2 0 0-.1 0-.1-.1-.1-.1-.3 0-.2.2 0 .1-.1 0-.1 0h-.1c-.2 0-.1.1 0 .2h-.1c0 .1 0 .1 0 .2-.1-.1-.1-.3-.3-.3-.1-.1-.1-.1-.2-.1-.1-.1-.2 0-.2.1l.1.1c-.1 0-.1 0-.1.1 0 .1.1.1.1.2-.1 0-.1 0-.2 0 0 0-.1 0-.1.1s.1 0 .1.1c.2-.3.1-.2.2-.1m13.5-.9c.1 0 0-.2 0-.2h-.1c0 0-.1.1 0 .2h.1m-5.7 6.5c.1 0 .1-.1.2-.2.1 0 .2-.1.2-.2v-.1c0 0 0-.1.1-.1 0 .1.2 0 .2 0 0-.1.1-.1.2-.2.2-.1.6-.2.5-.4h-.1-.1c.1-.1.1-.2.1-.2v-.1c0-.1-.1-.1-.2-.1-.1 0-.2 0-.3 0v-.1c0-.1-.1-.1-.1-.1-.1-.1-.1-.2-.2-.3-.1-.1-.4-.1-.5-.3-.1-.1-.1-.2-.2-.3-.1-.1-.2 0-.3-.1.1-.1.1-.3.1-.5.1-.1.1-.3-.1-.2-.1 0-.2 0-.3 0s-.1.1-.2.1l-.1.1c0-.2.1-.3.1-.4.1 0 0-.2 0-.2h-.1c-.1.1-.3.1-.4.2-.1 0-.1.1 0 .2-.1.1.1.1.1.2s-.2.1 0 .3v.1c-.1 0-.1-.1-.1-.1-.1.1 0 .3.1.4 0 0 .1 0 .1-.1.1 0 0 .1 0 .2s0 .1 0 .1c.1 0 .1-.1.2-.1 0 0 .1 0 .1.1 0 0 0 0 .1 0 0 .1 0 .1.1.2s0 .2.1.2c0 .1.2.1.3 0l.1-.1c.1.1.1.3.3.3.1.2 0 .3-.2.4h-.1c-.1 0 0 .2 0 .2 0 0 .1 0 .2 0 0 .2-.2.3-.2.4.1.1.4 0 .5 0l-.1.1c-.1.1-.1.2-.1.3 0 .1-.1.2-.1.3 0 .2.1.2.1.1m5.6-6.2c0 .1.1.1.1.1.1 0 .2-.2.2-.3 0-.1-.2-.1-.2 0-.1 0-.2.1-.1.2m-7.3 3.1c0-.1.1-.1.1-.2v-.1c0-.1.1-.2 0-.2l-.1.1c-.1.1-.1.1-.1.2-.1.1 0 .2.1.2m6.6-2.2c0 .1.1.1.2.1 0-.1.1-.3.1-.5v-.1c-.1 0-.1.1-.2.1-.1 0-.1.1-.1.2-.1.1 0 .2 0 .2m-1.4 1c-.1.1-.1.1-.2.2 0 .1-.3.1-.2.2.1.1.3.1.4.2.1 0 .1-.1.1-.1v-.1h-.1c0-.1.2-.4 0-.4m-4.1 3.3v-.1c0 0 0-.1 0-.2v-.1l-.1-.1c0-.1 0-.2 0-.2s0-.2-.1-.2c-.1 0-.2 0-.3.1 0 0-.1 0-.2.1-.1.1-.1.2-.2.3h.1c.1.1-.2.1-.2.2h-.1c-.1 0-.1.1-.1.1.1.1.2 0 .3.1 0 .1-.1.1-.1.2h.1c.1 0 .2-.1.2 0v.1c0 .1 0 .2.1.2l-.1.1-.1.1c0 0 0 .1.1.1 0 .1.1.1.2.1.1 0 .2 0 .3-.1.1-.1.2-.2.2-.3.1-.1.2-.1.2-.1h.1v-.1c-.3-.2-.3-.3-.3-.3m-14.6 6.6c-.1 0-.2 0-.3.1-.1 0 0 .1 0 .1.1 0 .3 0 .4 0 .1 0 .2 0 .3 0 .1-.2-.1-.2-.4-.2m1 1c0 .1-.1.3 0 .4.1 0 .1-.1.1-.1.3-.1.1-.3-.1-.3m19.1-4.7c.1-.1.1-.2.1-.3 0-.1-.1-.3-.1-.3-.1.1-.2.2-.2.3 0 0 0 0 0 .1s.1.2.1.2 0 0 0 .1c0-.1.1 0 .1-.1m2.2 1c.1-.1-.1-.3-.1-.4 0 0 0 0 0-.1-.1 0-.2.1-.2.1-.1 0-.2.1-.3.1h-.2c0 0-.1.1 0 .1.2.1.5.1.7.1 0 .1.1.1.1.1m-.2.2c.1.1.2.1.2 0 0 0-.1 0-.2 0m5.1-1.4c.1-.1.3-.1.3-.2 0-.1 0-.2 0-.2-.2.1-.2.2-.4.3-.1 0 0 .1.1.1m-2.5.6c-.1 0-.1.1-.1.1s.1 0 .2 0c0 .1.1-.1.1 0h.1c0 .1.2 0 .2 0s.2 0 .2-.1c0 0 .1 0 .1-.1 0 0 0-.1-.1-.1h-.1c-.1 0-.1 0-.2 0 0-.1-.1 0-.1 0h-.1c-.1.2-.2.2-.2.2m-22.8 9.5c-.1 0-.1.1-.1.1 0 .1 0 .2.1.1v-.1-.1c.1.1 0 .1 0 0m30.8-9.4c-.2 0-.1.2.1.1l-.1-.1c.1.1.1 0 0 0m-32.1 13.8c0 .1.1.1.1.2h.1c0-.2-.1-.2-.2-.2m1.5.2c.1 0 .1-.1.1-.1.1 0 .1 0 .2-.1 0 0 .1 0 .2 0v-.1c-.2-.1-.3-.2-.5-.2h-.1c-.1 0-.2.1-.3.1-.1 0-.1 0-.2.1-.1 0-.2 0-.3.1h-.1v.1c0 .1.1.1.1.1l.2.1h-.1c-.1 0-.2 0-.2.1v.1c.1 0 .2 0 .3-.1h.1c0 0 0-.1-.1-.1.1 0 .4.1.5-.1h.1c0 .1.1.1.1 0m1.8-.6c0 .1 0 .1.1.2.1 0 0-.2-.1-.2m.3.2c.1 0 .1 0 .2-.1v-.1c-.1 0-.2.1-.2.2m.5.4c0 0 0-.1 0-.2-.2 0-.2.3 0 .2m9.9-3.5c.2 0 .2-.1.1-.1-.1 0-.1.1-.1.1m-9.7 3.8c-.1-.1-.2 0-.1.1 0 0 .1 0 .1-.1m0 .2h-.1v.1c.1 0 .1-.1.1-.1m-.1.4c.1 0 .1-.1.1-.1 0 0-.1 0-.1.1m.7.3c0-.2-.1-.2-.1-.1v.1c0 .1 0 .1.1 0m37.2-13c0-.1-.1-.1-.2-.1 0-.1-.1 0-.1-.1s-.1-.1-.2-.1c-.1 0 0 .2-.1.2 0 .1.1.1.1.2v.1c0 .1 0 .2.1.2 0 .1 0 .1.1.2 0 .1.1 0 .1.1.1.1.3 0 .3-.1.1-.1.1-.1.2-.2-.2-.2-.2-.3-.3-.4m-2 1.8c-.1 0 0 .1 0 .1.1 0 .1 0 .1-.1.1 0 0-.1-.1 0m-16.5 6.3c-.1 0-.1.1-.1.2.1.1.2-.1.1-.2m-.2.9c-.1-.1-.1 0-.1.1s.2 0 .1-.1m13.1-3.5c0 0-.1 0 0 0l-.1.1c0 .1.1.1.2.1l-.1-.2c.1 0 0 0 0 0m-2.4 3.2c-.1-.1-.3 0-.2.1.1 0 .1.1.2 0 .1 0 .1-.1 0-.1m2.3 2.8c0-.1 0-.3 0-.4s0-.1 0-.1v-.1c0-.1 0-.3 0-.4 0-.1 0-.1 0-.2 0-.1 0-.2 0-.3 0-.1 0-.1 0-.2s0-.3 0-.4c0-.1-.1-.2-.1-.2h.1c0-.2-.2-.4-.2-.5s-.1-.1-.1-.1c-.1-.1-.1-.1-.2-.1 0-.1-.2-.1-.3 0 0 0 0 .2.1.2.1.1 0 .2-.1.2-.1.1 0 .2-.1.2-.1.1 0 .2 0 .2-.1.1-.1.1-.2.2 0 .2-.3 0-.3.2-.1-.1-.2 0-.2.1 0 .1-.1.2 0 .3 0 .1.1.2.1.3 0 .1.1.1.1.2.1.1.2.2.2.3-.1.2-.2.4-.2.6 0 .1 0 .1.1.2.1 0 .1.1.1.1.1 0 .1.1.1.2s.1.2.1.2 0 0 0 .1c.1 0 .1.1.2 0 .1 0 .1.1.2.1.2-.2.4-.3.5-.6.1-.1.1-.2.1-.3m-31.8.6c0 .1.1.1.2 0 0-.1-.2-.1-.2 0m33.6-2.2c-.2 0-.2.1-.2.1v.1c.1 0 .1 0 .2 0 0-.1.1-.1 0-.2m.3-.3c-.1.1 0 .2.2.1 0 0 0-.1 0-.2-.1.1-.1.1-.2.1"/><path d="m-384.5 394.1c0-1.3-.1-2.5-.3-3.8 0-.2-.1-.4-.1-.6-.3-1.3-.6-2.6-1.1-3.8 0-.1-.1-.3-.2-.4-.5-1.3-1.1-2.5-1.8-3.6-.1-.1-.1-.2-.2-.3-.7-1.2-1.6-2.2-2.5-3.2-.1-.1-.1-.2-.2-.2-1-1-2-1.9-3.1-2.7-.1-.1-.2-.1-.2-.2-1.1-.8-2.3-1.5-3.6-2.1-.1 0-.2-.1-.2-.1-1.3-.6-2.6-1.1-4-1.4-.1 0-.2 0-.2-.1-1.3-.3-2.7-.5-4.2-.6-.1 0-.2 0-.2 0-.4 0-.8 0-1.2 0-1 0-2 .1-3 .2-.1 0-.2 0-.3 0-1.9.3-3.8.8-5.5 1.5h-.1c-.1 0-.1.1-.2.1-.1 0-.2.1-.3.1s-.2.1-.3.1c-.1.1-.3.1-.4.2-.2.1-.4.2-.5.3-.4.2-.7.4-1.1.6-.7.4-1.4.9-2 1.3-.1 0-.1.1-.2.1-.1.1-.2.2-.4.3-1 .8-1.9 1.6-2.7 2.5-.1.1-.1.1-.2.2-.9 1-1.8 2.1-2.5 3.3 0 .1-.1.1-.1.2-.7 1.2-1.3 2.4-1.9 3.7 0 .1-.1.2-.1.2-.5 1.3-.9 2.6-1.1 4 0 .1 0 .2-.1.3-.2 1.3-.3 2.6-.3 4v.1c0 .1 0 .3 0 .4 0 1.3.2 2.6.4 3.9 0 .2.1.4.1.5.3 1.3.7 2.5 1.1 3.7.1.2.1.4.2.6.5 1.2 1.1 2.4 1.8 3.5.1.2.2.4.4.5.4.6.8 1.2 1.3 1.7.1.2.3.3.4.5.1.1.2.2.2.3.1.1.2.3.4.4.2.2.4.4.6.6.9.9 1.8 1.7 2.8 2.4.3.2.5.4.8.6 1 .6 2 1.2 3.1 1.7.2.1.4.2.7.3.4.2.9.3 1.3.5.7.3 1.5.5 2.3.7.5.1.9.2 1.4.3 1 .2 2 .3 3.1.3.3 0 .7 0 1 0 .9 0 1.9-.1 2.8-.2.2 0 .4-.1.6-.1 3.2-.5 6.1-1.5 8.7-3.1.3-.2.6-.4.9-.5 0 0 .1 0 .1-.1.3-.2.6-.4.8-.6.6-.4 1.2-.9 1.7-1.4 1.2-1.1 2.4-2.4 3.4-3.7.3-.5.7-.9 1-1.4.2-.3.4-.6.6-1 .3-.6.6-1.2.9-1.8.2-.4.3-.8.5-1.2.4-1.1.7-2.1 1-3.3.1-.3.1-.7.2-1 .2-1.2.3-2.3.3-3.6 0-.2 0-.4 0-.5-.3.1-.3 0-.3-.1m-.2.5c0 .1-.1.2-.2.3 0-1.3-.2-2.7-.4-4 .1-.1.2-.3.3-.4.3 1.4.4 2.8.3 4.1m-.8 5c-.2.2-.4.5-.7.7.2-1.2.3-2.5.2-3.7v-.1c.3-.3.6-.6.9-.8 0 1.3-.1 2.6-.4 3.9m-3.9 8.6c-.2.2-.4.3-.6.5.4-.7.8-1.5 1.1-2.3.1-.2.1-.4.2-.5.4-.3.7-.5 1-.7v.1c-.5.9-1 1.9-1.7 2.9m-1.1 1.4c.1-.1.2-.2.2-.4.1-.1.2-.1.2-.2-.1.2-.3.4-.4.6m-25 6.6c.2 0 .3 0 .5 0 .2.1.4.2.6.3.1.1.3.1.4.2-.5-.2-1-.3-1.5-.5m-4.5-2.3c-1.1-.8-2-1.6-3-2.5.4 0 .9 0 1.5-.1.9 1 1.8 1.8 2.8 2.6-.5.1-.9.1-1.3 0m-9.1-10c.2.1.4.1.6.1.1 0 .2 0 .3 0 .5 1.3 1.2 2.5 1.9 3.7-.1 0-.1 0-.2 0-.3 0-.6-.1-.8-.2-.6-1.2-1.3-2.4-1.8-3.6m-1.9-9.2c0-1.3.1-2.7.3-4 .2 0 .4.1.6.1.1 0 .1 0 .2 0-.2 1.4-.3 2.8-.2 4.3-.1 0-.2 0-.2 0-.3 0-.5 0-.6-.1-.1-.2-.1-.3-.1-.3m9.4-19c0 0 .1 0 .2 0-.8.8-1.5 1.7-2.2 2.7-.3.1-.5.1-.7.2.8-1.1 1.7-2.1 2.7-2.9m.7-.2c-.7.8-1.3 1.6-1.9 2.5-.2.1-.4.1-.6.2.7-1 1.5-1.9 2.3-2.7.2.1.2 0 .2 0m32.8 26.3c-.6.4-1.2.8-1.8 1.1-.1 0-.1.1-.2.1.1-1.2 0-2.4-.1-3.7.1-.1.3-.2.4-.2.7-.4 1.3-.8 1.8-1.2.1 1.4 0 2.7-.1 3.9m-11.2 13.8v.1-.1c-.1.1-.3.1-.4.2-.3-.3-.5-.8-.8-1.3.8-.3 1.5-.6 2.2-.9.1.6.1 1.2 0 1.7-.4 0-.7.2-1 .3m-10 1.7c-.1 0-.3 0-.4 0 .1 0 .1 0 .2 0 0 0 .1 0 .2 0m-3.1-1.3c-.1 0-.2-.1-.2-.1.6-.1 1.3-.3 2-.5.1.1.3.2.4.3.7.4 1.4.8 2.1 1-.5.1-1 .2-1.5.3-.9-.2-1.9-.6-2.8-1m-17.3-25.3c.5 0 1-.1 1.6-.2-.2 1.4-.2 2.9-.1 4.3-.7.1-1.2.2-1.7.2 0-1.4.1-2.9.2-4.3m13.4-18.1c.4 0 .9.2 1.4.4-.2.1-.5.2-.7.3-.3-.3-.5-.5-.7-.7m26 30.6c-.8.5-1.6 1-2.5 1.4-.1-1.1-.2-2.2-.4-3.3 0-.1 0-.2 0-.2 1-.5 1.9-1 2.8-1.6.1 1.3.1 2.5.1 3.7m-5.6 6.9c0 .8 0 1.4-.1 2-.7.3-1.4.7-2.1 1-.1-.6-.2-1.2-.3-1.7 0-.1-.1-.2-.1-.3.9-.4 1.8-.8 2.7-1.2-.1.1-.1.1-.1.2m-31.9-19.7c.5-.1 1-.2 1.5-.4.1 0 .2 0 .2-.1 0 1.4 0 2.8.2 4.3-.1 0-.2.1-.3.1-.6.2-1.2.3-1.7.4-.1-1.4 0-2.8.1-4.3m21.2-16.1c-.5.3-1.1.6-1.7.8-.9-.6-1.7-1.2-2.6-1.6.4-.2.8-.4 1.1-.6 1.1.4 2.2.9 3.2 1.4m13.1 27.1c.2 1.2.3 2.3.4 3.4-.9.5-1.9 1-2.9 1.5-.2-1-.4-2.1-.7-3.2 0-.1 0-.1-.1-.2 1.1-.5 2.2-1.1 3.2-1.6.1 0 .1 0 .1.1m-9.4 8.2c1.1-.5 2.3-.9 3.3-1.4.3 1 .5 1.9.7 2.7-.9.4-1.9.8-2.9 1.2-.3-.7-.7-1.6-1.1-2.5m-22.9-19.6c.8-.2 1.6-.4 2.5-.7.1 1.4.2 2.8.4 4.2-1 .3-1.9.6-2.8.8-.1-1.5-.1-2.9-.1-4.3m28.9 13.1c.3 1.2.5 2.3.7 3.3-1 .5-2.1 1-3.2 1.5-.3-1-.6-2-1-3.1 0-.1 0-.1-.1-.2 1.2-.5 2.4-1.1 3.6-1.6 0 0 0 .1 0 .1m-15.9-17.6c1.2-.5 2.3-.9 3.4-1.4.6 1.2 1.2 2.4 1.8 3.7-1.2.5-2.5 1-3.8 1.6-.4-1.4-.9-2.7-1.4-3.9m5.3 2.5c.6 1.3 1.2 2.6 1.8 4-1.3.6-2.6 1.1-4 1.7-.5-1.4-1.1-2.7-1.6-4.1 1.3-.5 2.6-1.1 3.8-1.6m1.9 4.2c.6 1.3 1.1 2.7 1.7 4.1-1.3.6-2.7 1.1-4.1 1.7-.6-1.4-1.1-2.8-1.6-4.1 1.4-.6 2.7-1.1 4-1.7m5.9 2.5c.5 1.4 1 2.7 1.5 4-1.2.6-2.5 1.2-3.8 1.7-.5-1.3-1-2.6-1.6-4 1.4-.6 2.7-1.1 3.9-1.7m-4 1.5c-.6-1.4-1.1-2.7-1.7-4.1 1.3-.6 2.6-1.1 3.8-1.7.6 1.3 1.2 2.6 1.8 4-1.2.6-2.5 1.2-3.9 1.8m-.1.3c.5 1.4 1.1 2.7 1.6 4-1.3.6-2.6 1.1-4 1.7-.5-1.3-1.1-2.6-1.6-3.9 1.4-.7 2.7-1.2 4-1.8m1.6 4.2c.5 1.3.9 2.5 1.3 3.7-1.2.5-2.4 1-3.7 1.6-.5-1.2-1-2.4-1.6-3.6 1.4-.6 2.8-1.1 4-1.7m.3-.1c1.3-.6 2.6-1.1 3.8-1.7.4 1.3.8 2.6 1.1 3.8-1.1.5-2.3 1.1-3.6 1.6-.4-1.2-.8-2.4-1.3-3.7m2.5-6c1.2-.6 2.4-1.2 3.6-1.8.5 1.4 1 2.7 1.4 4-1.1.6-2.3 1.2-3.5 1.7-.5-1.2-1-2.6-1.5-3.9m-.1-.3c-.6-1.4-1.1-2.7-1.8-4 1.2-.6 2.4-1.1 3.5-1.7.7 1.3 1.3 2.6 1.8 4-1.1.6-2.3 1.1-3.5 1.7m-1.9-4.2c-.6-1.3-1.3-2.6-2-3.9 1.2-.5 2.3-1.1 3.3-1.6.8 1.2 1.5 2.5 2.2 3.8-1.1.5-2.3 1.1-3.5 1.7m-.2.1c-1.2.6-2.5 1.1-3.8 1.7-.6-1.4-1.2-2.7-1.8-4 1.3-.5 2.5-1.1 3.6-1.6.7 1.3 1.3 2.6 2 3.9m-5.8-2.5c-.6-1.3-1.2-2.5-1.8-3.7 1.1-.5 2.2-1 3.3-1.4.7 1.1 1.5 2.3 2.1 3.6-1.1.4-2.3 1-3.6 1.5m-1.9-3.9c-.6-1.1-1.2-2.3-1.7-3.3 1-.4 1.9-.8 2.8-1.2.7 1 1.5 2 2.2 3.1-1.1.4-2.2.9-3.3 1.4m-.2 0c-1.1.5-2.2.9-3.4 1.4-.4-1.2-.9-2.4-1.3-3.5 1-.4 2-.8 2.9-1.2.6 1.1 1.2 2.2 1.8 3.3m-2.1 5.6c-1.3.5-2.5 1-3.7 1.4-.4-1.4-.8-2.7-1.1-4 1.1-.4 2.2-.9 3.4-1.3.4 1.3.9 2.6 1.4 3.9m-3.9 1.6c-1.2.5-2.4.9-3.6 1.3-.3-1.4-.6-2.8-.7-4.1 1-.4 2.1-.7 3.2-1.2.3 1.3.6 2.6 1.1 4m0 .2c.4 1.4.9 2.7 1.4 4.1-1.3.5-2.6.9-3.8 1.3-.4-1.4-.8-2.8-1.2-4.2 1.2-.3 2.4-.7 3.6-1.2m.3-.1c1.2-.5 2.5-.9 3.8-1.5.5 1.3 1 2.7 1.6 4.1-1.3.5-2.7 1-4 1.5-.6-1.3-1-2.7-1.4-4.1m5.4 2.9c.5 1.3 1.1 2.7 1.6 4.1-1.4.5-2.7 1.1-4 1.6-.6-1.4-1.1-2.7-1.6-4.1 1.3-.6 2.6-1.1 4-1.6m1.7 4.3c.6 1.4 1.1 2.7 1.6 3.9-1.3.5-2.7 1-4 1.5-.6-1.2-1.2-2.5-1.7-3.9 1.4-.4 2.8-1 4.1-1.5m1.8 4.2c.5 1.3 1 2.5 1.6 3.6-1.3.5-2.5 1-3.7 1.4-.6-1.1-1.2-2.3-1.8-3.5 1.2-.5 2.5-1 3.9-1.5m5.6 2.2c0 .1 0 .1.1.2.4 1.1.7 2.2 1 3.1-1.1.5-2.2.9-3.4 1.4-.4-.9-.9-1.9-1.3-3 0-.1-.1-.1-.1-.2 1.2-.5 2.5-1 3.7-1.5m2.8-5.9c1.2-.6 2.4-1.1 3.5-1.7.4 1.3.7 2.6.9 3.9-1 .5-2.1 1.1-3.3 1.6-.3-1.2-.7-2.5-1.1-3.8m2.2-6.1c1.1-.6 2.1-1.1 3.1-1.7.5 1.3 1 2.7 1.3 4-1 .6-2 1.1-3 1.7-.4-1.3-.8-2.7-1.4-4m-.1-.2c-.6-1.4-1.2-2.7-1.8-4 1.1-.5 2.1-1.1 3-1.6.7 1.3 1.3 2.6 1.9 3.9-1 .6-2 1.1-3.1 1.7m-1.9-4.2c-.7-1.3-1.4-2.6-2.2-3.8 1-.5 2-1 2.9-1.5.8 1.2 1.6 2.4 2.3 3.7-.9.5-1.9 1-3 1.6m-2.3-4c-.8-1.2-1.6-2.3-2.4-3.4.9-.4 1.8-.9 2.6-1.3 1 1 1.9 2.1 2.7 3.2-1 .5-1.9 1-2.9 1.5m-.2.1c-1.1.5-2.2 1.1-3.3 1.6-.7-1.2-1.4-2.4-2.1-3.6 1-.5 2-1 3-1.4.8 1.1 1.6 2.2 2.4 3.4m-5.6-2.2c-.7-1.1-1.4-2.1-2.2-3.1.9-.4 1.7-.8 2.5-1.2.9.9 1.8 1.9 2.6 2.9-.9.5-1.9.9-2.9 1.4m-2.4-3.3c-.1-.1-.2-.3-.3-.4-.5-.7-1.2-1.4-1.8-2.1.7-.3 1.3-.6 2-.9.8.6 1.5 1.2 2.3 1.9.1.1.2.2.3.3-.7.4-1.6.8-2.5 1.2m-.5-.3c.1.1.2.3.3.4-.9.4-1.8.8-2.7 1.2-.1-.1-.2-.3-.2-.4-.5-.9-.9-1.6-1.3-2.3.8-.3 1.5-.6 2.2-1 .5.6 1.1 1.3 1.7 2.1m-2.9 1.3c.1.1.2.3.2.4-.9.4-1.9.8-2.9 1.2-.1-.2-.1-.3-.2-.5-.3-.9-.6-1.8-.9-2.6.8-.3 1.5-.6 2.3-.9.6.8 1 1.5 1.5 2.4m-1.5 5.4c-1.1.5-2.3.9-3.4 1.3-.3-1.3-.6-2.5-.8-3.7.9-.3 1.9-.7 2.9-1.1.4 1.2.9 2.3 1.3 3.5m-3.6 1.4c-1.1.4-2.2.8-3.2 1.1-.2-1.3-.3-2.6-.3-3.8.9-.3 1.8-.6 2.7-1 .2 1.2.5 2.5.8 3.7m-3.4 1.3c-.1 0-.1 0-.2.1-1 .3-1.9.6-2.7.9 0-1.3 0-2.7.1-4 .8-.2 1.6-.5 2.5-.8 0 1.2.1 2.5.3 3.8m-3.2 1c-.9.3-1.7.5-2.5.7.1-1.4.2-2.7.5-4.1.7-.2 1.4-.4 2.1-.6-.1 1.3-.1 2.6-.1 4m.3.2c.9-.3 1.8-.6 2.8-.9h.1c.2 1.4.4 2.7.7 4.1-.1 0-.1 0-.2.1-1.1.4-2.1.7-3 1-.2-1.5-.3-2.9-.4-4.3m3.6 3.4c.1 0 .1 0 .2-.1.3 1.4.7 2.8 1.2 4.2-.1 0-.1 0-.2.1-1.2.4-2.2.7-3.2 1-.4-1.4-.7-2.8-1-4.2.8-.3 1.9-.6 3-1m1.1 4.5c.1 0 .1 0 .2-.1.4 1.4.9 2.7 1.5 4.1-.1 0-.1 0-.2.1-1.2.4-2.3.7-3.3 1-.6-1.4-1-2.7-1.4-4.1 1-.3 2.1-.6 3.2-1m.5-.2c1.2-.4 2.5-.9 3.8-1.3.5 1.4 1 2.7 1.6 4.1-1.3.5-2.6.9-3.9 1.3-.6-1.3-1.1-2.7-1.5-4.1m5.4 3c.6 1.4 1.1 2.7 1.7 3.9-1.3.5-2.6.9-3.8 1.3-.6-1.2-1.2-2.5-1.8-3.9 1.3-.3 2.6-.8 3.9-1.3m1.9 4.2c.6 1.2 1.2 2.4 1.8 3.5-1.2.4-2.4.8-3.6 1.2-.7-1.1-1.3-2.2-2-3.4 1.2-.4 2.5-.9 3.8-1.3m1.9 3.7c0 .1.1.1.1.2.6 1 1.1 2 1.7 2.8-1.1.4-2.2.8-3.2 1.1-.7-.9-1.4-1.8-2.1-2.9 1-.3 2.2-.8 3.5-1.2m.3.1c0-.1-.1-.1-.1-.2 1.2-.4 2.5-.9 3.7-1.4 0 .1.1.1.1.2.5 1.1.9 2.1 1.3 3-1.1.5-2.3.9-3.4 1.3-.5-.9-1-1.9-1.6-2.9m8.9.2c1.1-.5 2.2-1 3.2-1.5.2 1 .3 2 .3 2.9-.9.4-1.8.8-2.7 1.3-.2-.8-.5-1.7-.8-2.7m5.2-11.1c1-.6 2.1-1.1 3-1.7.3 1.3.6 2.7.7 3.9-.9.5-1.8 1.1-2.8 1.6-.2-1.2-.5-2.5-.9-3.8m1.8-6.1c.1-.1.3-.2.4-.2.8-.5 1.5-.9 2.1-1.3.5 1.3.9 2.7 1.3 4-.7.4-1.4.9-2.1 1.3-.1.1-.2.1-.3.2-.4-1.3-.8-2.6-1.4-4m.3-.4c-.1.1-.2.1-.4.2-.5-1.4-1.2-2.7-1.9-3.9.1-.1.3-.1.4-.2.8-.4 1.5-.8 2.1-1.2.7 1.2 1.4 2.5 1.9 3.9-.6.3-1.3.7-2.1 1.2m-2-4.2c-.1.1-.2.1-.4.2-.7-1.3-1.5-2.5-2.3-3.7.1-.1.2-.1.3-.2.7-.4 1.4-.8 2-1.1.9 1.1 1.7 2.3 2.5 3.6-.7.4-1.4.8-2.1 1.2m-2.5-3.8c-.1.1-.2.1-.4.2-.8-1.2-1.8-2.2-2.7-3.2.1 0 .2-.1.3-.1.7-.4 1.3-.7 1.8-1 1 1 2 2 2.9 3.1-.6.2-1.2.6-1.9 1m-2.9-3.4c-.1.1-.2.1-.3.2-.9-1-1.9-1.9-3-2.7.1 0 .1-.1.2-.1l.2-.1c.5-.3.9-.5 1.4-.7 1.1.7 2.2 1.6 3.2 2.5-.5.2-1.1.5-1.7.9m-.5.3c-.8.4-1.7.9-2.6 1.3-.8-1-1.7-2-2.6-2.9.8-.4 1.5-.8 2.2-1.1 1 .8 2 1.7 3 2.7m-5.4-1.8c-.1-.1-.3-.3-.4-.4-.7-.7-1.5-1.3-2.2-1.9.6-.3 1.2-.6 1.7-.9.9.5 1.8 1.1 2.7 1.7.1.1.3.2.4.3-.7.5-1.5.8-2.2 1.2m-3.1-2.3c-.6.3-1.3.6-1.9.9-.6-.7-1.3-1.3-2-1.9.5-.2.9-.4 1.3-.6.8.4 1.7.9 2.6 1.6m-2.2 1c-.7.3-1.4.6-2.1.9-.5-.8-.9-1.5-1.4-2.1.5-.2 1-.5 1.5-.7.7.5 1.3 1.2 2 1.9m-2.4 1c-.7.3-1.5.6-2.2.9-.3-.9-.5-1.7-.7-2.4.5-.2 1.1-.4 1.6-.7.4.7.8 1.4 1.3 2.2m-1.5 3.8c.1.2.1.3.2.5-1 .4-1.9.8-2.8 1.1 0-.2-.1-.3-.1-.5-.2-1-.3-1.9-.4-2.8.7-.3 1.5-.6 2.3-.9.2.9.5 1.7.8 2.6m-3 1.2c0 .2.1.3.1.5-.9.4-1.8.7-2.7 1 0-.2 0-.3 0-.5 0-1 0-2 .1-2.9.7-.2 1.4-.5 2.1-.8.1.8.2 1.7.4 2.7m-2.9 1c0 .2 0 .4 0 .6-.9.3-1.7.6-2.4.8 0-.2 0-.3.1-.5.1-1.1.3-2.1.6-3.1.6-.2 1.2-.4 1.9-.6-.1.8-.2 1.8-.2 2.8m-2.6.9c0 .2 0 .4-.1.6-.7.2-1.4.4-2.1.6 0-.2.1-.3.1-.5.2-1.1.6-2.2 1-3.2.5-.1 1.1-.3 1.6-.5-.2.9-.4 1.9-.5 3m-2.3.6c0 .2-.1.4-.1.6-.1 0-.2 0-.3.1-.4.1-.7.2-1.1.2.4-1.3.8-2.6 1.4-3.8.3-.1.6-.1.9-.2h.1c-.3 1-.6 2.1-.9 3.1m-.3 1c.1 0 .1 0 .2 0-.2 1.3-.4 2.7-.4 4.1-.1 0-.2.1-.3.1-.5.1-1 .2-1.4.3.2-1.4.4-2.8.8-4.2.3-.2.7-.2 1.1-.3m-.4 8.8c.1 0 .2 0 .3-.1.2 1.4.4 2.9.8 4.3-.1 0-.2.1-.4.1-.7.2-1.4.3-2 .4-.3-1.4-.5-2.8-.6-4.3.6-.1 1.2-.2 1.9-.4m.5-.1c.9-.2 1.8-.5 2.8-.8.2 1.4.6 2.8 1 4.2-1.1.3-2 .6-3 .8-.3-1.4-.6-2.8-.8-4.2m3.9 3.7c.4 1.4.9 2.8 1.4 4.1-1.1.3-2.1.6-3 .8-.5-1.3-1-2.7-1.4-4.1.9-.2 1.9-.5 3-.8m1.5 4.3c.6 1.3 1.2 2.6 1.8 3.8-1.1.3-2 .5-3 .7-.7-1.2-1.3-2.5-1.9-3.8 1-.1 2-.4 3.1-.7m.2 0c1-.3 2.1-.6 3.3-1 .1 0 .1 0 .2-.1.6 1.4 1.2 2.6 1.8 3.9-.1 0-.1 0-.2.1-1.2.4-2.3.7-3.3 1-.6-1.3-1.2-2.6-1.8-3.9m5.2 3c.1 0 .1 0 .2-.1.6 1.2 1.3 2.4 2 3.4h-.1c-1.1.3-2.1.7-3.1.9-.8-1-1.5-2.2-2.2-3.4 1-.1 2.1-.4 3.2-.8m2.1 3.7c.1 0 .1 0 .2-.1.7 1 1.4 2 2.1 2.9h-.1c-1 .3-1.9.6-2.8.8-.8-.8-1.6-1.8-2.4-2.8 1-.2 2-.5 3-.8m2.3 3c.1 0 .1 0 .2-.1.7.8 1.4 1.6 2.1 2.2-.9.3-1.7.5-2.5.7-.9-.6-1.7-1.3-2.5-2.1.9-.1 1.8-.4 2.7-.7m.5-.1c1-.3 2.1-.7 3.2-1.1.6.9 1.1 1.7 1.7 2.4-.9.3-1.8.6-2.7.9-.8-.6-1.5-1.4-2.2-2.2m3.4-1.2c1.1-.4 2.2-.8 3.3-1.3.4.9.8 1.8 1.2 2.5-1 .4-1.9.8-2.9 1.1-.5-.6-1-1.4-1.6-2.3m4.6 1.5c0 .1.1.2.1.3.3.6.6 1.1.8 1.6-.8.3-1.5.6-2.2.9-.4-.4-.9-.9-1.3-1.4-.1-.1-.1-.1-.2-.2.9-.4 1.9-.8 2.8-1.2m.4.2c0-.1-.1-.2-.1-.3 1-.4 1.9-.8 2.8-1.2 0 .1 0 .2.1.3.1.6.3 1.2.4 1.8-.7.3-1.5.6-2.3.9-.3-.3-.6-.9-.9-1.5m5.5-6.1c1-.5 2-1 2.9-1.5 0 1.1 0 2.2-.1 3.1-.8.4-1.6.8-2.5 1.3 0-.8-.1-1.8-.3-2.9m3.2-1.6c.9-.5 1.7-.9 2.5-1.4-.1 1.2-.2 2.3-.5 3.3-.7.4-1.4.8-2.1 1.2.1-.9.1-2 .1-3.1m1.8-9.7c.1-.1.3-.2.4-.2.7-.4 1.4-.8 2-1.2.3 1.3.5 2.7.6 4-.6.4-1.3.8-2 1.2-.1.1-.2.1-.3.2-.1-1.4-.3-2.7-.7-4m1.3-5.9c.7-.5 1.3-.9 1.8-1.3.5 1.3.9 2.7 1.2 4.1-.5.4-1.1.8-1.7 1.2-.3-1.3-.8-2.7-1.3-4m-.1-.3c-.5-1.3-1.2-2.6-1.9-3.8.7-.4 1.3-.8 1.8-1.2.7 1.2 1.4 2.5 1.9 3.8-.5.4-1.1.8-1.8 1.2m-2-4c-.7-1.2-1.6-2.4-2.5-3.6.6-.4 1.2-.8 1.7-1.1.9 1.1 1.8 2.2 2.5 3.5-.4.4-1 .8-1.7 1.2m-2.6-3.8c-.9-1.1-1.9-2.1-2.9-3.1.6-.3 1.1-.7 1.6-1 1.1.9 2.1 1.9 3.1 3-.6.4-1.2.8-1.8 1.1m-3.1-3.3c-1-.9-2.1-1.8-3.2-2.5.5-.3 1-.5 1.3-.8 1.2.7 2.4 1.5 3.4 2.4-.4.3-.9.6-1.5.9m-3.5-2.6c-.2-.1-.4-.2-.6-.4-.9-.6-1.9-1.1-2.9-1.5.4-.2.7-.4 1-.6 1.1.4 2.2.8 3.2 1.4.2.1.4.2.5.3-.2.2-.7.5-1.2.8m-.7-.2c.2.1.3.2.5.3-.4.2-.8.4-1.2.7l-.3.1c-.1.1-.2.1-.3.2-.2-.1-.3-.2-.5-.4-.8-.6-1.7-1.2-2.6-1.7 0 0 .1 0 .1-.1l.4-.2c.3-.2.6-.3.8-.4 1.1.4 2.2.9 3.1 1.5m-3.9-1.3l-.4.2c-.1 0-.2.1-.3.1-1-.5-2-1-3-1.3l.4-.2c.2-.1.3-.2.5-.2 1.2.3 2.3.6 3.5 1.1-.3.1-.5.2-.7.3m-3.5-1.4l-.4.2c-.1 0-.1.1-.2.1-.9-.3-1.9-.5-2.8-.6.1 0 .1-.1.1-.1.1 0 .1-.1.2-.1 1.1 0 2.2.1 3.3.3 0 .1-.1.2-.2.2m-.9.5c-.3.2-.7.4-1.1.5-.8-.4-1.6-.7-2.3-.9.2-.1.3-.2.5-.2.9.1 1.9.3 2.9.6m-3.7-.2c.8.2 1.5.5 2.4.8-.4.2-.8.4-1.2.6-.6-.5-1.1-.8-1.7-1.1.1-.1.3-.2.5-.3m-.1-.2c-.4-.1-.7-.1-1.1-.2.5 0 .9 0 1.4 0 0 0-.2.1-.3.2m.9 1.7c-.5.2-1 .4-1.5.6-.1-.1-.2-.3-.3-.4-.3-.4-.5-.7-.8-1 .3-.1.5-.2.8-.4.6.4 1.2.8 1.8 1.2m-1.9.4c.1.1.2.2.2.3-.5.2-1 .4-1.5.6 0-.1-.1-.3-.1-.4-.1-.5-.2-.9-.3-1.3.3-.1.6-.2.9-.4.2.5.5.9.8 1.2m-.7 3.7c-.8.3-1.5.6-2.2.9-.1-1-.1-1.8-.1-2.6.5-.2 1-.4 1.6-.6.1.7.4 1.5.7 2.3m-2.5 1c-.7.3-1.4.5-2.1.8.1-1 .3-2 .5-2.8.5-.2 1-.4 1.5-.6 0 .8 0 1.6.1 2.6m-2.3.9c-.6.2-1.3.4-1.9.6.3-1.1.6-2.1 1.1-3 .4-.1.8-.3 1.3-.5-.3.9-.4 1.9-.5 2.9m-2.2.7c-.6.2-1.1.3-1.6.5.4-1.1.9-2.1 1.5-3.1.3-.1.7-.2 1.1-.4-.4.9-.7 1.9-1 3m-1.9.5c-.1 0-.2 0-.2.1-.2.1-.5.1-.7.2.5-1.1 1.1-2.2 1.8-3.1.2 0 .4-.1.6-.2-.6.9-1.1 2-1.5 3m-1.2.4c-.4.1-.8.1-1.1.2.6-1.1 1.4-2.2 2.2-3.2.2 0 .4-.1.7-.1-.7.9-1.3 2-1.8 3.1m-.1.2c-.5 1.2-1 2.5-1.4 3.8-.6.1-1 .2-1.4.2.1-.1.1-.3.2-.4.4-1.2.9-2.3 1.5-3.4.3 0 .6-.1 1.1-.2m-1.5 4.1c-.4 1.3-.6 2.7-.8 4.2-.6.1-1.2.2-1.6.2.2-1.4.5-2.8 1-4.2.4-.1.9-.1 1.4-.2m-.9 8.9c.1 1.4.3 2.9.6 4.3-.7.1-1.2.2-1.7.2-.3-1.4-.5-2.8-.5-4.2.3-.1.9-.1 1.6-.3m.6 4.6c.3 1.4.7 2.8 1.3 4.1-.7.1-1.2.1-1.7.1-.5-1.3-1-2.7-1.3-4 .4-.1 1-.1 1.7-.2m.2-.1c.6-.1 1.2-.2 2-.4.1 0 .2-.1.4-.1.4 1.4.8 2.8 1.4 4.1-.1 0-.2.1-.3.1-.8.2-1.5.3-2.1.4-.7-1.3-1.1-2.7-1.4-4.1m3.4 4c.1 0 .3-.1.4-.1.6 1.3 1.2 2.6 1.9 3.8-.1 0-.2 0-.3.1-.8.2-1.4.3-2 .4-.7-1.2-1.4-2.4-1.9-3.7.5-.2 1.1-.4 1.9-.5m2 4c.1 0 .3-.1.4-.1.7 1.2 1.5 2.3 2.3 3.3-.1 0-.2 0-.3.1-.7.1-1.4.3-1.9.3-.9-1-1.7-2.1-2.5-3.2.6-.2 1.3-.3 2-.4m.7-.2c.9-.2 1.9-.5 3-.7.7 1.2 1.4 2.3 2.2 3.4-1 .3-1.9.5-2.8.7-.9-1.1-1.7-2.2-2.4-3.4m5.3 2.8c.8 1 1.6 1.9 2.4 2.8-.9.2-1.7.4-2.5.6-.9-.8-1.8-1.7-2.7-2.7.9-.2 1.8-.4 2.8-.7m2.6 3c.8.8 1.6 1.5 2.5 2.1-.7.2-1.4.3-2.1.5-1-.5-1.9-1.2-2.9-2 .8-.2 1.6-.4 2.5-.6m3.3 2.3c-.1 0-.1-.1-.2-.1.8-.2 1.6-.4 2.4-.7.1.1.2.2.3.3.6.5 1.1.9 1.7 1.2-.6.2-1.3.4-1.9.5-.8-.3-1.6-.7-2.3-1.2m2.6-.7c-.1-.1-.1-.1-.2-.2.9-.3 1.7-.6 2.7-.9.1.1.2.2.2.3.4.5.9 1 1.3 1.4-.7.2-1.4.5-2 .7-.7-.4-1.3-.8-2-1.3m4.2.7c.5.5 1 .8 1.4 1-.3.1-.6.2-1 .3-.8-.1-1.6-.3-2.4-.6.7-.2 1.3-.4 2-.7m.3-.1c.7-.3 1.4-.5 2.2-.8.3.5.6 1 .8 1.3-.5.2-1 .3-1.4.5-.6-.1-1.1-.5-1.6-1m4.8-1.9c.7-.3 1.4-.6 2-.9-.1.8-.4 1.5-.7 2-.4.2-.8.4-1.3.6.1-.5.1-1.1 0-1.7m2.3-1.1c.6-.3 1.2-.6 1.7-.9-.4.9-1 1.7-1.6 2.3-.2.1-.5.3-.7.4.3-.4.5-1 .6-1.8m0-.2c.1-.6.1-1.2.1-1.9 0-.1 0-.3 0-.4.8-.4 1.6-.8 2.4-1.2 0 .1 0 .2 0 .3-.1.8-.4 1.6-.7 2.3-.5.2-1.1.5-1.8.9m2.8-3.3c0-.1 0-.3.1-.5.7-.4 1.4-.8 2-1.2 0 .1 0 .2-.1.3-.3.9-.6 1.8-1 2.6-.5.3-1 .6-1.6.9.2-.6.4-1.3.6-2.1m1.5 1.2c.2-.2.5-.3.7-.5-.3.5-.6.9-1 1.3-.4.3-.7.7-1.1 1 .4-.5.8-1.1 1.1-1.6.1-.1.2-.1.3-.2m-.1-.2c.4-.7.6-1.5.9-2.2 0-.2.1-.3.1-.5.1-.1.2-.1.3-.2.5-.3.9-.6 1.3-.8 0 .1-.1.1-.1.2-.4 1-.8 1.9-1.4 2.8-.4.2-.8.4-1.1.7m1.1-3.2c0 0 0 .1 0 0 .1-1 .3-2.1.4-3.2.1-.1.2-.1.3-.2.6-.4 1.1-.7 1.6-1-.2 1.2-.4 2.4-.8 3.5-.4.3-1 .6-1.5.9m2.1-13c.6-.4 1.2-.8 1.7-1.2.3 1.3.4 2.7.4 4.1-.5.4-1 .8-1.6 1.2 0-1.5-.2-2.8-.5-4.1m2-1.4c.4-.3.7-.6 1-.9.2 1.4.4 2.7.4 4.1-.2.3-.5.6-.9.9-.1-1.4-.2-2.8-.5-4.1m-.1-.3c-.3-1.4-.7-2.8-1.2-4.1.1-.1.2-.2.3-.3.3-.3.5-.5.7-.7.5 1.3.9 2.7 1.2 4.1-.2.3-.6.7-1 1m-1-4.5c-.1.1-.2.1-.2.2-.5-1.3-1.2-2.5-1.9-3.7.4-.3.8-.6 1.1-.9.7 1.2 1.4 2.4 1.9 3.7-.3.1-.6.4-.9.7m-2.3-3.8c-.8-1.2-1.6-2.4-2.5-3.5.4-.3.8-.6 1-.9.9 1.1 1.8 2.2 2.6 3.4-.3.4-.7.7-1.1 1m-2.7-3.6c-.9-1.1-2-2.1-3-3 .4-.3.7-.5.9-.7 1 .8 2 1.7 2.9 2.6.1.1.2.2.2.3-.2.2-.6.5-1 .8m-3.2-3.2c-1.1-.9-2.2-1.7-3.4-2.4.3-.2.6-.4.8-.6 1.2.6 2.4 1.4 3.6 2.3-.4.2-.7.5-1 .7m-3.7-2.5c-.2-.1-.4-.2-.7-.4-1-.5-2-1-3-1.3.2-.2.4-.3.6-.4 1.1.3 2.2.7 3.3 1.2.2.1.4.2.6.3-.2.2-.5.4-.8.6m-4-1.7c-1.2-.4-2.5-.7-3.8-.9.1-.1.2-.2.3-.2 1.4.1 2.7.4 4.1.8-.2 0-.4.1-.6.3m-.3.1c-.3.2-.6.4-1 .6-1.1-.5-2.3-.8-3.5-1.1.2-.1.4-.2.6-.4 1.4.2 2.7.5 3.9.9m-4.8-.6c-1.1-.2-2.2-.4-3.2-.4l.1-.1c1.2-.1 2.5 0 3.7.1-.2.2-.4.3-.6.4m-3.7-.4c-.2 0-.3 0-.4 0 .1 0 .3 0 .4 0m-.6.2c-.1.1-.2.1-.2.1-.3 0-.6 0-.8 0 .3 0 .7 0 1-.1m-1.4.7c-.2.1-.3.1-.5.2-.3-.2-.7-.3-1-.4.6.1 1 .1 1.5.2m-1.7.8c-.2.1-.5.2-.8.3-.1-.4-.2-.8-.1-1 .3.1.6.4.9.7m-.6 1.9c0 .1.1.3.1.4-.5.2-1 .4-1.5.6 0-.1 0-.3 0-.4 0-.6.1-1.1.2-1.5.3-.1.5-.2.8-.3.2.3.3.7.4 1.2m-1.6.6c0 .2 0 .4 0 .6-.5.2-1 .4-1.4.5 0-.2.1-.3.1-.5.2-.6.4-1.2.7-1.7.2-.1.5-.2.7-.3 0 .4 0 .8-.1 1.4m-1.5.5c-.1.2-.1.4-.2.7-.4.2-.8.3-1.2.4.4-.9.9-1.7 1.4-2.4.2-.1.4-.1.6-.2-.2.5-.4 1-.6 1.5m-.4-1.1c-.5.7-1 1.5-1.4 2.4-.4.1-.7.2-1 .3.6-.9 1.2-1.8 2-2.6.1-.1.3-.1.4-.1m0-.3c.3-.3.6-.6 1-.9-.2.2-.5.5-.7.8-.1 0-.2.1-.3.1m-4.7 3.5c-.1 0-.2 0-.2 0 .2-.2.4-.5.7-.7.5-.6 1.1-1.1 1.7-1.6-.8.8-1.6 1.5-2.2 2.3m-.2.3c-.8 1-1.5 2.1-2.1 3.2-.2 0-.3 0-.4 0 .7-1.1 1.5-2.2 2.4-3.2-.1 0 0 0 .1 0m-2.3 3.4c-.6 1-1.1 2.1-1.5 3.3-.1.2-.1.4-.2.5-.3 0-.5 0-.6 0 .1-.2.1-.3.2-.5.5-1.1 1-2.3 1.7-3.3.1 0 .3 0 .4 0m-1.7 4.1c-.4 1.4-.8 2.8-1 4.2-.1 0-.1 0-.2 0-.2 0-.4 0-.5-.1.2-1.4.6-2.8 1.1-4.2.1.1.4.1.6.1m-1.4 9c.1 0 .2 0 .2 0 .1 1.4.2 2.8.5 4.2-.1 0-.1 0-.2 0-.3 0-.5-.1-.7-.2-.3-1.4-.4-2.8-.5-4.2.2.1.4.2.7.2m.5 4.4c.1 0 .2 0 .3 0 .3 1.4.7 2.7 1.3 4-.1 0-.1 0-.2 0-.3 0-.6-.1-.8-.2-.5-1.3-.9-2.6-1.2-3.9.2.1.4.1.6.1m1.9 4.3c.5 0 1.1-.1 1.7-.1.5 1.3 1.2 2.6 1.9 3.7-.6.1-1.2.1-1.7.1-.7-1.1-1.3-2.4-1.9-3.7m3.8 3.8c.7 1.2 1.5 2.2 2.4 3.2-.6.1-1.1.1-1.5.1-.9-1-1.8-2-2.6-3.2.5.1 1.1 0 1.7-.1m2.9 3.5c.5-.1 1.1-.2 1.8-.3.1 0 .3-.1.4-.1.8 1 1.7 1.9 2.6 2.7-.1 0-.1 0-.2 0-.7.1-1.3.2-1.8.3-.9-.8-1.9-1.7-2.8-2.6m4.7 2.5c.1 0 .2 0 .4-.1.9.8 1.8 1.4 2.8 2-.6.1-1.1.2-1.6.2-1-.5-2.1-1.1-3-1.9.4 0 .9-.1 1.4-.2m2.2 2.5c-.1 0-.1-.1-.2-.1.4 0 .8-.1 1.2-.2.1 0 .2 0 .3-.1.2.1.3.2.5.3.8.4 1.5.7 2.3.9-.2 0-.5.1-.7.1-.4 0-.8-.1-1.2-.2-.7-.2-1.4-.4-2.2-.7m5.3 1.3h-.1c0 0 0 0 .1 0m0-.4c.4-.1.9-.2 1.4-.3.5.2 1.1.3 1.6.4-.6.1-1.2.1-1.9.1-.4-.1-.7-.2-1.1-.2m1.8-.5c.6-.2 1.2-.3 1.8-.5.7.3 1.4.5 2 .7-.5.1-1.1.2-1.6.3-.8-.1-1.5-.3-2.2-.5m13.4-5.4c.5-.3 1-.6 1.5-.8-.5.8-1 1.5-1.6 2.2-.3.3-.7.5-1.1.7.5-.6.9-1.3 1.2-2.1m5.2-5.9c.3-1.1.6-2.2.7-3.4.5-.4 1-.7 1.3-1-.2 1.2-.6 2.4-1 3.6-.2.2-.6.5-1 .8m.8-3.8c.1-1.2.2-2.5.1-3.8.6-.4 1.1-.8 1.6-1.1 0 1.3-.1 2.6-.3 3.9-.5.4-.9.7-1.4 1m1.7-15.5c.5 1.3.9 2.6 1.1 4 0 .2-.1.4-.2.6-.3-1.4-.7-2.7-1.2-4 .1-.3.2-.4.3-.6m-2-3.9c.7 1.2 1.3 2.4 1.8 3.6 0 .2-.1.4-.3.6-.5-1.2-1.1-2.5-1.9-3.6.2-.3.3-.5.4-.6m-2.7-3.6c.9 1 1.8 2.1 2.5 3.3 0 .2-.1.4-.3.6-.8-1.2-1.6-2.3-2.6-3.4.2-.1.3-.3.4-.5m-3.4-3c1 .8 2 1.6 2.9 2.5.1.1.2.2.3.3 0 .2-.1.4-.3.6-.1-.1-.2-.2-.2-.2-.9-.9-1.9-1.8-2.9-2.6.1-.3.2-.4.2-.6m-3.8-2.3c1.3.6 2.5 1.3 3.6 2.2 0 .1-.1.3-.3.5-1.1-.9-2.3-1.6-3.6-2.3.2-.2.3-.3.3-.4m-4.2-1.5c1.2.3 2.3.7 3.4 1.1.2.1.4.2.6.3 0 .1-.1.2-.2.4-.2-.1-.5-.2-.7-.3-1-.5-2.1-.9-3.2-1.2 0-.2.1-.3.1-.3m-4.4-.8c1.4.1 2.8.3 4.2.6 0 .1-.1.2-.2.2-1.3-.2-2.7-.5-4-.8m-1.2 0c.3 0 .6 0 .9 0l-.1.1c-.4 0-.7-.1-1.1-.1-.3 0-.7 0-1 0 .4 0 .9 0 1.3 0m-3.4.4c1.1-.1 2.1-.1 3.2-.1.3 0 .5 0 .8.1-.1.1-.2.1-.3.2-1.3-.2-2.5-.3-3.7-.2m-5.8 1.4c0 .3.1.6.2 1-.2.1-.5.2-.7.3.1-.5.3-.9.5-1.3m-.5.4c-.1.3-.3.6-.3 1-.2.1-.4.2-.6.2.2-.5.6-.9.9-1.2m-1.3 1.4c-.2.1-.3.1-.4.2.3-.4.7-.8 1.1-1.1-.3.2-.5.5-.7.9m-1.7.6c0-.1.1-.2.2-.2-.1 0-.2.1-.2.2m-.6.1c0 .1-.1.1 0 0s.2-.2.4-.3c-.2.1-.3.2-.4.3m-4.4 3.6c-.8 1-1.6 2-2.2 3.1h-.1c.6-1.1 1.4-2.2 2.3-3.1m-4.1 6.4c.5-1.1 1-2.1 1.6-3.2h.1c-.6 1.1-1.2 2.2-1.6 3.3-.1.2-.1.3-.2.5-.1 0-.1 0-.1-.1s.1-.3.2-.5m-.3.8c0 0 .1 0 .1.1-.5 1.3-.8 2.7-1.1 4.1-.1 0-.1-.1-.1-.1.2-1.4.6-2.8 1.1-4.1m-1.2 4.4c0 0 .1.1.2.1-.2 1.3-.3 2.7-.3 4.1v.1l-.1-.1v-.1c0-.1 0-.2 0-.4-.1-1.2 0-2.5.2-3.7m-.3 4.5l.1.1c0 1.4.2 2.7.4 4.1l-.1-.1c-.1-.1-.1-.2-.1-.3-.1-1.2-.2-2.5-.3-3.8m.6 4.5c.3 1.1.6 2.1.9 3-.4-1-.7-2-.9-3m5.8 10.7c-.2-.2-.4-.4-.6-.6-.5-.6-.9-1.2-1.4-1.8.2 0 .3.1.5.1.1 0 .2 0 .3 0 .7 1.1 1.6 2.2 2.5 3.2h-.1c-.2 0-.4-.1-.6-.2-.1-.1-.2-.2-.3-.3-.1-.1-.2-.2-.2-.2v-.1l-.1-.1m3.5 2.9h-.2c-.8-.5-1.5-1.1-2.2-1.8.1 0 .1 0 .2 0 .1 0 .2 0 .4 0 .1.1.1.1.2.2.8.9 1.7 1.6 2.7 2.3-.3-.2-.7-.4-1-.7-.1.1-.1.1-.1 0m3.8 2.2h-.2c-.6-.3-1.2-.7-1.7-1.1.4 0 .8 0 1.2-.1.9.7 1.9 1.3 2.9 1.8-.3 0-.6 0-.9 0-.2-.1-.5-.2-.7-.3-.2-.1-.3-.1-.5-.2l-.1-.1c0 .1 0 0 0 0m3.8 1.6c.1 0 .1 0 .2 0-.1.1-.1.1-.2 0m.7.2c.3.1.5.1.8.2-.3-.1-.5-.1-.8-.2m25.4-11.2c.1-.2.2-.4.3-.7.1-.2.1-.3.2-.5.1-.1.2-.2.3-.3-.3.5-.5 1-.8 1.5m1.5-3.2c-.1.4-.2.7-.4 1-.1.2-.3.3-.5.5.4-1.1.7-2.3.9-3.5.3-.2.5-.4.7-.6-.1.9-.4 1.8-.7 2.6m1.3-4.4c.1-1 .2-1.9.2-2.9.1-.1.1-.1.1-.2 0 1.1-.1 2.1-.3 3.1"/></g><path d="m-186.2 388c2.1.5 4.4.1 5.8-.9.7-.5 1.4-2.2.4-2.9-.4-.3-1.2-.3-1.7-.4-.4.2-1.2.1-1.7.2-1.2.3-2.9.8-3.3 2-.3.4-.1.8-.1 1.2.2.3.4.5.6.8m-71-3.2c-.5-.4-3.1-.2-4-.2-.4 0-1-.1-1.2.1-.3 0-.3.1-.5.2 0 .2 0 .3-.1.4 0 .5 0 1 0 1.5.3.6 1.3.6 1.5 1.3.4.7-.4 3.5-.6 4.1-.5 1.7-.6 3.4-1 5 0 .4-.1.7-.1 1.1-.5 1.7-1 3.7-1.2 5.5-.5-.3-.5-2.8-.7-3.6-.8-3-1-6.3-1.8-9.4-.2-.7-.5-2.7-.2-3.1.2-.5.7-.7 1.1-.9 0-.6.3-1.6-.1-2-.3-.5-1.6-.3-2.3-.3-2.3 0-4.6 0-6.9 0-.1.1-.2.1-.4.2 0 .1-.1.3-.2.4 0 .6 0 1.2 0 1.9.3.5 1.2.7 1.4 1.3s.1 1.1.3 1.7c.3 1.1.5 2.5.8 3.6.4 1.6.4 3 .8 4.6 1 3.7 1.4 7.9 2.4 11.7.6 2.3.5 5.2 1.6 7.1.9 0 3.9.2 4.4-.1.1 0 .1 0 .2 0 1.2-5.2 1.8-10.6 3.2-15.7.6-2.1.7-4.3 1.2-6.2.4-1.7.5-3.3 1-4.9.2-.8.1-1.7.5-2.3.3-.2.7-.5 1-.7 0-.6.2-1.9-.1-2.3m65.2 24.5c-.7.5-.6 1.6-.9 2.5-.3.8-.7 1.6-1.1 2.3-.7.2-1.2.2-2 .2v-.1h-.1c.2-3 .1-6.4.1-9.5 0-5.5 0-11 0-16.5.5-.5.9-.8 1.6-1.1.2-.8.1-1.5 0-2.3-.8-.4-2.2-.3-3.4-.3-2.2 0-4.3 0-6.5 0-.1.1-.4.1-.4.2-.5.3-.3 1.5-.3 2.1.4.4 1.2.7 1.4 1.2.2.3.1 1.3.1 1.8 0 1.5 0 2.9 0 4.4 0 4.7 0 9.3 0 14 0 1.4.3 4.6-.3 5.4-.2.4-1 .7-1.3.9-.1.5-.2 1.2.1 1.6 0 .1.1.2.1.3 1 .2 2.4.1 3.6.1 2.3 0 4.6 0 6.9 0 .8 0 3.3.2 3.7-.1.7-.3.4-1.2.6-2 .3-1.4.8-3.8.6-5.3-.7 0-1.9-.2-2.5.2m-48.2 4.2c0-4.5 0-9.1 0-13.6 0-2.3.3-5.1-.4-6.8-1.2-2.8-4.3-3.9-8.3-3.9-.5.3-1.9.2-2.5.4-2.1.7-3.9 1.8-4.7 3.7-.1.3-.2.8-.3 1.2-.2.7.1 1.5.3 1.9 1 2.5 4.5 1.1 6 .1.1-.5.2-1 .4-1.5 0-.5 0-1 0-1.5.1-.5.5-.8.8-1.2.6-.1 1.2-.3 1.6.1.2.1.3.2.4.4 0 .2 0 .3.1.4 0 1.5 0 3 0 4.5-.1.2-.7.2-1 .4-.9.4-1.8.7-2.9 1.2-2.9 1.2-5.3 2.5-6.1 5.9 0 .5-.1 1.1-.1 1.6-.7 3.2.3 8.1 2 9.4 2.7 2 6.5.5 7.9-1.7.5.3.9 1.6 1.5 2 .9.6 3.3.9 4.7.4.5-.1.8-.5 1.2-.6.5-1.4.4-2.2-.6-2.8m-6.7-3.2c0 1-.5 3-1.7 2.2-1.2-.1-1.2-1.8-1.2-3.1 0-2.1-.4-6.2.5-7.7.5-.8 1.5-1 2.2-1.7.1 0 .1.1.2.1 0 3.4 0 6.8 0 10.2m27.6 3c0-4.8 0-9.7 0-14.5 0-2.4.4-5.9-.5-7.5-.8-1.3-2-2.1-4-2.1-.5.3-1.4.2-2 .4-1.1.5-2.3 1.4-2.9 2.4-.1 0-.1 0-.2 0 0-.8.1-1.9-.2-2.5-.3 0-.1-.1-.3 0-1.6 0-3.2 0-4.8 0-.8 0-1.8-.1-2.3.2-.1.2 0 .1-.1.2 0 .5 0 1.1 0 1.6.2.4.9.5 1.1 1.1 0 6.9 0 13.7 0 20.6-.2.7-.8.8-1.1 1.3-.2.4-.1 1.2-.1 1.7.1.1.2.2.3.4 2 0 3.9 0 5.9 0 .6 0 1.9.2 2.3-.1.1 0 .2-.1.3-.1.4-1.8-.1-2.2-1-3 0-5.3 0-10.6 0-15.9 0-1 0-2.1 0-3.1.2-.4 1.7-1.1 2.3-.6 1.1.4.7 4.3.7 5.9 0 3.4 0 6.8 0 10.2 0 1.3-.3 4.3.1 5.3.2.5.7 1 1 1.4 1.4 0 5.5.3 6.4-.2 0-.8.2-1.7-.2-2.3-.2-.3-.6-.4-.7-.8m60.8-.1c0-4.7 0-9.3 0-14 0-2.2.4-6-.4-7.6-1.8-3.8-7.2-2.4-9 .4-.1 0-.2 0-.3 0 0-.7.1-1.7-.1-2.3-.9-.4-3.9-.1-5.5-.1-.6 0-1.5-.1-1.9.2-.3.3-.2 1.1-.2 1.7.3.3.9.6 1.1 1.1 0 1.4 0 2.9 0 4.3 0 3.8 0 7.5 0 11.3 0 1.2 0 2.4 0 3.7 0 .4.1 1.1-.1 1.4-.1.9-.4.6-.8 1.1-.2.2-.3 1.6-.2 1.8 0 .3.1.3.2.5 1.9 0 3.8 0 5.7 0 .9 0 2.1.1 2.8-.2.2-.5.1-1.3.1-2-.4-.4-.7-.8-1.1-1.2 0-6.3 0-12.5 0-18.8.3-.7 1.5-.9 2.4-.8.1.1.2.2.4.3.4 1.5.3 3.7.3 5.6 0 3.3 0 6.6 0 9.9 0 1.7-.3 4.8.3 6.1.2.4.6.7.8 1.1 1.4 0 5.5.3 6.4-.2.1-.7.2-1.9-.2-2.4-.2-.4-.6-.5-.7-.9m16.9-5.3c-.4.9-.2 2.4-.5 3.5-.3.9-.8 1.5-1.3 2.1-.3.3-1.4 1-2 .6-.9 0-1.5-1-1.8-1.7-.1-.3 0-.7-.2-.9 0-2 0-4 0-6.1 0-.9-.1-2.1.1-2.9 1.9.1 4.2.1 6.2.1.6 0 1.9.2 2.3-.1.1 0 .2-.1.3-.1 0-6.8-1.2-13.4-7.9-13.4-.5.3-1.7.3-2.3.5-1.3.5-2.6 1.7-3.4 2.8-2.9 4.1-3.6 13.4-1.3 18.8.7 1.7 2 3.4 3.5 4.4.6.4 1.6.8 2.4 1.1.6.2 1.6.2 2.1.1.5 0 1-.1 1.5-.1 2.1-.6 3.2-1.9 4.3-3.6.5-.8 1.8-3.9.9-5.1-.6-.4-2.1-.1-2.9 0m-5.8-12.9c0-.8 0-1.5 0-2.3.1-.3.4-.6.6-.8.2 0 .3 0 .4-.1.3 0 .6.1.8.3 1 .4.6 4.6.6 6.1 0 .5-.1 1.4.1 1.7 0 .1-.1.2-.1.3-.6 0-2 .2-2.4-.1-.1 0-.1 0-.2 0 .2-1.6.2-3.4.2-5.1m23.5 12.6c-.9-3.4-2.2-6-3.9-8.6-1-1.5-2-3.2-2.8-4.9-.3-.6-.6-1.8.2-2.1.7-.3 1.3.5 1.5.8.7.7 2.1 3.3 2.8 3.6.2.2 1 .3 1.3.1.4 0 .4-.1.6-.3 0-2.5-1-4.5-1.2-6.8-.4-.2-1.2-.3-1.6 0-.4.1-.5.5-.6.9-1.4-.1-2-1-3.7-1.1-.4.2-1 .2-1.4.4-.7.3-1.6 1.1-2 1.8-2.5 4 .3 10 2 12.9.5.8.8 1.7 1.3 2.5.9 1.4 1.9 2.9 2.5 4.5.2.5.5 1.7.1 2.2-.1.2-.2.2-.4.4-2 0-3.2-3-4-4.4-.7-.1-1.4 0-2 .1-.1.1 0 0-.1.1-.3 1.8.8 5 1.1 6.9.3.2 1.2.5 1.7.2.6-.1.6-.6.7-1.2 1.3-.1 2.5 1.9 4.8 1.1 2.4-.9 4-5.2 3.1-9.1m-55.6-12.4c0-1.3 0-2.6 0-3.9 0-.4.1-1.2-.1-1.5-.1-.2-.5-.2-.7-.3-.3.2-1.1.1-1.6.1-1.2 0-2.4 0-3.7 0-.5 0-1.2-.1-1.5.1-.2.1-.3.6-.3 1 0 .3 0 .7.1.9.1.5.7.9 1.1 1.2 0 .2 0 .3.1.4 0 6.9 0 13.7 0 20.6-.1.3-.7.3-.9.5-.4.4-.3 1.6-.2 2.3h.1v.1c2 0 4 0 6 0 .9 0 2.1.1 2.7-.2 0-.7 0-1.3 0-2-.3-.3-.7-.6-1.1-.9 0-6.2 0-12.3 0-18.4" style="fill:#f69321"/><g style="fill:#273875"><path d="m-462 429.6c.9-.2 2.1-.3 3.3-.3 1.6 0 2.7.3 3.6 1.1.7.6 1.1 1.4 1.1 2.4 0 1.9-1.6 3.4-3.3 3.8v.1c1.4.4 2.5 1.6 2.5 3.4 0 1.6-.8 2.8-1.9 3.6-1.2.9-2.9 1.3-5 1.3-1.3 0-2.5-.1-3.2-.2l2.9-15.2m-.7 13.7c.5.1 1 .1 1.6.1 2.2 0 4.4-.9 4.4-3.4 0-1.8-1.5-2.6-3.3-2.6h-1.6l-1.1 5.9m1.4-7.3h1.4c2.2 0 3.9-1.1 3.9-3 0-1.5-1.1-2.1-2.8-2.1-.7 0-1.3.1-1.6.1l-.9 5"/><path d="m-442.8 444.2c-.8.5-2.2.9-3.7.9-2.9 0-4.2-2-4.2-4.5 0-3.3 2.5-7.1 6.1-7.1 2.1 0 3.3 1.2 3.3 2.8 0 2.9-3.3 3.7-7.4 3.6-.1.5 0 1.5.2 2.1.4 1 1.3 1.5 2.5 1.5 1.3 0 2.3-.4 3-.8l.2 1.5m-2.1-9.2c-1.8 0-3.2 1.8-3.6 3.5 3 0 5.3-.4 5.3-2.1 0-.9-.7-1.4-1.7-1.4"/><path d="m-417.9 444.9l1.1-8.3c.2-1.5.5-3.7.8-5.2h-.1c-.7 1.6-1.6 3.4-2.4 5l-4.6 8.5h-1.4l-1.1-8.3c-.2-1.8-.4-3.6-.5-5.2-.3 1.4-.8 3.8-1.2 5.2l-2.1 8.3h-1.8l4-15.4h2.4l1.2 8.9c.1 1.3.3 2.7.4 3.9h.1c.5-1.1 1.1-2.5 1.8-3.8l4.8-8.9h2.5l-2 15.4-1.9-.1"/><path d="m-400.1 438.2c0 3.4-2.4 7-6.2 7-2.8 0-4.3-2.1-4.3-4.5 0-3.7 2.5-7 6.1-7 3-.2 4.4 2.1 4.4 4.5m-8.5 2.3c0 1.8 1 3.1 2.6 3.1 2.2 0 3.9-2.9 3.9-5.5 0-1.3-.6-3.1-2.6-3.1-2.4 0-4 2.9-3.9 5.5"/><path d="m-394.2 433.8l1 6.3c.1 1.3.3 2.1.3 2.7h.1c.2-.6.5-1.3 1.2-2.6l3.4-6.4h2.1l-6.2 11.1h-1.9l-1.9-11.1h1.9"/><path d="m-376.2 444.2c-.8.5-2.2.9-3.7.9-2.9 0-4.2-2-4.2-4.5 0-3.3 2.5-7.1 6.1-7.1 2.1 0 3.3 1.2 3.3 2.8 0 2.9-3.3 3.7-7.4 3.6-.1.5 0 1.5.2 2.1.4 1 1.3 1.5 2.5 1.5 1.3 0 2.3-.4 3-.8l.2 1.5m-2.1-9.2c-1.8 0-3.2 1.8-3.6 3.5 3 0 5.3-.4 5.3-2.1 0-.9-.7-1.4-1.7-1.4"/><path d="m-359.7 428.6l-2.4 12.8c-.2 1.1-.4 2.4-.5 3.5h-1.7l.3-2.2c-1 1.6-2.4 2.5-4 2.5-2.2 0-3.3-1.8-3.3-4 0-3.9 2.9-7.5 6.9-7.5.7 0 1.5.1 1.9.4l1-5.3h1.8v-.2m-3.2 6.9c-.4-.3-1-.5-1.8-.5-2.7 0-4.7 2.8-4.7 5.8 0 1.3.5 2.7 2.1 2.7 1.5 0 3.2-1.7 3.7-4.1l.7-3.9"/><path d="m-347.1 429.6c.9-.2 2.1-.3 3.3-.3 1.6 0 2.7.3 3.6 1.1.7.6 1.1 1.4 1.1 2.4 0 1.9-1.6 3.4-3.3 3.8v.1c1.4.4 2.5 1.6 2.5 3.4 0 1.6-.8 2.8-1.9 3.6-1.2.9-2.9 1.3-5 1.3-1.3 0-2.5-.1-3.2-.2l2.9-15.2m-.7 13.7c.5.1 1 .1 1.6.1 2.2 0 4.4-.9 4.4-3.4 0-1.8-1.5-2.6-3.3-2.6h-1.6l-1.1 5.9m1.4-7.3h1.4c2.2 0 3.9-1.1 3.9-3 0-1.5-1.1-2.1-2.8-2.1-.7 0-1.3.1-1.6.1l-.9 5"/><path d="m-333.3 433.8l1.1 6c.2 1.3.4 2.1.5 2.9.3-.7.6-1.5 1.2-2.7l2.8-6.1h2l-4.1 8.4c-1.2 2.4-2.3 4.4-3.8 5.8-1.2 1.2-2.6 1.8-3.2 1.9l-.5-1.6c.5-.2 1.3-.5 2-1.1.7-.6 1.6-1.5 2.1-2.5.1-.2.1-.3.1-.5l-2.2-10.4h2v-.1"/><path d="m-301.7 435.5c0 2.7-1 5.6-2.8 7.5-1.4 1.4-3.2 2.2-5.3 2.2-4 0-5.9-3-5.9-6.3 0-2.7 1.1-5.8 2.9-7.6 1.3-1.3 3.2-2.1 5.2-2.1 4.2 0 5.9 3 5.9 6.3m-9.6-3.2c-1.5 1.5-2.3 4.2-2.3 6.3 0 2.5 1.1 4.8 4.1 4.8 1.3 0 2.6-.6 3.5-1.5 1.4-1.5 2.3-4.2 2.3-6.4 0-2.2-.7-4.8-4.1-4.8-1.4.1-2.6.7-3.5 1.6"/><path d="m-287.6 433.8l-1.5 7.9c-.3 1.2-.4 2.3-.5 3.2h-1.7l.3-2.1c-1 1.4-2.5 2.3-3.9 2.3s-2.9-.7-2.9-3.2c0-.5 0-1.1.2-1.9l1.2-6.3h1.9l-1.2 6.2c-.1.6-.2 1.1-.2 1.6 0 1.1.5 1.9 1.7 1.9 1.4 0 3.2-1.6 3.6-4.1l1.1-5.7h1.9v.2"/><path d="m-284.1 444.9l1.4-7.1c.3-1.4.5-2.9.6-3.9h1.7c-.1.8-.2 1.5-.3 2.4.7-1.5 1.9-2.7 3.4-2.7.2 0 .4 0 .5 0l-.4 1.9c-.1 0-.3 0-.5 0-1.6 0-3.1 2-3.6 4.6l-.9 4.9-1.9-.1"/><path d="m-264.3 429.6c.9-.2 2.1-.3 3.3-.3 1.4 0 2.9.3 3.9 1.2.7.7 1.1 1.7 1.1 2.8 0 1.7-.8 3.2-1.9 4.1-1.2 1-2.9 1.4-4.8 1.4-.5 0-1 0-1.5-.1l-1.2 6.2h-1.9l3-15.3m.4 7.5c.5.1 1 .2 1.4.2 3 0 4.4-1.8 4.4-3.8 0-1.8-1.2-2.6-3.2-2.6-.6 0-1.2.1-1.5.2l-1.1 6"/><path d="m-245.8 444.2c-.8.5-2.2.9-3.7.9-2.9 0-4.2-2-4.2-4.5 0-3.3 2.5-7.1 6.1-7.1 2.1 0 3.3 1.2 3.3 2.8 0 2.9-3.3 3.7-7.4 3.6-.1.5 0 1.5.2 2.1.4 1 1.3 1.5 2.5 1.5 1.3 0 2.3-.4 3-.8l.2 1.5m-2.1-9.2c-1.8 0-3.2 1.8-3.6 3.5 3 0 5.3-.4 5.3-2.1 0-.9-.7-1.4-1.7-1.4"/><path d="m-241.2 444.9l1.4-7.1c.3-1.4.5-2.9.6-3.9h1.7c-.1.8-.2 1.5-.3 2.4.7-1.5 1.9-2.7 3.4-2.7.2 0 .4 0 .5 0l-.4 1.9c-.1 0-.3 0-.5 0-1.6 0-3.1 2-3.6 4.6l-.9 4.9-1.9-.1"/><path d="m-230.8 444.9l1.8-9.6h-1.5l.3-1.5h1.5l.1-.6c.3-1.5.8-3 1.8-3.9.7-.6 1.7-1 2.6-1 .8 0 1.3.1 1.5.3l-.3 1.6c-.3-.1-.7-.2-1.1-.2-1.5 0-2.2 1.5-2.6 3.3l-.1.5h2.5l-.3 1.5h-2.5l-1.8 9.6c0 0-1.9 0-1.9 0"/><path d="m-211.6 438.2c0 3.4-2.4 7-6.2 7-2.8 0-4.3-2.1-4.3-4.5 0-3.7 2.5-7 6.1-7 3-.2 4.4 2.1 4.4 4.5m-8.6 2.3c0 1.8 1 3.1 2.6 3.1 2.2 0 3.9-2.9 3.9-5.5 0-1.3-.6-3.1-2.6-3.1-2.3 0-3.9 2.9-3.9 5.5"/><path d="m-208 444.9l1.4-7.1c.3-1.4.5-2.9.6-3.9h1.7c-.1.8-.2 1.5-.3 2.4.7-1.5 1.9-2.7 3.4-2.7.2 0 .4 0 .5 0l-.4 1.9c-.1 0-.3 0-.5 0-1.6 0-3.1 2-3.6 4.6l-.9 4.9-1.9-.1"/><path d="m-198.4 444.9l1.5-7.9c.2-1.2.4-2.3.5-3.2h1.7l-.3 2.1h.1c1-1.5 2.4-2.3 3.9-2.3 1.7 0 2.5 1.1 2.6 2.5 1-1.6 2.4-2.4 4.1-2.5 1.3 0 2.7.8 2.7 2.9 0 .5-.1 1.3-.2 1.9l-1.2 6.6h-2l1.2-6.4c.1-.5.2-1 .2-1.5 0-1.2-.4-1.9-1.7-1.9-1.4 0-3 1.6-3.5 4.1l-1.1 5.7h-1.8l1.2-6.5c.1-.5.2-.9.2-1.4 0-.9-.3-1.9-1.7-1.9-1.4 0-3.1 1.8-3.6 4.2l-1 5.6-1.8-.1"/><path d="m-170.3 444.9c0-.7.1-1.7.3-2.9h-.1c-1.2 2.3-2.7 3.1-4.3 3.1-2 0-3.2-1.5-3.2-3.6 0-3.9 2.8-7.9 7.7-7.9 1.1 0 2.2.2 3 .4l-1.1 5.8c-.4 1.9-.5 3.9-.5 5.1h-1.8m1.2-9.7c-.3-.1-.7-.2-1.3-.2-2.9 0-5.2 3-5.2 6.1 0 1.2.4 2.4 1.9 2.4 1.6 0 3.4-2.1 4-5l.6-3.3"/><path d="m-163.4 444.9l1.5-7.9c.3-1.2.4-2.3.5-3.2h1.7l-.3 2.2c1-1.6 2.5-2.4 4.1-2.4 1.3 0 2.8.7 2.8 3.1 0 .5-.1 1.2-.2 1.8l-1.2 6.5h-1.9l1.2-6.4c.1-.4.1-.9.1-1.4 0-1.1-.4-1.9-1.7-1.9-1.4 0-3.3 1.6-3.8 4.4l-1 5.4h-1.8v-.2"/><path d="m-141.2 444.4c-.6.3-1.7.7-3.2.7-2.9 0-4.3-1.9-4.3-4.3 0-3.8 2.8-7.3 6.8-7.3 1 0 2 .3 2.3.5l-.5 1.5c-.4-.2-1.1-.4-1.9-.4-2.9 0-4.7 2.8-4.7 5.5 0 1.8.9 3 2.8 3 1.1 0 2-.3 2.6-.6l.1 1.4"/><path d="m-129.1 444.2c-.8.5-2.2.9-3.7.9-2.9 0-4.2-2-4.2-4.5 0-3.3 2.5-7.1 6-7.1 2.1 0 3.3 1.2 3.3 2.8 0 2.9-3.3 3.7-7.4 3.6-.1.5 0 1.5.2 2.1.4 1 1.3 1.5 2.5 1.5 1.3 0 2.3-.4 3-.8l.3 1.5m-2.1-9.2c-1.8 0-3.2 1.8-3.6 3.5 3 0 5.3-.4 5.3-2.1 0-.9-.7-1.4-1.7-1.4"/></g></svg>