<?xml version="1.0" encoding="iso-8859-1"?>
<!-- Generator: Adobe Illustrator 18.1.1, SVG Export Plug-In . SVG Version: 6.00 Build 0)  -->
<svg version="1.1" id="Layer_1" xmlns="http://www.w3.org/2000/svg" xmlns:xlink="http://www.w3.org/1999/xlink" x="0px" y="0px"
	 viewBox="0 0 198.128 200" style="enable-background:new 0 0 198.128 200;" xml:space="preserve">
<g>
	<g>
		<linearGradient id="SVGID_1_" gradientUnits="userSpaceOnUse" x1="133.2046" y1="6.2006" x2="64.9244" y2="193.7989">
			<stop  offset="0" style="stop-color:#F5B047"/>
			<stop  offset="1" style="stop-color:#FFCF6E"/>
		</linearGradient>
		<path style="fill:url(#SVGID_1_);" d="M99.064,200c-1.362,0-2.663-0.316-3.663-0.892l-7.472-4.287
			c-0.864-0.494-2.332-0.827-3.648-0.827c-0.469,0-0.901,0.043-1.243,0.125l-8.381,2.007c-0.455,0.109-0.948,0.166-1.461,0.166
			c-2.084,0-4.269-0.876-5.568-2.229l-5.963-6.219c-0.963-1.003-3.105-1.983-4.495-2.053l-8.604-0.435
			c-2.367-0.121-5.073-1.859-6.164-3.96l-3.97-7.645c-0.641-1.236-2.422-2.779-3.736-3.237l-8.132-2.842
			c-2.235-0.781-4.344-3.212-4.799-5.535l-1.656-8.457c-0.266-1.366-1.539-3.348-2.671-4.159l-7.004-5.017
			c-1.924-1.378-3.26-4.305-3.043-6.664l0.793-8.578c0.13-1.386-0.534-3.645-1.39-4.743l-5.307-6.787
			c-1.46-1.866-1.917-5.051-1.041-7.251l3.178-8.008c0.513-1.294,0.513-3.651,0-4.943l-3.178-8.009
			c-0.875-2.199-0.416-5.386,1.041-7.251l5.307-6.788c0.856-1.096,1.52-3.356,1.39-4.742l-0.793-8.578
			c-0.217-2.358,1.119-5.286,3.042-6.664l7.006-5.019c1.131-0.811,2.405-2.792,2.671-4.157l1.656-8.457
			c0.457-2.325,2.563-4.756,4.799-5.535l8.134-2.842c1.313-0.46,3.094-2.003,3.734-3.237l3.97-7.645
			c1.091-2.102,3.799-3.842,6.164-3.961l8.604-0.436c1.39-0.07,3.532-1.049,4.495-2.053l5.963-6.217
			c1.299-1.354,3.484-2.229,5.568-2.229c0.513,0,1.006,0.056,1.461,0.165l8.381,2.007c0.344,0.082,0.774,0.126,1.244,0.126
			c1.316-0.001,2.784-0.334,3.648-0.829l7.472-4.286C96.402,0.316,97.703,0,99.064,0c1.36,0,2.661,0.316,3.663,0.889l7.474,4.287
			c0.865,0.495,2.332,0.829,3.648,0.829c0.472,0,0.9-0.044,1.242-0.126l8.381-2.007c0.456-0.109,0.949-0.165,1.462-0.165
			c2.084,0,4.269,0.875,5.566,2.229l5.964,6.217c0.963,1.004,3.106,1.982,4.496,2.053l8.605,0.436
			c2.364,0.119,5.071,1.859,6.163,3.961l3.97,7.645c0.642,1.234,2.422,2.778,3.735,3.237l8.134,2.842
			c2.237,0.781,4.343,3.213,4.798,5.535l1.655,8.457c0.267,1.364,1.541,3.345,2.674,4.157l7.002,5.019
			c1.925,1.38,3.262,4.308,3.042,6.665l-0.791,8.576c-0.13,1.386,0.533,3.647,1.39,4.742l5.307,6.788
			c1.459,1.864,1.917,5.051,1.042,7.251l-3.177,8.009c-0.514,1.293-0.514,3.648,0,4.943l3.177,8.008
			c0.876,2.202,0.417,5.386-1.042,7.251l-5.305,6.788c-0.858,1.097-1.521,3.357-1.392,4.741l0.793,8.58
			c0.219,2.357-1.119,5.286-3.043,6.665l-7.005,5.016c-1.13,0.812-2.404,2.793-2.671,4.159l-1.655,8.454
			c-0.455,2.323-2.561,4.754-4.796,5.538l-8.136,2.842c-1.312,0.458-3.092,2.001-3.736,3.237l-3.967,7.645
			c-1.092,2.101-3.799,3.839-6.164,3.96l-8.605,0.435c-1.39,0.07-3.533,1.05-4.496,2.053l-5.964,6.219
			c-1.297,1.353-3.483,2.229-5.566,2.229c-0.513,0-1.006-0.056-1.462-0.166l-8.379-2.007c-0.343-0.082-0.773-0.125-1.243-0.125
			c-1.318,0-2.786,0.332-3.651,0.828l-7.472,4.285C101.725,199.684,100.425,200,99.064,200L99.064,200z"/>
		<linearGradient id="SVGID_2_" gradientUnits="userSpaceOnUse" x1="132.6518" y1="192.2813" x2="65.4763" y2="7.7179">
			<stop  offset="0" style="stop-color:#DE6E00"/>
			<stop  offset="1" style="stop-color:#FFEB91"/>
		</linearGradient>
		<path style="fill:url(#SVGID_2_);" d="M193.01,103.065c-0.67-1.686-0.67-4.445,0-6.132l3.178-8.006
			c0.669-1.687,0.302-4.235-0.815-5.665l-5.306-6.788c-1.117-1.43-1.896-4.077-1.727-5.883l0.793-8.578
			c0.168-1.807-0.902-4.149-2.376-5.205l-7.005-5.02c-1.473-1.057-2.965-3.378-3.315-5.158l-1.655-8.456
			c-0.348-1.78-2.035-3.726-3.747-4.324l-8.135-2.842c-1.713-0.599-3.797-2.406-4.634-4.016l-3.97-7.646
			c-0.835-1.61-3.002-3.002-4.812-3.095l-8.606-0.435c-1.811-0.091-4.321-1.237-5.577-2.547l-5.963-6.217
			c-1.255-1.31-3.727-2.035-5.49-1.613l-8.38,2.007c-1.763,0.423-4.495,0.03-6.069-0.873l-7.474-4.286
			c-1.575-0.903-4.148-0.903-5.722,0L88.73,6.574c-1.574,0.903-4.305,1.296-6.068,0.873l-8.38-2.007
			c-1.764-0.422-4.235,0.303-5.491,1.613l-5.963,6.217c-1.256,1.309-3.765,2.456-5.576,2.547l-8.605,0.435
			c-1.812,0.093-3.978,1.485-4.814,3.095l-3.971,7.646c-0.835,1.61-2.921,3.416-4.633,4.016l-8.135,2.842
			c-1.713,0.598-3.398,2.544-3.747,4.324L21.69,46.63c-0.349,1.78-1.84,4.101-3.315,5.158l-7.003,5.02
			c-1.475,1.056-2.545,3.398-2.377,5.205l0.793,8.578c0.166,1.806-0.61,4.453-1.727,5.883l-5.306,6.788
			c-1.117,1.43-1.483,3.978-0.814,5.664l3.178,8.007c0.669,1.687,0.669,4.446,0,6.132l-3.178,8.008
			c-0.669,1.686-0.302,4.234,0.814,5.664l5.306,6.789c1.117,1.428,1.894,4.075,1.727,5.883l-0.793,8.579
			c-0.168,1.807,0.902,4.148,2.377,5.204l7.003,5.019c1.475,1.057,2.966,3.377,3.315,5.157l1.655,8.454
			c0.349,1.78,2.034,3.727,3.747,4.326l8.134,2.842c1.712,0.598,3.797,2.406,4.633,4.014l3.972,7.646
			c0.836,1.61,3.002,3.002,4.814,3.094l8.605,0.436c1.811,0.091,4.321,1.238,5.576,2.546l5.963,6.219
			c1.256,1.31,3.727,2.035,5.491,1.613l8.38-2.007c1.763-0.422,4.494-0.031,6.068,0.873l7.473,4.285
			c1.574,0.904,4.147,0.904,5.722,0l7.474-4.285c1.574-0.904,4.306-1.295,6.069-0.873l8.38,2.007
			c1.763,0.422,4.234-0.303,5.49-1.613l5.963-6.219c1.257-1.307,3.767-2.455,5.577-2.546l8.606-0.436
			c1.81-0.092,3.977-1.484,4.812-3.094l3.97-7.646c0.837-1.608,2.921-3.416,4.634-4.014l8.135-2.842
			c1.712-0.6,3.399-2.546,3.747-4.326l1.655-8.454c0.35-1.78,1.842-4.101,3.315-5.157l7.005-5.019
			c1.474-1.056,2.544-3.398,2.376-5.204l-0.793-8.579c-0.169-1.807,0.61-4.455,1.727-5.883l5.306-6.789
			c1.117-1.43,1.483-3.978,0.815-5.664L193.01,103.065z"/>
	</g>
	<path d="M99.064,24.189c-41.868,0-75.81,33.941-75.81,75.811c0,41.87,33.941,75.81,75.81,75.81
		c41.869,0,75.811-33.941,75.811-75.81C174.875,58.13,140.932,24.189,99.064,24.189z M99.064,146.486
		c-25.673,0-46.485-20.814-46.485-46.486c0-25.673,20.812-46.485,46.485-46.485c25.674,0,46.485,20.812,46.485,46.485
		C145.549,125.672,124.738,146.486,99.064,146.486z"/>
	
		<linearGradient id="_x3C_stars_x3E__1_" gradientUnits="userSpaceOnUse" x1="37.3397" y1="96.8543" x2="200.7361" y2="126.4816" gradientTransform="matrix(-0.5042 -0.8636 0.8636 -0.5042 62.6502 259.0919)">
		<stop  offset="0" style="stop-color:#FFE672"/>
		<stop  offset="0.6157" style="stop-color:#EDA117"/>
	</linearGradient>
	<path id="_x3C_stars_x3E__3_" style="fill:url(#_x3C_stars_x3E__1_);" d="M21.869,126.22l-0.483-1.547l-1.621-0.018l1.322-0.939
		l-0.483-1.547l1.301,0.968l1.323-0.938l-0.519,1.537l1.302,0.969l-1.622-0.019L21.869,126.22z M20.088,120.251l-0.363-1.581
		l-1.616-0.142l1.391-0.835l-0.362-1.578l1.223,1.063l1.39-0.832l-0.636,1.491l1.223,1.067l-1.616-0.144L20.088,120.251z
		 M18.768,114.155l-0.239-1.603l-1.601-0.268l1.452-0.724l-0.238-1.601l1.136,1.153l1.451-0.723l-0.75,1.438l1.138,1.159
		l-1.599-0.269L18.768,114.155z M17.923,107.985l-0.115-1.617l-1.575-0.389l1.504-0.61l-0.115-1.617l1.043,1.238l1.503-0.609
		l-0.858,1.378l1.044,1.242l-1.573-0.389L17.923,107.985z M17.555,101.774l0.009-1.62l-1.54-0.509l1.544-0.493l0.01-1.62
		l0.946,1.314l1.545-0.492l-0.961,1.308l0.946,1.317l-1.539-0.508L17.555,101.774z M17.662,95.547l0.133-1.615l-1.496-0.626
		l1.578-0.372l0.132-1.617l0.844,1.383l1.578-0.374l-1.057,1.231l0.844,1.387l-1.498-0.626L17.662,95.547z M18.245,89.348
		l0.255-1.601l-1.444-0.737l1.601-0.253l0.254-1.6l0.736,1.444l1.601-0.253l-1.147,1.147l0.736,1.446l-1.445-0.736L18.245,89.348z
		 M19.294,83.22l0.376-1.578l-1.385-0.844l1.616-0.131l0.376-1.576l0.626,1.496l1.616-0.13l-1.232,1.056l0.625,1.497l-1.385-0.843
		L19.294,83.22z M20.808,77.174l0.494-1.543l-1.315-0.945l1.621-0.007l0.493-1.544l0.509,1.538l1.623-0.007l-1.31,0.959l0.509,1.54
		l-1.316-0.946L20.808,77.174z M22.774,71.274l0.61-1.501l-1.24-1.045l1.617,0.114l0.609-1.5l0.392,1.573l1.617,0.115l-1.377,0.858
		l0.389,1.575l-1.24-1.044L22.774,71.274z M25.188,65.528l0.722-1.45l-1.157-1.136l1.603,0.239l0.722-1.451l0.271,1.597l1.605,0.24
		l-1.439,0.75l0.269,1.601l-1.158-1.136L25.188,65.528z M28.028,59.992l0.83-1.391l-1.068-1.222l1.582,0.362l0.831-1.393
		l0.148,1.614l1.581,0.36l-1.492,0.638l0.145,1.617l-1.067-1.222L28.028,59.992z M31.288,54.678l0.936-1.323l-0.972-1.3l1.548,0.48
		l0.935-1.324l0.023,1.62l1.551,0.482l-1.537,0.521l0.022,1.623l-0.971-1.299L31.288,54.678z M34.94,49.637l1.034-1.247l-0.868-1.37
		l1.506,0.597l1.034-1.248l-0.101,1.618l1.508,0.599l-1.574,0.402l-0.101,1.619l-0.868-1.369L34.94,49.637z M38.97,44.891
		l1.128-1.165l-0.76-1.433l1.456,0.712l1.126-1.165l-0.227,1.604l1.459,0.714l-1.599,0.279l-0.225,1.608l-0.762-1.432L38.97,44.891z
		 M43.362,40.461l1.213-1.074L43.928,37.9l1.397,0.822l1.213-1.075l-0.347,1.582l1.397,0.823l-1.615,0.157l-0.35,1.584l-0.648-1.486
		L43.362,40.461z M48.063,36.397l1.291-0.98l-0.531-1.532l1.331,0.928l1.29-0.98l-0.467,1.552l1.331,0.926l-1.622,0.032l-0.47,1.554
		l-0.533-1.532L48.063,36.397z M53.076,32.692l1.361-0.878l-0.414-1.567l1.257,1.025l1.362-0.879l-0.585,1.511l1.257,1.025
		l-1.619-0.091l-0.587,1.513l-0.416-1.567L53.076,32.692z M58.338,29.387l1.424-0.771l-0.296-1.594l1.177,1.115l1.424-0.773
		l-0.695,1.463l1.176,1.116l-1.609-0.211l-0.699,1.465l-0.295-1.595L58.338,29.387z M63.853,26.48l1.478-0.664l-0.174-1.613
		l1.087,1.202l1.479-0.664l-0.804,1.406l1.088,1.203l-1.588-0.332l-0.809,1.406l-0.174-1.611L63.853,26.48z M69.564,24l1.525-0.549
		l-0.051-1.621l0.994,1.282l1.525-0.549l-0.909,1.342l0.992,1.282l-1.557-0.454l-0.913,1.342l-0.051-1.62L69.564,24z M75.44,21.965
		l1.562-0.428l0.076-1.621l0.89,1.354l1.564-0.43l-1.011,1.268l0.892,1.354l-1.519-0.572l-1.012,1.267l0.074-1.621L75.44,21.965z
		 M81.473,20.386l1.591-0.307l0.197-1.609l0.786,1.418l1.591-0.308l-1.104,1.186l0.785,1.419l-1.47-0.687l-1.108,1.186l0.198-1.61
		L81.473,20.386z M87.606,19.278l1.611-0.187l0.322-1.588l0.673,1.474l1.612-0.185L90.63,19.89l0.674,1.475l-1.413-0.798
		l-1.196,1.097l0.322-1.588L87.606,19.278z M93.797,18.642l1.618-0.061l0.443-1.56l0.559,1.523l1.62-0.062l-1.272,1.002l0.558,1.524
		l-1.348-0.905L94.7,21.107l0.443-1.561L93.797,18.642z M100.022,18.484l1.618,0.063l0.56-1.522l0.442,1.561l1.619,0.062
		l-1.347,0.902l0.442,1.562l-1.275-1.005l-1.347,0.902l0.558-1.521L100.022,18.484z M106.233,18.801l1.611,0.186l0.674-1.474
		l0.322,1.589l1.61,0.186l-1.412,0.796l0.32,1.589l-1.195-1.096l-1.413,0.797l0.674-1.475L106.233,18.801z M112.406,19.59
		l1.592,0.308l0.784-1.42l0.199,1.609l1.59,0.307l-1.467,0.689l0.2,1.609l-1.109-1.186l-1.471,0.686l0.785-1.42L112.406,19.59z
		 M118.508,20.847l1.561,0.428l0.893-1.357l0.075,1.619l1.564,0.429l-1.516,0.573l0.076,1.621l-1.013-1.265l-1.518,0.572l0.89-1.356
		L118.508,20.847z M124.499,22.563l1.526,0.544l0.992-1.282l-0.047,1.621l1.525,0.544l-1.554,0.458l-0.048,1.621l-0.914-1.341
		l-1.557,0.458l0.991-1.284L124.499,22.563z M130.334,24.727l1.48,0.661l1.086-1.206l-0.169,1.613l1.481,0.66l-1.585,0.338
		l-0.171,1.613l-0.811-1.404l-1.587,0.337l1.086-1.206L130.334,24.727z M135.989,27.329l1.427,0.77l1.173-1.117l-0.291,1.594
		l1.425,0.771l-1.606,0.215l-0.292,1.596l-0.702-1.463l-1.607,0.214l1.173-1.119L135.989,27.329z M141.436,30.359l1.363,0.878
		l1.257-1.025l-0.414,1.567l1.363,0.877l-1.616,0.093l-0.416,1.567l-0.588-1.511l-1.619,0.09l1.256-1.025L141.436,30.359z
		 M146.625,33.79l1.293,0.979l1.33-0.926l-0.532,1.531l1.29,0.979l-1.621-0.031l-0.53,1.532l-0.47-1.553l-1.624-0.034l1.331-0.925
		L146.625,33.79z M151.542,37.613l1.213,1.075l1.397-0.82l-0.649,1.485l1.213,1.077l-1.613-0.156l-0.649,1.486l-0.35-1.585
		l-1.614-0.158l1.399-0.821L151.542,37.613z M156.154,41.809l1.126,1.165l1.457-0.711l-0.761,1.432l1.126,1.166l-1.595-0.281
		l-0.762,1.433l-0.224-1.608l-1.599-0.283l1.457-0.71L156.154,41.809z M160.421,46.335l1.034,1.249l1.507-0.597l-0.868,1.369
		l1.033,1.248l-1.57-0.4l-0.868,1.368l-0.102-1.619l-1.572-0.405l1.507-0.596L160.421,46.335z M164.335,51.186l0.936,1.324
		l1.549-0.481l-0.972,1.298l0.936,1.325l-1.534-0.522l-0.973,1.3l0.023-1.623l-1.537-0.522l1.549-0.481L164.335,51.186z
		 M167.848,56.307l0.84,1.387l1.579-0.372l-1.06,1.228l0.84,1.386l-1.493-0.625l-1.061,1.227l0.135-1.617l-1.496-0.628l1.578-0.371
		L167.848,56.307z M170.995,61.689l0.725,1.449l1.603-0.242l-1.154,1.137l0.725,1.45l-1.438-0.745l-1.155,1.139l0.264-1.6
		l-1.44-0.747l1.603-0.243L170.995,61.689z M173.716,67.289l0.612,1.5l1.617-0.12l-1.237,1.047l0.613,1.501l-1.38-0.852
		l-1.237,1.047l0.385-1.576l-1.379-0.855l1.617-0.12L173.716,67.289z M176,73.079l0.497,1.544l1.621,0.003l-1.314,0.95l0.497,1.543
		l-1.31-0.955l-1.313,0.95l0.505-1.543l-1.31-0.957l1.621,0.005L176,73.079z M177.833,79.025l0.378,1.576l1.615,0.13l-1.384,0.845
		l0.377,1.576l-1.232-1.053l-1.382,0.847l0.622-1.5l-1.234-1.054l1.618,0.128L177.833,79.025z M179.207,85.1l0.253,1.601
		l1.603,0.254l-1.446,0.736l0.255,1.601l-1.145-1.144l-1.448,0.736l0.737-1.446l-1.148-1.146l1.6,0.252L179.207,85.1z
		 M180.107,91.265l0.131,1.614l1.577,0.375l-1.497,0.624l0.13,1.616l-1.055-1.229l-1.497,0.622l0.844-1.385l-1.056-1.233
		l1.577,0.375L180.107,91.265z M180.534,97.475l0.006,1.621l1.544,0.496l-1.539,0.506l0.005,1.621l-0.959-1.306l-1.54,0.508
		l0.949-1.317l-0.96-1.31l1.545,0.496L180.534,97.475z M180.482,103.706l-0.117,1.617l1.503,0.611l-1.575,0.388l-0.118,1.616
		l-0.857-1.375l-1.574,0.388l1.046-1.241l-0.857-1.378l1.501,0.611L180.482,103.706z M179.957,109.912l-0.24,1.601l1.45,0.724
		l-1.599,0.267l-0.24,1.603l-0.75-1.436l-1.598,0.267l1.137-1.158l-0.749-1.441l1.451,0.726L179.957,109.912z M178.961,116.048
		l-0.36,1.582l1.391,0.832l-1.615,0.144l-0.36,1.582l-0.638-1.49l-1.615,0.145l1.221-1.068l-0.639-1.491l1.393,0.831
		L178.961,116.048z M177.5,122.107l-0.48,1.549l1.325,0.934l-1.622,0.022l-0.48,1.549l-0.523-1.534l-1.622,0.021l1.3-0.971
		l-0.522-1.537l1.324,0.935L177.5,122.107z M175.587,128.023l-0.595,1.509l1.249,1.033l-1.618-0.101l-0.595,1.507l-0.406-1.569
		l-1.619-0.102l1.37-0.87l-0.405-1.572l1.25,1.034L175.587,128.023z M173.226,133.79l-0.709,1.457l1.168,1.126l-1.606-0.223
		l-0.708,1.456l-0.286-1.595l-1.606-0.226l1.431-0.761l-0.283-1.598l1.169,1.125L173.226,133.79z M170.432,139.363l-0.818,1.4
		l1.078,1.211l-1.584-0.346l-0.817,1.398l-0.162-1.614l-1.585-0.346l1.488-0.651l-0.161-1.615l1.078,1.212L170.432,139.363z
		 M167.221,144.702l-0.924,1.333l0.984,1.29l-1.554-0.466l-0.924,1.332l-0.038-1.621l-1.553-0.466l1.533-0.537l-0.037-1.621
		l0.981,1.289L167.221,144.702z M163.616,149.773l-1.021,1.256l0.879,1.362l-1.512-0.584l-1.024,1.258l0.088-1.618l-1.513-0.584
		l1.567-0.418l0.088-1.621l0.882,1.362L163.616,149.773z M159.623,154.561l-1.117,1.177l0.774,1.423l-1.464-0.699l-1.115,1.176
		l0.211-1.608l-1.462-0.699l1.595-0.295l0.213-1.609l0.773,1.427L159.623,154.561z M155.288,159.014l-1.202,1.086l0.661,1.481
		l-1.406-0.809l-1.202,1.085l0.333-1.585l-1.405-0.809l1.613-0.172l0.335-1.587l0.662,1.48L155.288,159.014z M150.607,163.136
		l-1.282,0.991l0.546,1.525l-1.34-0.914l-1.282,0.989l0.454-1.554l-1.338-0.915l1.621-0.047l0.456-1.558l0.546,1.526
		L150.607,163.136z M145.635,166.878l-1.354,0.891l0.429,1.564l-1.266-1.013l-1.354,0.891l0.57-1.517l-1.265-1.013l1.622,0.077
		l0.57-1.519l0.429,1.563L145.635,166.878z M140.391,170.236l-1.418,0.787l0.31,1.591l-1.186-1.106l-1.418,0.787l0.683-1.471
		l-1.185-1.105l1.61,0.197l0.686-1.471l0.309,1.593L140.391,170.236z M134.922,173.184l-1.472,0.677l0.189,1.61l-1.099-1.192
		l-1.473,0.676l0.792-1.412l-1.099-1.193l1.591,0.317l0.794-1.414l0.19,1.611L134.922,173.184z M129.225,175.719l-1.52,0.562
		l0.064,1.62l-1.005-1.272l-1.52,0.562l0.898-1.35l-1.005-1.272l1.562,0.438l0.9-1.348l0.066,1.62L129.225,175.719z
		 M123.361,177.808l-1.561,0.444l-0.06,1.621l-0.903-1.347l-1.559,0.443l0.998-1.275l-0.903-1.346l1.524,0.558l1-1.278l-0.059,1.621
		L123.361,177.808z M117.35,179.439l-1.589,0.323l-0.183,1.611l-0.798-1.412l-1.589,0.323l1.095-1.196l-0.798-1.413l1.477,0.674
		l1.096-1.194l-0.183,1.609L117.35,179.439z M111.238,180.603l-1.609,0.199l-0.307,1.594l-0.686-1.47l-1.609,0.199l1.182-1.107
		l-0.687-1.468l1.421,0.783l1.185-1.108l-0.308,1.594L111.238,180.603z M105.048,181.296l-1.62,0.075l-0.429,1.564l-0.571-1.517
		l-1.621,0.076l1.265-1.015l-0.573-1.517l1.356,0.892l1.268-1.014l-0.43,1.564L105.048,181.296z M98.822,181.509l-1.62-0.048
		l-0.546,1.527l-0.456-1.557l-1.62-0.048l1.338-0.915l-0.455-1.556l1.284,0.994l1.34-0.915l-0.547,1.525L98.822,181.509z
		 M92.606,181.248l-1.612-0.171l-0.661,1.48l-0.334-1.586l-1.612-0.172l1.404-0.81l-0.335-1.587l1.205,1.088l1.405-0.81l-0.659,1.48
		L92.606,181.248z M86.411,180.512l-1.594-0.293l-0.773,1.425l-0.212-1.607l-1.594-0.294l1.46-0.701l-0.212-1.607l1.118,1.177
		l1.463-0.7l-0.772,1.426L86.411,180.512z M80.312,179.313l-1.567-0.413l-0.878,1.362l-0.09-1.618l-1.567-0.413l1.511-0.588
		l-0.091-1.62l1.026,1.258l1.512-0.587l-0.877,1.363L80.312,179.313z M74.306,177.651l-1.53-0.531l-0.979,1.29l0.033-1.62
		l-1.532-0.531l1.55-0.472l0.032-1.622l0.928,1.33l1.552-0.469l-0.979,1.294L74.306,177.651z M68.452,175.539l-1.486-0.645
		l-1.074,1.213l0.155-1.613l-1.486-0.647l1.582-0.352l0.155-1.615l0.823,1.399l1.585-0.351l-1.074,1.214L68.452,175.539z
		 M62.777,172.989l-1.433-0.759l-1.163,1.13l0.276-1.598l-1.431-0.758l1.602-0.231l0.278-1.598l0.715,1.457l1.605-0.23l-1.163,1.13
		L62.777,172.989z M57.305,170.008l-1.371-0.863l-1.246,1.037l0.399-1.572l-1.371-0.864l1.616-0.108l0.401-1.572l0.6,1.508
		l1.619-0.107l-1.245,1.038L57.305,170.008z M52.076,166.622l-1.3-0.969l-1.322,0.94l0.519-1.538l-1.301-0.967l1.621,0.016
		l0.518-1.536l0.484,1.549l1.622,0.019l-1.322,0.938L52.076,166.622z M47.13,162.846l-1.222-1.066l-1.391,0.835l0.636-1.494
		l-1.223-1.063l1.615,0.141l0.634-1.492l0.364,1.581l1.616,0.145l-1.39,0.832L47.13,162.846z M42.484,158.697l-1.137-1.155
		l-1.45,0.723l0.748-1.438l-1.136-1.156l1.598,0.266l0.747-1.439l0.241,1.606l1.601,0.266l-1.45,0.725L42.484,158.697z
		 M38.172,154.204l-1.045-1.239l-1.502,0.611l0.857-1.377l-1.046-1.239l1.574,0.387l0.857-1.377l0.116,1.617l1.576,0.391
		l-1.503,0.61L38.172,154.204z M34.219,149.396l-0.947-1.315l-1.545,0.495l0.96-1.308l-0.947-1.314l1.54,0.506l0.958-1.308
		l-0.007,1.623l1.541,0.508l-1.543,0.495L34.219,149.396z M30.641,144.296l-0.846-1.382l-1.577,0.375l1.055-1.231l-0.844-1.384
		l1.496,0.623l1.055-1.232l-0.13,1.619l1.499,0.622l-1.578,0.377L30.641,144.296z M27.458,138.942l-0.738-1.441l-1.602,0.257
		l1.146-1.15l-0.74-1.443l1.446,0.732l1.145-1.15l-0.251,1.606l1.448,0.732l-1.601,0.258L27.458,138.942z M24.69,133.372
		l-0.626-1.493l-1.616,0.134l1.229-1.059l-0.627-1.493l1.386,0.838l1.229-1.059l-0.372,1.581l1.386,0.842l-1.615,0.133
		L24.69,133.372z"/>
	<path style="fill:#FFFFFF;" d="M90.166,87.929c-0.709,0.612-2.03,0.594-3.272,1.073s-1.365,0.692-2.749,0.656
		c-1.383-0.035-5.781-0.018-7.04,0.798s-2.429,2.288-2.412,3.813c0.018,1.525,0.319,2.288,0.319,2.288s-1.649,1.578-1.401,3.618
		c0.248,2.039,0.78,3.103,0.78,3.103s-0.833,3.281-0.266,4.806s1.915,2.749,1.915,2.749s-0.195,2.855,0.301,3.813
		c0.497,0.958,1.915,2.022,4.345,2.305c2.429,0.284,3.884,1.099,7.235,1.224s7.306,0.497,9.257,1.472
		c1.951,0.975,4.362,2.82,4.362,2.82l-1.596,2.376l9.877,8.264l14.719-21.936l-10.959-5.828l-0.993,1.36
		c0,0-8.914-6.455-10.262-10.191c-1.348-3.736-2.128-7.661-2.695-9.127c-0.567-1.466-2.365-10.522-2.79-12.981
		c-0.426-2.459-0.083-5.852-0.224-6.573c-0.142-0.721-2.045-1.726-3.641,0.106c-1.596,1.832-2.022,3.423-2.075,5.604
		c-0.053,2.181,0.55,10.338,0.426,11.349C91.203,85.898,90.875,87.317,90.166,87.929z"/>
	<g>
		<linearGradient id="SVGID_3_" gradientUnits="userSpaceOnUse" x1="159.4079" y1="110.4101" x2="159.4079" y2="89.5899">
			<stop  offset="0" style="stop-color:#DE6E00"/>
			<stop  offset="1" style="stop-color:#FFEB91"/>
		</linearGradient>
		<polygon style="fill:url(#SVGID_3_);" points="170.348,97.541 164.868,102.879 166.179,110.41 159.407,106.846 152.635,110.41 
			153.931,102.879 148.468,97.541 156.031,96.453 159.407,89.59 162.786,96.453 		"/>
		<linearGradient id="SVGID_4_" gradientUnits="userSpaceOnUse" x1="38.7208" y1="110.4101" x2="38.7208" y2="89.5899">
			<stop  offset="0" style="stop-color:#DE6E00"/>
			<stop  offset="1" style="stop-color:#FFEB91"/>
		</linearGradient>
		<polygon style="fill:url(#SVGID_4_);" points="49.661,97.541 44.181,102.879 45.491,110.41 38.72,106.846 31.948,110.41 
			33.244,102.879 27.781,97.541 35.344,96.453 38.72,89.59 42.099,96.453 		"/>
	</g>
	<g>
		<path style="fill:#FFFFFF;" d="M41.485,71.82l-0.376-0.176c-0.928-0.434-1.877-0.42-2.249,0.376
			c-0.413,0.884,0.086,1.602,0.793,1.933c3.115,1.456,4.731-5.974,10.498-3.277c3.358,1.57,3.941,4.239,2.247,7.862
			c-1.591,3.403-3.65,4.756-6.92,3.227l-0.553-0.258l1.859-3.978l0.376,0.176c1.348,0.63,2.092,0.305,2.464-0.49
			c0.393-0.84-0.043-1.636-0.904-2.039c-3.116-1.456-4.586,5.719-10.176,3.105c-3.182-1.488-4.132-4.005-2.51-7.475
			c1.674-3.579,3.867-4.411,7.247-2.831L41.485,71.82z"/>
		<path style="fill:#FFFFFF;" d="M43.297,59.132l3.578-4.449l16.234,7.608l-3.027,3.765l-2.667-1.55l-2.263,2.813l2.086,2.272
			l-3.027,3.765L43.297,59.132z M47.877,59.12l-0.03,0.038l4.98,5.603l1.59-1.978L47.877,59.12z"/>
		<path style="fill:#FFFFFF;" d="M55.365,51.593l-2.621,2.189l-2.472-2.958l8.726-7.288l2.471,2.958l-2.621,2.189l8.696,10.41
			l-3.482,2.909L55.365,51.593z"/>
		<path style="fill:#FFFFFF;" d="M61.572,42.043l3.896-2.324l8.923,14.958l-3.896,2.325L61.572,42.043z"/>
		<path style="fill:#FFFFFF;" d="M77.372,39.879l-0.146-0.388c-0.363-0.958-1.053-1.61-1.874-1.299
			c-0.913,0.345-1.056,1.208-0.779,1.938c1.218,3.217,7.557-0.982,9.811,4.971c1.313,3.468-0.13,5.788-3.871,7.204
			c-3.513,1.33-5.933,0.863-7.211-2.513l-0.216-0.57l4.106-1.555l0.146,0.388c0.527,1.392,1.287,1.678,2.108,1.367
			c0.867-0.328,1.109-1.203,0.772-2.093c-1.218-3.216-7.273,0.902-9.459-4.869c-1.243-3.284-0.169-5.752,3.412-7.107
			c3.695-1.399,5.849-0.467,7.17,3.023L77.372,39.879z"/>
		<path style="fill:#FFFFFF;" d="M84.48,32.519l10.218-1.413l0.508,3.671l-5.725,0.792l0.407,2.947l5.362-0.742l0.488,3.526
			l-5.362,0.742l0.982,7.102l-4.493,0.621L84.48,32.519z"/>
		<path style="fill:#FFFFFF;" d="M100.873,31.185l5.691,0.411l2.98,17.671l-4.816-0.347l-0.242-3.074l-3.602-0.26l-0.68,3.007
			l-4.817-0.347L100.873,31.185z M103.486,34.943l-0.047-0.004l-1.773,7.28l2.529,0.183L103.486,34.943z"/>
		<path style="fill:#FFFFFF;" d="M119.65,40.016c0.607-1.88,0.439-2.55-0.396-2.819c-1.322-0.427-1.852,0.734-3.299,5.214
			c-1.445,4.479-1.695,5.731-0.373,6.158c1.068,0.345,1.6-0.509,2.611-3.642l4.178,1.349l-0.396,1.229
			c-1.5,4.642-4.574,4.879-7.336,3.987c-4.852-1.565-5.131-4.347-3.139-10.521c2.045-6.336,4.219-8.146,8.697-6.7
			c3.9,1.259,4.703,3.773,3.668,6.977l-0.336,1.044l-4.178-1.349L119.65,40.016z"/>
		<path style="fill:#FFFFFF;" d="M129.687,42.867l-2.941-1.732l1.955-3.32l9.791,5.768l-1.955,3.319l-2.941-1.732l-6.881,11.683
			l-3.908-2.302L129.687,42.867z"/>
		<path style="fill:#FFFFFF;" d="M140.771,45.51l3.496,2.89l-11.09,13.422l-3.498-2.889L140.771,45.51z"/>
		<path style="fill:#FFFFFF;" d="M151.519,55.379c2.992,3.537,2.08,6.385-2.891,10.59c-4.971,4.204-7.93,4.632-10.922,1.095
			c-2.992-3.537-2.08-6.385,2.891-10.589C145.568,52.27,148.527,51.842,151.519,55.379z M140.053,65.079
			c0.898,1.062,1.961,0.354,5.553-2.685c3.594-3.039,4.467-3.97,3.568-5.031c-0.896-1.061-1.959-0.354-5.553,2.686
			C140.029,63.088,139.156,64.019,140.053,65.079z"/>
		<path style="fill:#FFFFFF;" d="M157.996,64.54l2.209,4.566l-8.387,7.308l0.021,0.044l9.66-4.673l1.848,3.821l-15.678,7.582
			l-2.166-4.479l8.367-7.406l-0.021-0.044l-9.684,4.684l-1.848-3.821L157.996,64.54z"/>
	</g>
	<g>
		<path style="fill:#FFFFFF;" d="M44.865,131.771l2.951,5.054l-8.17,4.772l-1.55-2.653l1.277-0.859l-0.024-0.042
			c-1.592,0.224-2.74-0.969-3.516-2.296c-2.324-3.979,0.31-5.998,5.279-8.9c5.032-2.939,8.378-3.594,11.083,1.038
			c1.624,2.78,1.369,5.583-2.273,7.711l-2.214-3.79c0.758-0.443,1.311-0.851,1.624-1.231c0.336-0.394,0.395-0.823,0.124-1.287
			c-0.75-1.284-1.919-0.771-5.982,1.603c-4.064,2.374-5.085,3.14-4.385,4.34c0.48,0.821,1.289,0.998,3.934-0.519l-0.812-1.39
			L44.865,131.771z"/>
		<path style="fill:#FFFFFF;" d="M58.602,137.077l-9.045,8.715c-1.212,1.168-1.173,1.841-0.581,2.456
			c0.593,0.614,1.265,0.679,2.476-0.489l9.045-8.715l3.147,3.268l-8.219,7.919c-3.513,3.385-6.021,2.89-8.662,0.149
			c-2.64-2.739-3.041-5.266,0.472-8.649l8.22-7.92L58.602,137.077z"/>
		<path style="fill:#FFFFFF;" d="M67.059,144.654l4.802,3.085l-5.842,16.947l-4.063-2.609l1.258-2.816l-3.037-1.951l-2.038,2.314
			l-4.063-2.609L67.059,144.654z M67.555,149.207l-0.041-0.026l-5.041,5.546l2.135,1.371L67.555,149.207z"/>
		<path style="fill:#FFFFFF;" d="M75.811,150.057l6.723,2.278c3.28,1.111,3.901,3.382,3.041,5.923
			c-0.744,2.195-2.084,3.338-4.149,2.973l-0.016,0.046c2.017,0.89,2.194,2.418,1.45,4.612l-0.478,1.409
			c-0.289,0.855-0.665,1.964-0.566,2.357c0.053,0.225,0.082,0.44,0.313,0.673l-0.078,0.231l-4.574-1.55
			c-0.118-1.02,0.414-2.59,0.648-3.283l0.376-1.108c0.634-1.872,0.429-2.482-0.61-2.834l-1.133-0.384l-2.238,6.607l-4.297-1.456
			L75.811,150.057z M77.743,158.49l0.855,0.29c1.224,0.415,2.067-0.175,2.467-1.354c0.454-1.34,0.118-2.098-1.175-2.535
			l-0.832-0.282L77.743,158.49z"/>
		<path style="fill:#FFFFFF;" d="M91.571,154.426l5.688,0.479l2.77,17.711l-4.813-0.404l-0.206-3.077l-3.598-0.303l-0.717,2.999
			l-4.813-0.404L91.571,154.426z M94.141,158.216l-0.049-0.004l-1.859,7.261l2.528,0.213L94.141,158.216z"/>
		<path style="fill:#FFFFFF;" d="M101.861,155.131l5.008-0.813l4.609,10.126l0.047-0.008l-1.719-10.595l4.191-0.68l2.789,17.192
			l-4.912,0.797l-4.709-10.134l-0.049,0.008l1.723,10.618l-4.189,0.68L101.861,155.131z"/>
		<path style="fill:#FFFFFF;" d="M119.201,155.217l-3.16,1.295l-1.461-3.565l10.518-4.31l1.461,3.566l-3.16,1.294l5.141,12.548
			l-4.197,1.72L119.201,155.217z"/>
		<path style="fill:#FFFFFF;" d="M125.648,148.265l8.539-5.79l2.08,3.068l-4.783,3.244l1.67,2.463l4.48-3.039l1.998,2.947
			l-4.48,3.039l1.943,2.866l4.965-3.367l2.082,3.069l-8.721,5.912L125.648,148.265z"/>
		<path style="fill:#FFFFFF;" d="M135.312,141.488l7.119-7.468l2.684,2.559l-3.99,4.184l2.154,2.054l3.736-3.919l2.578,2.457
			l-3.736,3.919l2.506,2.39l4.141-4.343l2.684,2.559l-7.271,7.627L135.312,141.488z"/>
		<path style="fill:#FFFFFF;" d="M143.381,132.887l3.336-5.677c2.658-4.521,6.367-2.651,10.301-0.34
			c3.932,2.312,7.369,4.644,4.713,9.164l-3.338,5.678L143.381,132.887z M157.875,136.145l0.457-0.778
			c0.889-1.514,0.369-2.073-3.688-4.459c-4.059-2.386-4.801-2.567-5.691-1.053l-0.457,0.777L157.875,136.145z"/>
	</g>
</g>
</svg>
